<?xml version="1.0" standalone="no"?>
<!DOCTYPE svg PUBLIC "-//W3C//DTD SVG 20010904//EN"
 "http://www.w3.org/TR/2001/REC-SVG-20010904/DTD/svg10.dtd">
<svg version="1.0" xmlns="http://www.w3.org/2000/svg"
 width="500.000000pt" height="500.000000pt" viewBox="0 0 500.000000 500.000000"
 preserveAspectRatio="xMidYMid meet">
<metadata>
Created by potrace 1.14, written by Peter Selinger 2001-2017
</metadata>
<g transform="translate(0.000000,500.000000) scale(0.100000,-0.100000)"
fill="#000000" stroke="none">
<path d="M2462 4123 c-6 -3 -10 -8 -8 -11 2 -4 -30 -6 -72 -5 -44 1 -83 -3
-90 -10 -10 -8 -16 -7 -22 3 -6 10 -12 11 -22 4 -7 -6 -25 -9 -41 -8 -19 2
-25 -1 -20 -9 4 -7 0 -6 -10 2 -14 11 -17 11 -17 0 0 -11 -2 -11 -10 1 -6 9
-10 11 -10 3 0 -7 -7 -10 -15 -7 -8 4 -15 1 -15 -6 0 -10 -3 -10 -14 -1 -10 8
-16 9 -21 1 -3 -6 -10 -8 -15 -5 -5 3 -12 1 -15 -5 -5 -8 -11 -7 -21 1 -11 9
-15 8 -19 -2 -3 -8 -20 -15 -37 -16 -18 0 -34 -6 -36 -11 -2 -6 -10 -8 -19 -5
-12 5 -14 3 -8 -8 8 -12 6 -12 -8 0 -13 10 -17 10 -17 1 0 -10 -3 -10 -16 0
-8 8 -14 9 -13 4 4 -21 -2 -28 -11 -14 -6 10 -10 11 -10 3 0 -8 -13 -13 -31
-13 -17 0 -28 -4 -24 -10 3 -6 -1 -7 -9 -4 -10 4 -16 1 -16 -7 0 -7 -3 -9 -7
-6 -3 4 -12 2 -20 -4 -10 -9 -13 -8 -13 2 0 8 -4 7 -13 -4 -6 -10 -25 -20 -42
-23 -16 -3 -36 -11 -44 -17 -12 -9 -13 -9 -7 0 5 9 2 11 -8 7 -9 -3 -14 -10
-11 -14 3 -5 -4 -6 -15 -3 -12 3 -22 -1 -26 -10 -3 -9 -12 -13 -20 -10 -7 3
-17 -2 -20 -11 -3 -9 -10 -13 -15 -10 -5 3 -9 0 -9 -7 0 -7 -3 -9 -7 -6 -3 4
-12 -1 -20 -11 -8 -9 -11 -11 -7 -3 5 10 3 12 -5 7 -7 -5 -10 -14 -7 -22 4
-12 2 -12 -14 -4 -16 9 -22 7 -27 -5 -6 -16 -50 -40 -67 -36 -5 1 -6 -5 -2
-14 4 -12 0 -14 -18 -11 -17 3 -23 0 -22 -12 1 -11 -5 -16 -16 -14 -9 1 -22
-7 -28 -18 -6 -11 -17 -20 -26 -20 -8 0 -17 -7 -20 -15 -4 -8 -11 -12 -17 -8
-6 4 -8 0 -4 -9 3 -10 0 -15 -11 -14 -9 0 -16 -5 -15 -11 2 -7 0 -12 -5 -12
-19 3 -33 -2 -27 -10 3 -5 -4 -12 -15 -16 -11 -3 -20 -12 -20 -18 0 -7 -4 -6
-10 3 -5 8 -10 10 -10 4 0 -5 6 -16 13 -23 10 -11 10 -13 -1 -7 -6 4 -12 2
-12 -4 0 -6 -4 -8 -10 -5 -5 3 -10 1 -10 -5 0 -6 -5 -8 -12 -4 -6 4 -8 3 -4
-4 7 -11 -38 -62 -55 -62 -6 0 -7 -5 -4 -10 3 -6 -4 -14 -17 -19 -13 -6 -17
-10 -9 -10 7 -1 -1 -14 -19 -31 -17 -16 -29 -34 -25 -40 3 -6 0 -7 -9 -4 -11
4 -14 0 -11 -15 2 -13 -1 -18 -9 -15 -8 3 -18 -8 -26 -25 -7 -17 -16 -28 -21
-25 -5 3 -9 -2 -9 -11 0 -9 -4 -13 -10 -10 -6 3 -7 -1 -4 -9 3 -9 1 -16 -6
-16 -6 0 -8 -5 -5 -10 3 -6 0 -13 -9 -16 -8 -3 -12 -12 -9 -20 3 -8 0 -14 -7
-14 -7 0 -10 -7 -6 -15 3 -8 2 -14 -2 -14 -19 3 -25 -2 -12 -11 10 -6 11 -10
3 -10 -7 0 -13 -7 -13 -15 0 -9 -7 -18 -15 -21 -8 -4 -13 -10 -10 -14 8 -12
-6 -41 -16 -34 -5 3 -9 -2 -9 -10 0 -9 -5 -16 -11 -16 -8 0 -7 -5 1 -15 7 -9
10 -18 6 -22 -3 -3 -6 -1 -6 6 0 7 -5 9 -10 6 -6 -4 -8 -11 -5 -16 4 -5 1 -9
-5 -9 -6 0 -8 -5 -5 -10 4 -6 2 -17 -5 -25 -6 -7 -13 -26 -16 -42 -3 -15 -9
-29 -14 -31 -5 -2 -7 -9 -4 -16 3 -7 -2 -18 -10 -25 -12 -10 -13 -18 -5 -32 8
-15 6 -19 -8 -19 -15 0 -16 -2 -3 -10 13 -9 13 -10 0 -10 -13 0 -13 -1 0 -10
14 -9 7 -14 -13 -11 -4 1 -3 -8 3 -19 8 -14 8 -20 0 -20 -6 0 -9 -4 -5 -9 3
-5 1 -13 -5 -16 -8 -5 -7 -11 1 -21 8 -10 8 -14 0 -14 -6 0 -11 -7 -11 -16 0
-8 4 -12 10 -9 6 3 7 -1 4 -9 -3 -9 -10 -16 -15 -16 -5 0 -9 -5 -9 -11 0 -5 4
-7 10 -4 6 4 7 -2 1 -17 -4 -13 -5 -35 0 -50 5 -17 3 -30 -3 -34 -7 -5 -8 -2
-3 6 5 9 4 11 -4 6 -9 -6 -9 -11 -1 -21 6 -7 7 -21 3 -30 -3 -10 -2 -16 3 -13
5 4 7 -15 5 -44 -2 -40 0 -49 10 -43 11 6 12 5 2 -6 -16 -16 -17 -33 -3 -24
13 8 8 -18 -5 -27 -6 -5 -3 -8 6 -8 11 0 15 -8 14 -25 -2 -14 1 -25 6 -25 6 0
7 -5 4 -10 -4 -6 -1 -18 7 -27 11 -14 11 -16 -2 -8 -9 5 -7 -1 5 -15 11 -13
14 -20 8 -16 -9 5 -11 2 -7 -8 3 -9 10 -14 14 -11 5 3 6 -5 2 -17 -3 -13 -1
-19 5 -15 6 4 9 -4 7 -18 -1 -14 3 -31 10 -38 7 -6 14 -16 17 -22 2 -5 8 -9
12 -7 4 1 3 -7 -4 -19 -8 -15 -8 -19 0 -15 10 6 16 -13 12 -37 -1 -5 3 -6 9
-2 6 3 10 -3 10 -15 0 -13 4 -19 11 -14 7 4 7 -1 -1 -16 -8 -15 -8 -20 -1 -16
19 12 33 -4 19 -22 -7 -9 -8 -13 -3 -10 6 3 16 0 23 -8 7 -8 9 -14 5 -14 -4 0
-3 -4 2 -8 6 -4 16 -18 23 -31 11 -19 11 -22 0 -16 -7 3 -4 -1 6 -9 11 -9 16
-16 11 -16 -5 0 0 -7 11 -16 10 -8 13 -13 7 -9 -8 4 -11 1 -7 -9 3 -9 11 -14
17 -13 7 1 11 -4 9 -10 -1 -7 6 -13 15 -13 15 0 16 -2 3 -10 -13 -8 -12 -10 4
-10 11 0 16 -3 13 -6 -4 -4 5 -17 19 -29 15 -13 24 -28 20 -33 -4 -7 1 -9 14
-7 17 3 19 1 10 -15 -9 -16 -8 -18 6 -13 12 4 15 3 10 -5 -4 -7 -2 -12 4 -12
6 0 8 -4 5 -10 -4 -6 1 -7 11 -3 11 4 15 2 11 -4 -4 -6 1 -14 10 -17 15 -6 15
-8 3 -16 -12 -8 -11 -10 7 -10 13 0 24 -8 28 -20 3 -11 13 -20 21 -20 8 0 13
-4 10 -9 -3 -5 4 -11 15 -14 11 -3 23 -15 26 -27 4 -16 8 -18 14 -8 6 9 9 7 9
-9 0 -16 5 -21 19 -18 15 3 18 -1 14 -18 -4 -18 -3 -19 6 -7 8 11 11 12 11 2
0 -7 5 -10 10 -7 6 4 9 1 8 -5 -2 -6 8 -18 22 -27 23 -14 24 -14 6 1 -11 9
-15 16 -8 16 6 0 17 -9 25 -20 8 -11 17 -17 20 -13 4 3 7 1 7 -7 0 -10 3 -10
16 1 13 10 17 10 26 -2 7 -11 11 -11 15 -1 2 6 14 12 26 13 12 0 16 3 9 6 -10
4 -10 8 -1 19 9 11 8 14 -2 14 -11 0 -11 2 1 10 12 8 12 10 1 10 -11 0 -11 3
0 17 11 13 11 17 2 20 -7 3 -13 9 -13 14 0 6 4 8 9 5 9 -6 6 42 -3 51 -3 3 -1
14 4 24 7 12 7 20 0 24 -8 5 -7 12 1 22 10 12 10 16 -1 23 -11 7 -11 11 -1 24
11 12 11 16 1 16 -10 0 -10 4 1 16 10 13 10 17 -2 25 -12 7 -12 10 0 18 9 6
10 11 3 15 -15 9 -3 37 12 30 6 -3 3 1 -8 10 -11 9 -15 20 -10 27 4 7 9 25 10
38 2 20 1 22 -6 11 -7 -11 -9 -4 -7 22 2 21 6 41 10 44 4 4 7 12 7 18 0 6 -4
5 -9 -2 -6 -10 -10 -7 -13 12 -3 14 -2 25 1 24 20 -2 22 4 5 18 -10 8 -13 13
-6 9 7 -4 12 0 12 10 0 10 -5 14 -12 10 -7 -4 -4 1 6 9 20 16 20 16 0 16 -16
0 -17 2 -4 10 8 5 11 10 5 10 -5 0 -4 5 3 12 15 15 15 28 1 28 -5 0 -7 -5 -3
-12 5 -7 3 -8 -5 -4 -9 6 -8 13 6 29 10 11 12 17 4 12 -10 -6 -12 -4 -5 6 13
22 14 42 1 58 -8 10 -8 13 -1 8 7 -4 15 0 18 9 5 12 2 15 -11 10 -17 -6 -17
-5 -1 7 13 11 15 16 6 25 -8 8 -8 12 -2 12 6 0 10 10 9 23 -1 12 3 25 9 29 7
5 6 8 -3 8 -11 0 -11 3 0 17 12 14 12 15 1 9 -12 -7 -12 -4 -2 14 6 12 9 28 6
36 -3 8 0 14 6 14 6 0 5 6 -3 17 -12 14 -12 16 0 8 11 -6 13 -4 8 7 -3 9 0 21
6 28 9 10 9 11 -1 5 -11 -6 -12 -3 -3 13 6 11 8 28 5 36 -4 10 -1 16 7 16 12
0 12 2 1 9 -11 6 -10 10 3 15 14 5 15 9 6 20 -8 10 -9 16 -1 21 6 3 8 11 5 16
-4 5 -1 9 4 9 6 0 11 5 11 11 0 5 -6 7 -12 4 -7 -4 -6 -1 2 7 8 7 17 22 18 33
2 11 7 22 10 25 4 3 8 13 10 24 2 12 -1 16 -9 10 -8 -4 -10 -3 -5 5 4 6 11 9
16 6 4 -3 11 2 14 11 3 8 2 13 -3 10 -5 -4 -4 5 2 19 7 14 17 23 23 21 7 -3
10 3 7 15 -3 12 0 19 8 19 11 0 11 2 -1 10 -13 8 -12 10 3 10 10 0 15 5 12 10
-3 6 -1 10 5 10 6 0 8 5 5 10 -3 6 -1 10 4 10 6 0 11 6 11 14 0 8 7 17 16 20
8 3 12 10 9 16 -3 6 0 13 9 16 8 3 17 12 20 20 4 10 1 13 -7 9 -6 -4 0 3 16
15 15 12 25 26 21 31 -5 9 10 13 30 10 5 -1 4 5 -4 13 -11 14 -9 16 9 16 14 0
21 6 21 20 0 11 6 19 13 17 6 -1 11 4 10 10 -2 7 0 12 5 12 19 -3 33 2 27 11
-3 6 -1 10 5 10 6 0 8 5 4 12 -4 7 -3 8 5 4 6 -4 14 0 17 8 3 9 11 13 17 9 6
-4 8 0 4 10 -4 11 -2 14 8 10 8 -3 18 2 21 11 3 9 10 13 15 10 5 -3 9 0 9 6 0
6 5 8 12 4 7 -4 8 -3 4 5 -4 6 0 14 11 19 33 13 103 64 103 75 0 6 3 7 6 4 11
-11 45 13 37 26 -4 7 0 7 10 -2 14 -11 18 -11 23 2 3 9 13 13 26 9 17 -4 20
-2 15 12 -6 14 -3 15 13 6 16 -8 22 -8 26 4 3 8 14 13 25 11 11 -2 17 0 14 6
-4 5 5 9 19 9 14 0 26 5 26 12 0 9 3 9 12 0 7 -7 17 -12 23 -12 5 0 3 5 -5 10
-15 10 -6 13 42 13 10 0 15 4 11 10 -4 6 2 8 15 5 16 -5 22 -2 22 10 0 11 3
13 8 6 4 -6 16 -11 27 -11 11 0 23 5 27 11 5 7 8 6 8 -3 0 -11 3 -11 15 -1 12
10 15 10 15 0 0 -10 3 -10 15 0 12 10 15 10 15 -1 0 -9 3 -10 8 -4 11 16 46
19 36 3 -6 -10 -5 -10 7 -2 15 12 63 13 75 1 4 -4 14 -2 21 5 11 9 17 9 24 -3
5 -8 9 -9 9 -3 0 6 7 11 15 11 8 0 15 -5 15 -11 0 -6 5 -4 10 4 8 13 10 13 10
1 0 -11 3 -12 11 -4 9 9 18 7 37 -5 21 -14 24 -14 17 -2 -8 13 -7 13 8 1 14
-11 17 -11 17 0 1 9 4 8 11 -4 8 -14 14 -16 25 -6 11 9 14 9 14 0 0 -7 4 -10
9 -7 5 3 12 -1 15 -9 5 -13 10 -14 27 -4 19 10 21 9 15 -6 -4 -13 -2 -16 9
-11 8 3 15 1 15 -4 0 -5 7 -7 15 -4 8 4 15 1 15 -5 0 -6 7 -8 15 -5 8 4 17 -1
21 -10 8 -22 25 -20 17 2 -3 11 0 9 11 -6 10 -12 22 -20 27 -17 5 4 9 1 9 -5
0 -6 5 -8 10 -5 6 3 10 1 10 -4 0 -6 11 -11 24 -11 14 0 28 -5 31 -10 4 -6 11
-7 17 -4 7 5 8 2 4 -5 -5 -8 0 -14 13 -18 12 -3 18 -10 14 -17 -4 -6 2 -4 12
4 10 8 16 11 13 5 -3 -5 0 -15 7 -22 11 -10 15 -10 18 0 3 7 6 4 6 -6 1 -10 6
-15 11 -12 6 3 10 1 10 -5 0 -6 5 -8 10 -5 6 3 10 -1 10 -9 0 -15 12 -21 34
-17 5 1 6 -5 3 -13 -4 -11 -1 -13 10 -9 11 4 14 2 9 -5 -4 -7 -2 -12 4 -12 6
0 18 -7 27 -15 8 -8 20 -12 26 -8 7 4 8 0 4 -11 -4 -10 -1 -19 8 -22 8 -4 15
-13 15 -21 0 -8 5 -11 10 -8 6 3 10 1 10 -4 0 -6 7 -11 15 -11 9 0 12 -6 8
-17 -4 -11 -3 -14 5 -9 7 4 12 2 12 -4 0 -6 5 -8 13 -4 8 6 8 3 -1 -9 -12 -14
-11 -16 7 -12 14 2 19 0 15 -7 -4 -6 1 -17 11 -25 14 -9 15 -13 4 -13 -8 -1
-3 -7 11 -15 15 -9 19 -14 10 -15 -13 0 -13 -1 0 -10 8 -5 11 -10 6 -10 -6 0
-1 -7 10 -16 10 -8 12 -13 4 -9 -8 4 -4 -3 9 -14 13 -12 18 -21 12 -21 -6 0
-8 -7 -5 -15 4 -8 11 -12 18 -8 6 4 5 -1 -3 -10 -12 -15 -11 -17 3 -17 9 0 16
-4 16 -10 0 -5 -5 -10 -11 -10 -6 0 -4 -7 5 -15 8 -9 13 -22 10 -30 -4 -8 -1
-15 5 -15 6 0 11 -18 11 -41 0 -22 4 -38 8 -35 4 2 8 -4 8 -14 0 -14 -3 -16
-13 -8 -10 8 -12 7 -7 -6 3 -9 11 -16 18 -16 6 0 4 -5 -4 -10 -11 -7 -11 -10
-2 -10 7 0 10 -4 7 -10 -3 -6 0 -10 7 -11 7 0 4 -4 -7 -9 -13 -6 -15 -9 -5 -9
13 -1 13 -2 0 -11 -13 -9 -13 -10 0 -10 13 0 13 -1 0 -10 -11 -7 -11 -10 -2
-10 8 0 10 -5 5 -12 -11 -19 -13 -39 -2 -32 5 3 9 0 9 -5 0 -6 -5 -11 -12 -11
-9 0 -9 -3 0 -12 7 -7 12 -17 12 -22 0 -6 -5 -4 -10 4 -7 11 -10 7 -10 -18 0
-24 -4 -31 -12 -26 -7 4 -10 4 -6 -1 4 -4 2 -17 -4 -29 -9 -18 -9 -19 3 -11 8
6 7 3 -3 -7 -13 -12 -15 -18 -6 -21 8 -4 4 -8 -10 -13 -14 -4 -19 -10 -13 -14
8 -4 5 -14 -9 -30 -11 -12 -17 -27 -14 -31 3 -5 0 -9 -6 -9 -7 0 -10 -7 -6
-15 3 -8 0 -14 -7 -12 -7 1 -11 -4 -9 -10 1 -7 -3 -13 -9 -13 -5 0 -7 -6 -3
-12 6 -9 3 -9 -9 0 -14 12 -16 11 -12 -7 2 -14 -1 -18 -11 -14 -8 3 -14 -1
-14 -10 0 -8 -8 -21 -17 -28 -17 -13 -17 -12 -4 6 7 11 0 6 -15 -11 -16 -17
-37 -34 -46 -37 -10 -4 -18 -11 -18 -17 0 -5 -7 -10 -16 -10 -8 0 -13 -4 -9
-9 3 -5 1 -12 -5 -16 -5 -3 -10 0 -10 7 0 8 -5 6 -11 -5 -5 -9 -8 -21 -5 -26
4 -5 -3 -7 -14 -4 -11 3 -20 1 -20 -3 0 -5 -14 -15 -30 -22 -17 -8 -27 -18
-24 -24 4 -6 1 -9 -7 -6 -8 3 -20 -2 -27 -11 -11 -13 -12 -13 -6 -1 6 11 2 10
-13 -3 -11 -9 -23 -14 -26 -10 -4 3 -7 1 -7 -5 0 -7 -3 -11 -7 -11 -21 3 -33
-2 -28 -12 4 -6 1 -10 -6 -8 -29 3 -40 -1 -33 -13 6 -10 4 -10 -8 0 -13 10
-18 10 -24 1 -5 -8 -3 -9 6 -4 9 5 11 4 6 -4 -6 -9 -11 -9 -22 0 -11 9 -14 9
-14 -1 0 -7 -7 -10 -15 -6 -8 3 -15 0 -15 -6 0 -6 -3 -8 -6 -5 -4 3 -15 2 -25
-3 -12 -7 -20 -6 -25 1 -5 9 -11 6 -21 -6 -8 -12 -13 -14 -13 -6 0 10 -3 11
-14 2 -10 -8 -21 -8 -41 -1 -23 9 -26 8 -21 -5 4 -12 2 -13 -13 -6 -12 7 -22
6 -30 -2 -7 -7 -12 -7 -11 -2 5 21 -1 29 -10 15 -5 -8 -22 -15 -39 -15 -16 0
-28 2 -25 6 2 4 0 10 -5 13 -5 3 -12 -2 -16 -12 -6 -16 -7 -16 -17 2 -11 19
-11 19 -24 1 -8 -11 -14 -13 -14 -6 0 7 -4 9 -10 6 -5 -3 -10 -1 -10 6 0 9 -3
9 -14 0 -11 -10 -18 -7 -31 11 -12 16 -16 18 -11 5 7 -22 -12 -13 -32 15 -12
16 -16 17 -30 6 -12 -10 -14 -10 -8 0 4 7 1 12 -9 12 -10 0 -13 5 -9 13 5 7 2
7 -10 -2 -9 -8 -16 -10 -15 -5 4 24 -3 34 -27 34 -23 0 -25 2 -14 15 11 13 10
14 -4 9 -9 -3 -16 -1 -16 5 0 6 -8 8 -17 4 -16 -6 -17 -5 -3 13 8 10 10 16 5
11 -4 -4 -18 1 -29 10 -20 17 -20 17 -6 -1 14 -18 14 -19 -8 -7 -13 7 -26 10
-29 7 -4 -3 -12 -1 -20 6 -11 8 -12 7 -7 -6 4 -10 1 -16 -7 -16 -8 0 -14 -12
-15 -27 -1 -16 -4 -37 -9 -48 -6 -16 -5 -17 4 -5 9 12 11 10 8 -10 -1 -14 -6
-31 -11 -39 -6 -10 -5 -12 2 -7 7 4 12 1 12 -8 0 -9 -6 -16 -12 -17 -7 0 -4
-4 7 -9 11 -5 14 -9 7 -9 -7 -1 -10 -6 -7 -12 4 -6 8 -27 9 -46 1 -27 -3 -37
-16 -41 -10 -2 -15 -9 -12 -14 3 -5 -3 -12 -15 -15 -11 -3 -18 -9 -15 -14 3
-5 -2 -9 -11 -9 -10 0 -13 -5 -9 -12 5 -9 3 -9 -9 1 -14 11 -18 11 -23 -3 -3
-9 -10 -16 -16 -16 -5 0 -6 6 -3 13 4 6 1 5 -7 -4 -7 -9 -19 -14 -27 -11 -8 3
-11 0 -7 -7 4 -6 2 -11 -3 -11 -6 0 -11 5 -11 12 0 6 -7 3 -16 -8 -8 -10 -13
-13 -9 -6 9 17 0 15 -19 -4 -11 -11 -16 -12 -16 -3 0 7 -6 4 -15 -7 -11 -15
-15 -16 -15 -4 -1 9 -5 5 -11 -8 -5 -13 -13 -21 -18 -18 -5 3 -12 -1 -15 -10
-3 -8 -10 -13 -15 -9 -6 3 -8 -3 -6 -14 3 -15 0 -18 -12 -14 -11 4 -14 2 -9
-5 4 -8 0 -12 -11 -12 -14 0 -15 -2 -4 -9 9 -6 10 -11 2 -15 -6 -4 -9 -12 -5
-17 3 -5 0 -8 -8 -7 -8 2 -13 -6 -12 -18 0 -14 -4 -20 -13 -17 -8 3 -13 -3
-13 -16 0 -12 -4 -21 -10 -21 -5 0 -10 -5 -10 -11 0 -5 5 -7 10 -4 18 11 11
-4 -12 -26 -21 -20 -21 -21 -3 -15 18 5 18 4 4 -6 -9 -7 -15 -21 -13 -30 1
-10 -2 -18 -6 -18 -9 0 -4 -46 6 -62 3 -4 -1 -8 -8 -8 -9 0 -10 -3 -2 -8 6 -4
14 -17 18 -29 4 -13 12 -23 17 -23 6 0 7 -4 4 -10 -3 -5 3 -10 14 -10 13 0 21
-7 21 -17 0 -14 2 -15 9 -5 6 10 10 10 21 -2 7 -9 16 -13 21 -10 5 3 9 -1 10
-8 0 -7 4 -4 9 7 7 16 9 17 9 3 1 -9 6 -20 13 -24 7 -4 8 -3 4 4 -4 7 -2 12 3
12 6 0 11 -4 11 -9 0 -5 15 -8 34 -7 19 1 34 -1 34 -4 -1 -17 4 -19 23 -9 17
8 20 8 14 -1 -6 -9 0 -11 24 -8 18 3 35 0 38 -5 4 -6 1 -7 -8 -2 -8 5 -10 4
-6 0 12 -14 38 -15 30 -2 -5 9 -3 9 8 1 13 -11 44 -15 116 -16 20 0 30 -4 26
-11 -4 -6 -1 -7 8 -1 23 14 59 16 59 2 0 -9 3 -9 10 2 8 12 10 12 10 1 0 -10
3 -11 13 -2 10 7 17 7 24 0 8 -8 13 -8 17 0 11 17 29 13 22 -5 -5 -12 -3 -14
6 -8 7 5 32 9 56 9 23 0 42 4 42 8 0 5 6 4 14 -2 10 -8 16 -9 21 -1 4 7 12 7
24 0 10 -5 21 -6 25 -3 11 11 57 12 50 1 -4 -5 5 -2 20 7 15 10 26 13 26 6 0
-6 5 -11 11 -11 5 0 7 6 3 13 -5 8 -2 8 9 -2 9 -7 17 -9 17 -4 0 5 18 8 40 6
24 -1 38 2 35 8 -8 12 18 7 27 -6 5 -6 8 -5 8 4 0 11 3 11 17 0 11 -10 14 -10
9 -1 -5 9 2 12 28 12 23 0 39 6 45 18 10 16 10 16 11 0 0 -11 5 -15 15 -12 8
4 13 10 10 14 -2 4 9 6 25 4 17 -2 30 1 30 7 0 6 4 8 9 4 6 -3 15 3 21 12 11
17 11 17 6 1 -7 -22 10 -24 18 -2 3 8 11 12 17 9 5 -4 17 1 25 11 9 11 13 13
9 7 -7 -14 7 -18 19 -6 8 8 34 14 59 14 11 0 15 5 10 12 -4 7 2 5 12 -3 11 -9
16 -10 11 -2 -7 12 4 16 32 13 6 -1 12 3 12 10 0 6 6 9 14 6 7 -3 24 2 37 10
12 9 20 12 16 6 -3 -5 0 -10 8 -10 8 0 14 3 13 6 -2 19 4 24 12 11 7 -11 10
-11 10 -2 0 7 5 10 10 7 6 -3 10 -1 10 5 0 6 5 8 10 5 6 -3 10 -1 10 6 0 10 3
10 12 1 10 -10 16 -8 31 10 10 13 16 18 13 11 -4 -7 1 -10 11 -9 9 2 19 8 21
14 2 7 10 12 18 12 9 0 13 4 9 9 -3 6 4 8 16 6 15 -3 19 0 15 10 -3 10 0 12
11 8 11 -5 14 -3 8 6 -6 10 -3 11 15 1 15 -8 20 -8 16 -1 -4 6 -2 11 4 11 6 0
8 5 4 12 -4 6 -3 8 4 4 6 -3 13 -2 17 4 4 6 11 7 17 4 8 -5 9 -1 4 12 -6 15
-5 17 6 6 10 -10 16 -8 31 10 10 13 16 16 12 8 -4 -10 -2 -9 8 2 8 10 17 15
20 11 4 -3 7 -1 7 6 0 7 5 9 10 6 6 -4 9 -3 8 2 -2 4 0 8 4 8 4 0 14 9 23 20
9 11 14 14 10 8 -4 -9 -1 -11 9 -7 9 3 13 10 10 15 -3 5 0 9 7 9 6 0 18 8 26
18 8 9 12 11 8 5 -4 -8 -1 -11 9 -7 9 3 14 11 13 17 -1 7 4 11 12 9 8 -2 11 3
8 12 -4 10 0 14 12 11 12 -2 23 5 30 21 6 14 15 22 21 19 5 -3 15 3 22 15 7
11 20 20 28 20 13 0 13 1 0 10 -10 7 -11 10 -2 11 27 3 31 4 39 13 5 5 3 6 -4
2 -21 -12 -15 5 8 25 12 10 26 16 31 13 4 -3 7 0 6 8 -2 7 3 12 10 10 8 -1 11
2 6 9 -3 6 6 22 22 36 16 14 29 30 29 36 1 7 6 11 13 10 6 -2 9 4 6 12 -4 10
0 15 10 15 14 0 15 3 5 23 -12 21 -11 21 7 7 10 -8 16 -10 11 -5 -4 4 2 18 12
29 19 20 21 24 21 47 0 5 4 7 10 4 5 -3 13 7 16 22 4 15 13 34 21 41 7 7 13
20 13 28 0 10 5 12 13 8 7 -5 6 0 -3 11 -9 11 -10 16 -2 11 11 -6 17 5 13 27
0 4 4 7 10 7 6 0 9 7 5 15 -3 8 -1 15 5 15 6 0 9 6 6 14 -3 8 1 17 9 20 9 3
13 10 10 15 -3 5 1 23 10 40 8 17 12 36 8 42 -4 7 -3 9 3 6 11 -7 28 22 18 31
-3 3 -5 -1 -5 -8 0 -7 -3 -10 -7 -7 -3 4 2 17 13 29 12 13 13 18 4 13 -9 -5
-7 0 4 14 20 22 20 22 0 16 -18 -6 -18 -6 -1 8 12 10 15 17 7 22 -8 5 -8 11 1
21 6 8 8 14 3 14 -4 0 -3 5 4 12 16 16 15 31 0 22 -10 -6 -10 -4 -2 7 6 8 10
22 9 32 -2 9 2 17 8 17 7 0 5 5 -3 10 -8 5 -10 10 -5 10 6 0 9 23 9 52 -1 29
4 59 10 67 8 11 8 13 -2 7 -9 -6 -12 5 -9 43 2 38 -1 51 -13 55 -11 3 -10 4 4
5 17 1 18 2 1 27 -9 15 -13 24 -7 20 5 -3 12 1 16 9 3 8 0 14 -7 12 -7 -1 -10
5 -8 13 7 26 2 55 -9 58 -5 2 -10 8 -10 13 0 6 6 7 13 3 6 -4 3 3 -8 16 -13
15 -15 21 -5 16 13 -6 13 -5 0 6 -9 7 -14 21 -12 32 3 13 0 16 -10 10 -10 -6
-11 -5 -1 8 11 12 9 18 -7 33 -12 10 -18 25 -16 32 3 7 1 13 -5 13 -6 0 -7 5
-4 10 3 6 1 10 -5 10 -6 0 -9 4 -5 9 3 5 -2 17 -11 25 -10 11 -11 16 -3 16 7
0 2 9 -11 20 -13 11 -17 20 -10 20 7 0 3 9 -10 20 -15 13 -18 20 -9 20 11 0
11 2 1 9 -7 4 -14 14 -15 22 -4 24 -18 40 -29 33 -7 -5 -9 0 -6 14 4 12 2 20
-3 16 -5 -3 -9 0 -9 6 0 7 -7 10 -17 6 -15 -5 -15 -4 1 9 20 15 20 15 0 16
-11 0 -14 3 -6 6 9 3 4 13 -15 30 -15 14 -22 22 -15 19 17 -10 15 -3 -7 22
-10 12 -22 18 -27 14 -4 -4 -2 1 5 11 12 15 11 17 -4 17 -10 0 -16 3 -12 6 3
3 -7 19 -23 34 -19 19 -25 30 -17 34 9 3 8 5 -1 5 -17 1 -43 27 -35 35 4 3 -1
6 -11 6 -9 0 -15 3 -13 8 3 4 -1 13 -9 20 -8 7 -14 9 -15 5 0 -4 -4 2 -9 14
-6 15 -15 21 -25 17 -8 -3 -15 -1 -15 6 0 6 5 8 10 5 6 -3 10 1 10 10 0 9 -4
14 -9 10 -5 -3 -12 -1 -16 5 -4 6 -11 8 -16 5 -5 -4 -9 0 -9 8 0 8 -10 22 -22
33 -23 19 -23 19 -8 -1 12 -17 11 -17 -6 1 -12 13 -26 20 -30 16 -5 -4 -2 1 5
11 12 15 12 17 -3 11 -9 -3 -16 -1 -16 5 0 6 -7 8 -15 5 -11 -5 -13 -2 -9 10
4 11 1 16 -11 16 -10 0 -13 5 -9 12 4 7 3 8 -5 4 -6 -4 -18 -1 -26 6 -33 30
-45 38 -55 38 -5 0 -10 5 -10 10 0 6 -7 10 -15 10 -8 0 -15 3 -15 8 0 4 -13
16 -28 27 -22 15 -24 16 -13 2 12 -15 12 -17 -3 -11 -9 3 -16 13 -16 21 0 8
-4 11 -10 8 -5 -3 -10 1 -10 9 0 10 -7 13 -20 11 -13 -3 -18 0 -14 7 5 8 1 9
-10 5 -10 -4 -15 -3 -11 3 3 6 -1 10 -9 10 -9 0 -16 5 -16 11 0 5 -4 7 -10 4
-5 -3 -10 -1 -10 4 0 6 -5 11 -11 11 -5 0 -7 -6 -3 -12 5 -9 3 -9 -9 1 -9 7
-14 17 -11 22 3 5 -3 6 -12 2 -13 -5 -15 -3 -9 7 6 10 4 12 -8 7 -10 -3 -17
-2 -17 2 0 5 -7 12 -16 15 -10 4 -13 2 -9 -7 4 -6 -1 -3 -9 7 -9 11 -16 16
-16 11 0 -4 -10 0 -22 11 -21 19 -21 19 -15 -1 6 -17 4 -16 -12 4 -13 17 -25
22 -40 18 -11 -3 -21 -1 -21 4 0 4 -10 13 -21 20 -15 7 -19 8 -15 0 5 -7 1 -9
-8 -5 -9 3 -16 11 -16 18 0 6 -5 4 -10 -4 -9 -13 -10 -13 -10 0 0 11 -9 15
-27 14 -15 0 -34 6 -42 13 -7 8 -20 12 -27 9 -8 -3 -14 -1 -14 5 0 6 -5 7 -11
4 -6 -4 -17 1 -25 11 -9 11 -13 13 -9 7 3 -7 2 -13 -2 -13 -5 0 -15 6 -22 13
-11 10 -12 9 -6 -3 7 -12 6 -13 -7 -3 -8 7 -27 14 -42 15 -14 1 -26 5 -26 9 0
4 -9 9 -21 12 -16 4 -19 2 -14 -11 5 -14 4 -14 -12 0 -10 8 -24 13 -30 11 -7
-3 -13 0 -13 5 0 6 -11 9 -25 7 -14 -1 -25 3 -25 9 0 6 -5 4 -10 -4 -5 -8 -10
-10 -10 -4 0 6 -13 10 -30 9 -16 -1 -30 3 -30 8 0 5 -6 5 -13 -2 -8 -6 -17 -8
-21 -4 -4 4 -30 8 -60 8 -29 1 -57 5 -63 8 -6 4 -14 1 -16 -5 -4 -10 -6 -10
-6 -1 -1 7 -8 10 -18 6 -12 -5 -14 -3 -8 8 7 11 6 12 -6 3 -17 -13 -59 -16
-74 -5 -5 5 -16 6 -23 4z"/>
<path d="M2420 2862 c0 -7 -4 -10 -10 -7 -5 3 -10 0 -10 -7 0 -9 -3 -9 -10 2
-9 13 -11 13 -20 0 -9 -13 -10 -13 -10 0 0 10 -3 11 -8 4 -4 -6 -15 -10 -24
-8 -10 1 -18 -2 -18 -8 0 -5 -6 -8 -12 -6 -7 3 -19 -1 -26 -9 -8 -7 -18 -10
-24 -7 -7 5 -8 2 -3 -6 11 -17 -16 -32 -33 -18 -10 9 -12 8 -10 -3 2 -8 -3
-13 -10 -11 -8 1 -11 -2 -7 -8 3 -5 1 -10 -5 -10 -6 0 -8 -4 -5 -10 3 -5 -1
-10 -10 -10 -12 0 -15 -5 -11 -16 5 -14 4 -15 -9 -4 -13 10 -15 9 -15 -9 0
-11 -4 -21 -9 -21 -8 0 -19 -25 -27 -65 -3 -16 -2 -17 6 -5 6 9 10 10 10 3 0
-6 -5 -15 -10 -18 -8 -5 -8 -11 -1 -19 6 -7 7 -16 3 -20 -13 -14 -8 -91 8
-104 8 -8 9 -11 3 -7 -9 4 -11 1 -7 -9 3 -9 10 -16 15 -16 5 0 9 -9 9 -20 0
-11 5 -20 11 -20 5 0 8 -4 4 -9 -3 -5 2 -16 10 -24 18 -18 20 -31 3 -21 -7 4
-8 3 -4 -4 4 -6 13 -9 21 -5 8 3 15 0 15 -6 0 -6 7 -11 16 -11 9 0 12 -5 8
-12 -5 -7 -3 -8 5 -4 7 5 21 0 31 -9 11 -10 26 -15 35 -12 8 4 14 3 14 -1 -3
-19 2 -23 16 -12 12 10 15 10 15 0 0 -8 3 -10 7 -7 3 4 17 0 31 -9 13 -9 21
-11 18 -5 -4 6 -2 11 4 11 6 0 8 6 4 13 -4 6 3 2 15 -10 23 -25 41 -30 41 -12
0 5 -5 7 -12 3 -7 -4 -8 -3 -4 5 6 9 11 9 22 0 10 -8 18 -8 27 0 10 8 17 7 25
-1 9 -9 12 -9 12 1 0 11 3 11 15 1 9 -7 15 -8 15 -2 0 5 7 13 16 16 8 3 12 2
9 -4 -3 -6 -2 -10 4 -10 5 0 13 5 17 11 4 8 9 7 15 -2 5 -9 9 -10 9 -2 0 6 9
9 20 6 11 -3 20 0 20 6 0 6 7 8 17 4 11 -4 14 -3 9 5 -5 8 1 12 18 12 14 0 26
5 26 11 0 5 4 8 8 5 5 -3 16 6 26 19 10 14 22 22 26 20 4 -3 11 2 14 11 3 8
11 12 17 8 8 -4 9 -3 5 4 -4 7 -2 12 3 12 6 0 10 6 9 13 -2 6 3 11 10 9 10 -2
10 2 1 19 -8 16 -8 20 1 14 7 -4 13 1 17 14 3 12 10 18 17 14 7 -4 7 -1 -1 8
-10 12 -10 18 -1 27 9 9 9 12 -1 12 -11 0 -11 3 0 17 10 11 10 14 2 9 -7 -4
-13 -3 -13 1 0 5 6 15 13 22 10 11 9 12 -2 6 -11 -6 -13 -3 -9 13 4 12 2 24
-2 27 -4 3 -6 14 -3 25 3 13 0 20 -8 20 -11 0 -11 2 1 10 13 8 12 10 -3 10
-10 0 -15 5 -12 11 4 6 -2 17 -14 25 -12 8 -21 22 -21 30 0 8 -5 14 -11 14 -5
0 -8 4 -5 8 2 4 -5 14 -17 22 -19 11 -21 11 -12 -1 6 -8 3 -7 -6 3 -9 9 -19
14 -23 11 -3 -4 -6 -1 -6 6 0 7 -4 10 -9 7 -5 -3 -12 1 -15 10 -4 9 -13 14
-21 10 -8 -3 -15 -1 -15 5 0 6 -4 7 -10 4 -5 -3 -10 -1 -10 5 0 6 -4 9 -9 5
-5 -3 -13 -1 -16 5 -5 8 -11 7 -21 -1 -11 -9 -14 -9 -14 1 0 6 -6 10 -12 7 -7
-2 -21 0 -30 4 -10 6 -19 5 -24 -2 -4 -8 -9 -7 -15 2 -7 11 -9 11 -9 -1 0 -13
-1 -13 -10 0 -9 13 -10 13 -10 0 0 -13 -1 -13 -10 0 -9 13 -10 13 -10 0 0 -13
-1 -13 -10 0 -9 13 -10 13 -10 0 0 -13 -1 -13 -10 0 -7 11 -10 11 -10 2z"/>
</g>
</svg>
