<?xml version="1.0" standalone="no"?>
<!DOCTYPE svg PUBLIC "-//W3C//DTD SVG 20010904//EN"
 "http://www.w3.org/TR/2001/REC-SVG-20010904/DTD/svg10.dtd">
<svg version="1.0" xmlns="http://www.w3.org/2000/svg"
 width="500.000000pt" height="500.000000pt" viewBox="0 0 500.000000 500.000000"
 preserveAspectRatio="xMidYMid meet">
<metadata>
Created by potrace 1.14, written by Peter Selinger 2001-2017
</metadata>
<g transform="translate(0.000000,500.000000) scale(0.100000,-0.100000)"
fill="#000000" stroke="none">
<path d="M2385 3831 c6 -11 2 -13 -23 -8 -17 4 -34 2 -37 -2 -2 -5 -20 -5 -39
-1 -19 4 -38 5 -41 2 -7 -7 -26 -10 -77 -14 -21 -2 -38 -6 -38 -9 0 -3 -17 -6
-37 -7 -20 -1 -39 -5 -42 -9 -6 -8 -26 -13 -71 -17 -14 -1 -34 -7 -45 -13 -11
-5 -30 -9 -42 -8 -12 1 -21 -1 -19 -4 2 -3 -11 -13 -30 -22 -18 -9 -31 -12
-28 -8 3 5 0 9 -5 9 -6 0 -11 -4 -11 -9 0 -5 -7 -12 -16 -15 -8 -3 -12 -2 -9
4 3 5 -9 2 -27 -8 -18 -9 -34 -20 -36 -24 -2 -5 -8 -8 -13 -8 -6 0 -7 5 -3 12
4 6 -5 3 -19 -8 -15 -10 -27 -22 -27 -26 0 -4 -7 -4 -17 -1 -10 4 -14 2 -10
-4 6 -10 -40 -38 -55 -35 -5 1 -8 -2 -8 -8 0 -5 -6 -10 -13 -10 -8 0 -22 -9
-32 -20 -10 -11 -23 -20 -29 -20 -11 0 -51 -31 -114 -87 -14 -13 -29 -23 -34
-23 -5 0 -7 -4 -4 -8 3 -5 -6 -15 -19 -22 -13 -7 -22 -16 -20 -20 3 -5 -2 -10
-10 -14 -8 -3 -15 -12 -15 -20 0 -10 -6 -13 -17 -9 -11 4 -14 3 -9 -5 4 -7 3
-12 -3 -12 -5 0 -12 -9 -16 -20 -3 -11 -12 -19 -18 -17 -7 1 -11 -4 -10 -10 2
-7 -2 -13 -7 -13 -6 0 -10 -7 -10 -15 0 -8 -4 -15 -9 -15 -5 0 -20 -17 -32
-37 -13 -21 -27 -40 -31 -41 -5 -2 -6 -8 -2 -13 3 -5 0 -9 -5 -9 -6 0 -11 -7
-11 -15 0 -8 -5 -15 -11 -15 -5 0 -8 -4 -4 -10 3 -5 -2 -18 -12 -28 -18 -18
-25 -35 -26 -59 0 -7 -6 -14 -14 -17 -7 -3 -13 -15 -13 -26 0 -11 -5 -20 -12
-20 -6 0 -8 -3 -5 -7 4 -3 0 -17 -8 -30 -9 -13 -13 -23 -9 -23 4 0 2 -6 -3
-12 -6 -7 -9 -23 -8 -35 1 -13 -3 -19 -8 -16 -6 4 -8 0 -4 -10 3 -10 2 -17 -3
-17 -5 0 -7 -9 -5 -20 2 -11 0 -20 -5 -20 -5 0 -7 -9 -5 -20 2 -11 0 -20 -5
-20 -5 0 -7 -7 -4 -15 4 -8 3 -23 -1 -32 -11 -26 -13 -73 -3 -79 4 -3 4 -14
-2 -24 -13 -25 -13 -33 2 -24 7 4 8 3 4 -5 -11 -17 -15 -61 -6 -66 4 -2 6 -16
5 -30 -2 -14 2 -25 8 -25 7 0 5 -5 -3 -10 -11 -7 -11 -10 -2 -10 7 0 10 -5 7
-10 -4 -6 -1 -17 5 -25 10 -12 10 -15 -1 -15 -8 0 -6 -6 7 -16 10 -8 12 -12 4
-8 -12 7 -13 5 -3 -8 7 -8 10 -18 6 -21 -3 -4 -2 -7 3 -7 5 0 10 -10 11 -22 1
-11 6 -24 10 -27 4 -3 9 -15 11 -26 2 -11 9 -24 16 -30 7 -5 11 -16 9 -22 -3
-7 1 -13 7 -13 6 0 10 -6 8 -12 -3 -7 1 -19 9 -26 7 -7 13 -22 13 -33 0 -11 7
-19 18 -19 14 0 15 -2 2 -10 -11 -7 -11 -10 -2 -10 7 0 10 -4 7 -10 -3 -5 -2
-10 3 -10 10 0 37 -50 33 -63 -1 -5 3 -6 9 -2 5 3 10 2 10 -4 0 -5 13 -24 30
-42 16 -18 27 -36 25 -40 -5 -8 25 -23 39 -20 5 1 4 -5 -4 -13 -10 -13 -10
-16 3 -16 9 0 19 -9 22 -20 3 -11 14 -20 22 -20 9 0 14 -3 10 -6 -7 -8 17 -34
32 -34 5 0 12 -9 16 -19 3 -11 15 -23 26 -26 10 -4 19 -13 19 -21 0 -8 5 -12
10 -9 6 3 13 -1 16 -9 3 -9 12 -16 20 -16 8 0 14 -4 14 -10 0 -5 7 -10 15 -10
8 0 15 -4 15 -10 0 -5 7 -6 17 -3 11 5 14 3 9 -6 -6 -9 1 -8 22 3 16 8 33 12
37 8 5 -4 5 -2 1 5 -3 6 -2 14 4 18 6 4 7 11 4 17 -12 18 -12 113 0 127 8 12
8 13 -2 7 -10 -6 -12 2 -8 35 3 26 0 49 -7 58 -7 8 -7 12 -1 8 7 -4 10 18 10
68 0 40 -4 71 -8 69 -4 -3 -3 7 3 23 7 19 7 29 0 31 -6 2 -8 9 -4 14 10 18 12
68 1 68 -5 0 -6 6 -2 12 9 15 12 33 15 110 2 36 7 55 13 51 6 -3 6 0 -1 7 -8
9 -9 20 -2 38 5 14 8 31 5 39 -3 7 0 13 7 13 8 0 6 4 -3 10 -11 7 -11 10 -2
10 7 0 11 4 8 9 -4 5 -2 21 4 35 7 19 6 26 -3 26 -7 0 -8 3 -2 8 6 4 12 21 14
37 1 17 7 38 12 48 6 9 7 22 4 27 -4 6 0 13 8 16 9 3 13 13 10 25 -3 10 -1 19
5 19 5 0 13 7 16 16 4 10 2 13 -7 9 -6 -4 -4 0 5 8 10 8 15 17 11 20 -3 4 -1
7 6 7 7 0 9 5 6 10 -3 6 -1 10 5 10 6 0 8 5 5 10 -3 6 -1 10 6 10 7 0 10 3 6
6 -3 4 -1 12 6 20 30 34 37 44 30 44 -4 0 0 5 10 11 9 6 15 14 12 20 -4 5 1
12 10 15 9 4 14 13 11 20 -3 8 -2 13 2 13 17 -3 32 2 29 9 -3 9 46 58 55 55 4
-2 10 6 13 17 4 11 11 20 16 20 6 0 7 6 3 13 -5 7 -1 7 12 -3 10 -8 16 -11 12
-6 -8 10 15 36 32 36 6 0 8 5 5 10 -3 6 1 10 10 10 8 0 18 7 21 15 4 8 10 12
15 10 4 -3 17 3 29 15 11 11 20 17 20 13 0 -3 12 4 27 18 14 13 23 18 19 11
-7 -11 -4 -11 15 0 13 7 27 17 31 23 4 5 10 6 14 2 4 -4 13 1 21 11 9 10 11
11 7 2 -7 -13 -5 -13 9 -2 9 8 21 11 27 7 5 -3 10 -1 10 5 0 6 4 9 9 5 5 -3
13 0 16 6 4 5 13 8 21 5 8 -3 14 -1 14 4 0 5 9 7 20 5 11 -2 22 0 25 5 3 5 13
6 21 3 9 -3 20 0 25 8 7 12 9 12 9 0 0 -10 3 -11 14 -2 11 9 15 9 19 -1 3 -7
6 -8 6 -3 1 9 61 11 184 4 26 -2 47 -8 47 -13 0 -6 4 -5 9 3 6 9 11 10 15 2 4
-6 12 -9 17 -5 5 3 22 -1 38 -9 22 -11 32 -12 42 -3 9 8 10 8 5 -1 -6 -12 0
-15 20 -12 4 0 10 -3 13 -8 3 -4 17 -14 30 -21 19 -11 22 -11 16 0 -6 10 -5
11 6 1 7 -7 21 -13 32 -13 10 0 15 -4 12 -10 -3 -5 0 -10 7 -10 19 0 68 -23
68 -32 0 -5 9 -8 20 -8 11 0 20 -4 20 -10 0 -5 7 -10 15 -10 8 0 15 -4 15 -10
0 -5 6 -10 14 -10 8 0 18 -5 22 -12 5 -7 3 -8 -6 -3 -8 5 -11 4 -6 -3 4 -6 13
-9 21 -5 10 3 15 -1 15 -12 0 -9 3 -14 8 -12 9 6 33 -19 25 -27 -4 -3 -2 -6 3
-6 33 0 143 -136 126 -156 -4 -4 -2 -5 3 -1 6 3 17 -3 24 -15 7 -11 8 -17 2
-14 -5 4 -3 -7 5 -24 9 -16 19 -30 23 -30 5 0 7 -14 5 -31 -3 -21 0 -28 8 -23
8 5 9 2 5 -9 -4 -10 -1 -17 6 -17 9 0 9 -2 -1 -9 -10 -6 -10 -10 3 -21 11 -9
12 -16 5 -26 -8 -9 -6 -15 7 -23 10 -6 13 -11 6 -11 -7 0 -10 -7 -6 -17 5 -12
3 -14 -7 -8 -10 6 -11 4 -4 -6 13 -21 14 -39 1 -39 -8 0 -7 -3 1 -9 8 -4 14
-12 14 -16 0 -4 -6 -12 -14 -16 -11 -7 -11 -9 1 -9 11 0 11 -3 0 -17 -8 -9 -9
-14 -2 -10 6 4 2 -11 -8 -33 -11 -22 -17 -45 -14 -50 3 -6 1 -10 -4 -10 -6 0
-11 -7 -11 -15 0 -8 -5 -15 -12 -15 -6 0 -8 -3 -5 -7 4 -3 -3 -17 -15 -30 -12
-13 -18 -23 -14 -23 4 0 -5 -12 -19 -26 -14 -14 -22 -30 -18 -37 4 -7 0 -6
-10 2 -15 12 -17 11 -17 -3 0 -9 -5 -16 -11 -16 -5 0 -8 -4 -5 -8 3 -5 -1 -9
-8 -9 -16 0 -76 -44 -76 -56 0 -5 -7 -6 -16 -3 -8 3 -13 2 -10 -3 3 -4 -9 -18
-26 -31 -17 -12 -27 -16 -23 -9 8 12 6 12 -8 0 -9 -7 -14 -18 -10 -25 4 -6 -1
-5 -11 3 -14 12 -17 12 -14 1 2 -8 -2 -14 -9 -15 -6 0 -15 -3 -19 -7 -4 -5
-16 -8 -26 -8 -10 0 -18 -4 -18 -8 0 -4 -9 -9 -20 -10 -43 -4 -50 -6 -50 -14
0 -4 -5 -8 -11 -8 -5 0 -7 6 -4 13 4 6 1 5 -7 -3 -13 -15 -25 -17 -145 -22
-36 -1 -63 -7 -63 -13 0 -5 -4 -4 -9 3 -4 8 -19 11 -34 8 -15 -3 -27 0 -27 5
0 5 -5 9 -11 9 -6 0 -7 -6 -2 -12 4 -7 -4 -6 -19 4 -20 13 -28 14 -38 5 -10
-9 -11 -9 -6 1 4 7 1 12 -8 12 -8 0 -22 7 -31 16 -9 9 -19 14 -22 10 -3 -3
-17 6 -30 20 -13 15 -28 22 -36 18 -6 -4 -9 -4 -5 1 10 11 -18 36 -42 38 -11
1 -20 6 -20 12 0 5 -5 2 -11 -8 -6 -9 -14 -15 -18 -13 -4 3 -7 -11 -6 -30 1
-19 -3 -34 -9 -34 -7 0 -7 -3 -1 -8 16 -11 19 -46 3 -36 -10 6 -10 4 -2 -7 16
-20 18 -99 3 -99 -7 0 -10 -3 -6 -6 9 -10 -33 -45 -61 -50 -15 -3 -29 -9 -30
-15 -2 -5 -8 -7 -13 -3 -5 3 -9 -1 -9 -8 0 -9 -3 -9 -10 2 -7 11 -10 11 -10 2
0 -7 -4 -10 -10 -7 -5 3 -10 0 -10 -7 0 -11 -2 -11 -9 0 -6 10 -10 10 -21 -3
-7 -9 -19 -14 -26 -11 -8 3 -13 2 -13 -2 3 -18 -2 -32 -12 -32 -15 0 -39 -26
-32 -34 4 -3 1 -6 -6 -6 -8 0 -11 -7 -7 -15 3 -8 0 -14 -7 -12 -7 1 -11 -4 -9
-10 1 -7 -3 -13 -9 -13 -6 0 -8 -7 -5 -16 3 -8 2 -12 -4 -9 -9 6 -14 -10 -13
-42 1 -7 -3 -10 -8 -7 -9 5 -11 -5 -13 -88 -2 -34 2 -48 11 -48 7 0 13 -7 13
-15 0 -9 12 -18 30 -21 17 -4 30 -11 30 -16 0 -6 9 -8 21 -5 17 5 18 3 7 -10
-12 -15 -11 -15 10 -4 17 9 22 9 22 0 0 -7 3 -9 7 -6 3 4 12 2 20 -4 10 -9 13
-8 13 1 0 10 3 10 15 0 8 -6 19 -9 24 -6 5 4 12 2 16 -4 9 -15 38 -13 29 3 -4
6 1 5 12 -4 10 -9 25 -14 33 -11 9 3 11 0 6 -8 -6 -9 -4 -11 6 -5 17 11 50 12
66 2 6 -4 15 -3 18 3 4 7 11 8 18 2 17 -14 290 -11 299 2 6 8 8 8 8 -1 0 -12
17 -12 38 0 7 5 12 3 12 -5 0 -10 2 -10 9 0 4 8 11 13 15 13 3 -1 29 -1 57 -1
34 0 48 4 43 11 -5 8 -1 8 14 0 14 -7 23 -8 27 -1 3 5 17 10 31 10 13 0 24 6
24 13 0 9 3 8 9 -2 6 -10 10 -10 16 -1 6 9 10 9 16 -1 7 -11 9 -10 9 4 0 14
26 24 43 16 1 -1 19 6 39 14 20 8 39 13 42 9 3 -3 6 0 6 7 0 7 5 9 10 6 6 -4
17 -1 25 5 8 6 19 9 24 6 5 -4 13 -1 16 5 4 5 14 8 22 5 8 -4 11 -2 7 5 -4 8
1 9 16 4 17 -5 21 -4 15 6 -6 9 -2 11 13 7 12 -4 25 -2 28 3 3 5 14 9 25 9 10
0 19 5 19 10 0 6 9 10 21 10 13 0 18 4 13 12 -4 7 -3 8 5 4 6 -4 24 2 40 13
15 11 31 18 34 15 3 -3 8 4 12 15 4 12 12 18 21 14 7 -3 14 1 14 8 0 7 3 10 6
6 3 -3 16 3 27 14 12 11 27 17 35 14 7 -2 10 0 7 5 -3 6 -2 10 3 10 5 0 19 9
32 20 12 11 27 17 32 14 4 -3 7 0 6 8 -2 7 4 13 12 13 8 0 18 8 22 18 4 10 12
16 16 13 4 -3 16 6 26 19 10 14 23 22 28 19 4 -3 7 0 6 8 -2 7 2 12 8 11 7 -1
15 9 18 24 4 14 9 23 12 20 4 -3 19 8 36 25 16 16 27 32 24 35 -2 3 7 16 22
30 15 14 27 29 27 34 0 5 5 13 10 17 6 4 18 23 27 42 10 19 19 34 22 33 15 -7
19 -2 6 7 -11 7 -11 10 -2 10 7 0 10 5 7 10 -3 6 1 10 9 10 10 0 16 9 16 24 0
13 5 26 10 28 6 2 12 13 13 26 0 12 5 22 10 22 5 0 7 7 3 15 -3 8 -1 15 3 15
5 0 12 7 15 16 3 8 2 12 -3 9 -5 -3 -3 8 5 25 9 16 13 34 10 39 -4 5 -2 11 3
13 5 1 11 17 13 33 1 17 7 33 13 37 6 5 5 8 -4 8 -9 0 -10 4 -4 13 5 6 9 26 8
42 0 17 3 36 8 43 6 8 5 12 -4 12 -9 0 -10 3 -3 8 13 9 13 124 -1 134 -6 5 -5
8 2 8 9 0 10 7 3 24 -5 13 -6 27 -3 30 4 3 0 6 -7 6 -10 0 -11 3 -3 11 8 8 7
20 -3 44 -7 18 -10 35 -7 39 4 3 2 6 -3 6 -5 0 -10 12 -11 26 0 15 -7 30 -13
34 -7 5 -9 13 -5 21 6 8 4 11 -7 7 -8 -4 -15 0 -15 8 0 7 4 11 9 8 15 -10 8 9
-9 23 -11 8 -12 11 -3 7 12 -7 13 -5 3 8 -7 8 -11 17 -8 20 3 3 -4 13 -15 23
-11 10 -20 24 -20 32 0 7 -4 13 -10 13 -5 0 -10 9 -10 20 0 11 -7 23 -15 26
-8 4 -12 10 -9 15 3 5 0 9 -5 9 -6 0 -11 9 -11 20 0 12 -7 20 -17 21 -12 0
-14 2 -5 6 10 4 8 9 -8 20 -11 8 -19 20 -17 26 2 6 -18 34 -45 62 -26 27 -48
54 -48 58 0 5 -4 5 -10 2 -6 -3 -7 1 -4 9 3 9 1 16 -6 16 -15 0 -41 26 -33 34
4 3 1 6 -6 6 -16 0 -41 25 -41 40 0 6 -4 8 -10 5 -5 -3 -17 3 -27 15 -10 11
-21 20 -26 20 -5 0 -21 13 -37 30 -15 16 -30 26 -34 23 -3 -3 -6 -1 -6 6 0 7
-4 9 -10 6 -5 -3 -10 -2 -10 3 0 8 -50 36 -59 32 -2 -1 -8 5 -13 14 -5 9 -13
14 -19 11 -5 -4 -9 2 -9 12 0 15 -2 16 -10 3 -7 -10 -10 -11 -10 -2 0 7 -17
20 -37 30 -21 9 -40 19 -43 22 -4 5 -57 31 -70 35 -5 2 -13 4 -70 24 -19 7
-39 13 -45 14 -5 1 -13 5 -16 9 -3 5 -17 9 -32 10 -15 1 -27 6 -27 11 0 4 -4
5 -10 2 -5 -3 -10 -1 -10 4 0 6 -5 11 -11 11 -5 0 -7 -5 -4 -10 4 -6 -5 -5
-19 2 -14 6 -26 14 -26 18 0 4 -13 6 -30 5 -16 -1 -30 1 -30 5 0 4 -14 7 -31
8 -17 0 -37 6 -45 13 -11 9 -14 8 -14 -2 0 -10 -2 -11 -8 -2 -4 7 -16 12 -27
11 -25 0 -114 11 -137 18 -10 3 -18 0 -18 -7 0 -8 -4 -8 -12 -2 -7 6 -49 10
-93 9 -44 -1 -86 3 -94 9 -12 8 -13 7 -6 -4z"/>
<path d="M2490 2855 c0 -6 -23 -10 -55 -9 -31 1 -58 -3 -61 -7 -3 -5 -14 -4
-25 1 -13 7 -19 7 -19 0 0 -5 -3 -9 -7 -9 -19 3 -34 -2 -29 -9 2 -4 -5 -9 -17
-9 -11 -1 -25 -9 -29 -18 -5 -8 -18 -15 -29 -15 -11 0 -17 -4 -14 -10 3 -5 1
-10 -5 -10 -6 0 -8 -5 -4 -12 4 -6 3 -8 -3 -5 -13 8 -46 -40 -38 -53 3 -6 2
-10 -4 -10 -5 0 -8 -8 -6 -17 1 -10 -2 -24 -8 -30 -6 -9 -6 -13 1 -13 10 0 8
-37 -2 -47 -2 -2 2 -16 9 -30 8 -15 11 -31 8 -36 -3 -6 -1 -7 5 -3 8 5 12 0
12 -13 0 -12 5 -21 12 -21 6 0 9 -3 5 -6 -8 -8 25 -44 35 -38 4 3 8 0 8 -5 0
-6 7 -11 16 -11 8 0 13 -4 10 -8 -2 -4 5 -9 17 -9 12 -1 23 -7 25 -13 2 -5 7
-8 10 -6 4 2 26 1 49 -3 27 -5 46 -4 54 3 9 8 10 8 5 -1 -7 -14 93 -7 108 8 6
5 15 4 23 -2 9 -8 13 -8 13 -1 0 6 9 9 20 7 11 -2 20 1 20 7 0 6 3 8 7 5 3 -4
12 -2 20 4 7 6 13 9 13 5 0 -3 9 2 19 12 39 35 49 41 57 34 5 -4 2 2 -6 12 -8
11 -10 17 -5 14 6 -3 16 0 23 8 7 8 9 14 5 14 -4 0 0 5 9 11 10 5 15 16 12 24
-4 8 -2 15 3 15 5 0 9 9 9 20 0 11 -5 20 -11 20 -5 0 -3 5 5 10 8 5 10 10 5
10 -6 0 -12 17 -13 37 -2 21 -6 40 -10 43 -4 3 -7 11 -8 18 -2 27 -5 31 -25
37 -11 4 -18 9 -15 12 7 7 -20 33 -34 33 -6 0 -9 4 -6 8 2 4 -5 9 -16 9 -12 1
-25 7 -29 14 -4 7 -14 9 -23 6 -9 -4 -16 -2 -16 4 0 6 -4 7 -10 4 -5 -3 -10
-2 -10 3 0 5 -10 9 -22 8 -13 -1 -26 3 -30 9 -5 7 -8 7 -8 0z"/>
</g>
</svg>
