<?xml version="1.0" encoding="UTF-8"?>
<!DOCTYPE svg PUBLIC "-//W3C//DTD SVG 1.1//EN" "http://www.w3.org/Graphics/SVG/1.1/DTD/svg11.dtd">
<svg xmlns="http://www.w3.org/2000/svg" version="1.1" width="116px" height="30px" style="shape-rendering:geometricPrecision; text-rendering:geometricPrecision; image-rendering:optimizeQuality; fill-rule:evenodd; clip-rule:evenodd" xmlns:xlink="http://www.w3.org/1999/xlink">
<g><path style="opacity:0.944" fill="#e5e5e5" d="M 24.5,2.5 C 29.0442,4.02609 32.2108,7.02609 34,11.5C 34.6708,12.2524 35.5041,12.5858 36.5,12.5C 35.4324,13.4345 34.099,13.7678 32.5,13.5C 31.7534,16.7525 31.7534,20.0859 32.5,23.5C 33.5,23.5 34.5,23.5 35.5,23.5C 33.9504,24.7199 32.2837,24.7199 30.5,23.5C 30.6621,21.4727 30.4955,19.4727 30,17.5C 29.2917,18.3805 28.4584,19.0472 27.5,19.5C 29.5054,15.8561 29.6721,12.1895 28,8.5C 27.3292,7.74756 26.4959,7.41423 25.5,7.5C 21.2744,4.89152 16.941,4.89152 12.5,7.5C 12.5743,5.5891 13.5743,4.42244 15.5,4C 18.6946,3.81948 21.6946,3.31948 24.5,2.5 Z"/></g>
<g><path style="opacity:1" fill="#ececec" d="M 17.5,14.5 C 17.1667,14.5 16.8333,14.5 16.5,14.5C 14.2554,15.8278 13.9221,17.6612 15.5,20C 13.2102,20.7904 12.8769,22.1237 14.5,24C 14.1639,25.0299 13.4972,25.5299 12.5,25.5C 12.7271,23.0672 11.7271,21.4006 9.5,20.5C 9.5,18.1667 9.5,15.8333 9.5,13.5C 10.928,10.909 13.0946,9.24236 16,8.5C 16.8333,8.83333 17.6667,9.16667 18.5,9.5C 17.3595,10.4255 17.3595,11.2588 18.5,12C 16.3808,12.3418 16.0474,13.1751 17.5,14.5 Z"/></g>
<g><path style="opacity:0.999" fill="#e6e6e6" d="M 57.5,12.5 C 57.2504,13.9221 56.417,14.9221 55,15.5C 54.5045,17.4727 54.3379,19.4727 54.5,21.5C 53.71,20.3915 53.21,19.0581 53,17.5C 51.103,19.0163 48.9363,19.683 46.5,19.5C 46.5,21.1667 46.5,22.8333 46.5,24.5C 42.8184,25.2747 40.3184,23.9414 39,20.5C 38.6174,21.056 38.1174,21.3893 37.5,21.5C 37.5,18.8333 37.5,16.1667 37.5,13.5C 38.5236,15.5116 40.0236,17.1783 42,18.5C 42.1802,15.0445 42.8468,11.7111 44,8.5C 49.6429,6.0512 53.3096,7.71786 55,13.5C 55.6708,12.7476 56.5041,12.4142 57.5,12.5 Z M 47.5,11.5 C 49.332,12.1405 49.6653,13.1405 48.5,14.5C 47.6143,13.675 47.281,12.675 47.5,11.5 Z"/></g>
<g><path style="opacity:0.955" fill="#dedede" d="M 24.5,2.5 C 21.6946,3.31948 18.6946,3.81948 15.5,4C 13.5743,4.42244 12.5743,5.5891 12.5,7.5C 10.615,9.05322 9.61501,11.0532 9.5,13.5C 9.5,15.8333 9.5,18.1667 9.5,20.5C 11.7271,21.4006 12.7271,23.0672 12.5,25.5C 11.2876,24.7701 10.2876,23.7701 9.5,22.5C 6.71231,24.824 4.04565,24.4906 1.5,21.5C 0.182345,19.0878 0.349012,16.7544 2,14.5C 5.40003,11.8865 8.23336,8.71985 10.5,5C 14.8844,2.79219 19.551,1.95886 24.5,2.5 Z"/></g>
<g><path style="opacity:0.968" fill="#dbdbdb" d="M 25.5,7.5 C 26.4959,7.41423 27.3292,7.74756 28,8.5C 29.6721,12.1895 29.5054,15.8561 27.5,19.5C 26.9473,21.5518 25.9473,21.8852 24.5,20.5C 22.8515,19.8151 20.6848,18.8151 18,17.5C 17.0087,19.4473 16.6753,21.4473 17,23.5C 17.6708,22.7476 18.5041,22.4142 19.5,22.5C 19.6427,24.2624 19.3094,25.9291 18.5,27.5C 21.089,28.205 23.7557,28.205 26.5,27.5C 25.8333,28.1667 25.1667,28.8333 24.5,29.5C 21.8333,29.5 19.1667,29.5 16.5,29.5C 14.8608,28.5275 13.5274,27.1942 12.5,25.5C 13.4972,25.5299 14.1639,25.0299 14.5,24C 12.8769,22.1237 13.2102,20.7904 15.5,20C 13.9221,17.6612 14.2554,15.8278 16.5,14.5C 16.8333,17.1667 17.1667,17.1667 17.5,14.5C 16.0474,13.1751 16.3808,12.3418 18.5,12C 17.3595,11.2588 17.3595,10.4255 18.5,9.5C 17.6667,9.16667 16.8333,8.83333 16,8.5C 13.0946,9.24236 10.928,10.909 9.5,13.5C 9.61501,11.0532 10.615,9.05322 12.5,7.5C 16.941,4.89152 21.2744,4.89152 25.5,7.5 Z M 25.5,7.5 C 25.8333,8.16667 26.1667,8.83333 26.5,9.5C 24.5759,9.28927 24.2426,8.6226 25.5,7.5 Z"/></g>
<g><path style="opacity:1" fill="#dcdcdc" d="M 105.5,14.5 C 105.368,17.5701 105.701,20.5701 106.5,23.5C 105.542,23.0472 104.708,22.3805 104,21.5C 103.255,22.9904 102.088,23.9904 100.5,24.5C 98.5,23.1667 96.5,23.1667 94.5,24.5C 92.9623,24.5466 91.9623,23.8799 91.5,22.5C 92.8333,21.8333 92.8333,21.1667 91.5,20.5C 91.5,18.5 91.5,16.5 91.5,14.5C 91.3379,12.4727 91.5045,10.4727 92,8.5C 92.7247,7.94149 93.5581,7.60816 94.5,7.5C 97.1022,8.05453 99.7689,8.22119 102.5,8C 103.747,9.45787 103.747,10.9579 102.5,12.5C 102.892,14.8714 103.892,15.5381 105.5,14.5 Z"/></g>
<g><path style="opacity:0.993" fill="#e9e9e9" d="M 65.5,12.5 C 65.1872,16.0419 65.5206,19.3752 66.5,22.5C 65.3064,23.7773 63.6397,24.4439 61.5,24.5C 59.8333,24.3333 58.1667,24.1667 56.5,24C 55.244,23.5831 54.5774,22.7498 54.5,21.5C 54.3379,19.4727 54.5045,17.4727 55,15.5C 56.417,14.9221 57.2504,13.9221 57.5,12.5C 60.024,12.043 62.6907,12.043 65.5,12.5 Z M 58.5,16.5 C 61.5688,16.963 62.0688,18.2963 60,20.5C 58.8118,19.4366 58.3118,18.1033 58.5,16.5 Z"/></g>
<g><path style="opacity:1" fill="#e3e3e3" d="M 91.5,14.5 C 91.5,16.5 91.5,18.5 91.5,20.5C 90.9265,18.2121 89.9265,16.0454 88.5,14C 87.6683,13.3123 87.0016,13.479 86.5,14.5C 87.7797,16.7016 87.7797,18.8683 86.5,21C 85.2161,21.6838 84.0495,21.5171 83,20.5C 82.235,18.9343 82.4017,17.6009 83.5,16.5C 82.9045,13.8875 82.0712,13.8875 81,16.5C 80.4436,18.8848 80.6103,21.2181 81.5,23.5C 79.8639,22.2511 78.6972,20.5844 78,18.5C 76.4725,21.4167 75.1392,24.4167 74,27.5C 72.6439,28.3802 71.1439,28.7135 69.5,28.5C 69.2606,26.5328 69.5939,24.6995 70.5,23C 69.2062,20.913 68.0395,18.7463 67,16.5C 66.5045,18.4727 66.3379,20.4727 66.5,22.5C 65.5206,19.3752 65.1872,16.0419 65.5,12.5C 69.1463,11.246 71.6463,12.5794 73,16.5C 74.2498,12.8673 76.5831,11.8673 80,13.5C 84.0631,10.9052 87.8964,11.2385 91.5,14.5 Z M 83.5,16.5 C 84.5,16.5 85.5,16.5 86.5,16.5C 85.5,21.8333 84.5,21.8333 83.5,16.5 Z"/></g>
<g><path style="opacity:1" fill="#ececec" d="M 36.5,12.5 C 37.1667,12.5 37.5,12.8333 37.5,13.5C 37.5,16.1667 37.5,18.8333 37.5,21.5C 37.1667,22.5 36.5,23.1667 35.5,23.5C 34.5,23.5 33.5,23.5 32.5,23.5C 31.7534,20.0859 31.7534,16.7525 32.5,13.5C 34.099,13.7678 35.4324,13.4345 36.5,12.5 Z"/></g>
<g><path style="opacity:1" fill="#e6e6e6" d="M 115.5,14.5 C 115.5,17.1667 115.5,19.8333 115.5,22.5C 112.627,24.6268 109.627,24.9601 106.5,23.5C 105.701,20.5701 105.368,17.5701 105.5,14.5C 108.661,10.6294 111.994,10.6294 115.5,14.5 Z"/></g>
<g><path style="opacity:0.995" fill="#ececec" d="M 91.5,20.5 C 92.8333,21.1667 92.8333,21.8333 91.5,22.5C 91.5654,22.0618 91.3988,21.7284 91,21.5C 88.2393,24.5328 85.0726,25.1995 81.5,23.5C 80.6103,21.2181 80.4436,18.8848 81,16.5C 82.0712,13.8875 82.9045,13.8875 83.5,16.5C 82.4017,17.6009 82.235,18.9343 83,20.5C 84.0495,21.5171 85.2161,21.6838 86.5,21C 87.7797,18.8683 87.7797,16.7016 86.5,14.5C 87.0016,13.479 87.6683,13.3123 88.5,14C 89.9265,16.0454 90.9265,18.2121 91.5,20.5 Z M 83.5,16.5 C 84.5,21.8333 85.5,21.8333 86.5,16.5C 85.5,16.5 84.5,16.5 83.5,16.5 Z"/></g>
<g><path style="opacity:1" fill="#ececec" d="M 30.5,23.5 C 29.5,25.1667 28.1667,26.5 26.5,27.5C 23.7557,28.205 21.089,28.205 18.5,27.5C 19.3094,25.9291 19.6427,24.2624 19.5,22.5C 21.5138,22.6085 23.1805,21.9418 24.5,20.5C 25.9473,21.8852 26.9473,21.5518 27.5,19.5C 28.4584,19.0472 29.2917,18.3805 30,17.5C 30.4955,19.4727 30.6621,21.4727 30.5,23.5 Z"/></g>
</svg>
