<svg width="21" height="15" viewBox="0 0 21 15" fill="none" xmlns="http://www.w3.org/2000/svg">
<path d="M20.2593 2.80262C20.1454 2.38002 19.9228 1.99462 19.6137 1.68478C19.3046 1.37495 18.9197 1.15148 18.4973 1.03662C16.9313 0.606617 10.6663 0.599617 10.6663 0.599617C10.6663 0.599617 4.40235 0.592617 2.83535 1.00362C2.41327 1.12376 2.02917 1.35039 1.71991 1.66175C1.41066 1.97311 1.18663 2.35874 1.06935 2.78162C0.656345 4.34762 0.652345 7.59562 0.652345 7.59562C0.652345 7.59562 0.648345 10.8596 1.05835 12.4096C1.28835 13.2666 1.96335 13.9436 2.82135 14.1746C4.40335 14.6046 10.6513 14.6116 10.6513 14.6116C10.6513 14.6116 16.9163 14.6186 18.4823 14.2086C18.9048 14.094 19.2901 13.871 19.6 13.5618C19.9099 13.2526 20.1337 12.8679 20.2493 12.4456C20.6633 10.8806 20.6663 7.63362 20.6663 7.63362C20.6663 7.63362 20.6863 4.36862 20.2593 2.80262ZM8.66235 10.6046L8.66735 4.60462L13.8743 7.60962L8.66235 10.6046Z" fill="white"/>
</svg>
