<svg width="32" height="32" viewBox="0 0 32 32" fill="none" xmlns="http://www.w3.org/2000/svg">
<path d="M16 18.666C18.9413 18.666 21.3333 16.274 21.3333 13.3327C21.3333 10.3913 18.9413 7.99935 16 7.99935C13.0587 7.99935 10.6667 10.3913 10.6667 13.3327C10.6667 16.274 13.0587 18.666 16 18.666ZM16 10.666C17.4707 10.666 18.6667 11.862 18.6667 13.3327C18.6667 14.8033 17.4707 15.9993 16 15.9993C14.5293 15.9993 13.3333 14.8033 13.3333 13.3327C13.3333 11.862 14.5293 10.666 16 10.666ZM15.2267 29.0847C15.4524 29.2458 15.7227 29.3325 16 29.3325C16.2773 29.3325 16.5477 29.2458 16.7734 29.0847C17.1787 28.798 26.7054 21.9193 26.6667 13.3327C26.6667 7.45135 21.8814 2.66602 16 2.66602C10.1187 2.66602 5.33337 7.45135 5.33337 13.326C5.2947 21.9193 14.8214 28.798 15.2267 29.0847ZM16 5.33268C20.412 5.33268 24 8.92068 24 13.3393C24.028 19.2567 18.1494 24.57 16 26.3127C13.852 24.5687 7.97204 19.254 8.00004 13.3327C8.00004 8.92068 11.588 5.33268 16 5.33268Z" fill="#000"/>
<path d="M16 18.666C18.9413 18.666 21.3333 16.274 21.3333 13.3327C21.3333 10.3913 18.9413 7.99935 16 7.99935C13.0587 7.99935 10.6667 10.3913 10.6667 13.3327C10.6667 16.274 13.0587 18.666 16 18.666ZM16 10.666C17.4707 10.666 18.6667 11.862 18.6667 13.3327C18.6667 14.8033 17.4707 15.9993 16 15.9993C14.5293 15.9993 13.3333 14.8033 13.3333 13.3327C13.3333 11.862 14.5293 10.666 16 10.666ZM15.2267 29.0847C15.4524 29.2458 15.7227 29.3325 16 29.3325C16.2773 29.3325 16.5477 29.2458 16.7734 29.0847C17.1787 28.798 26.7054 21.9193 26.6667 13.3327C26.6667 7.45135 21.8814 2.66602 16 2.66602C10.1187 2.66602 5.33337 7.45135 5.33337 13.326C5.2947 21.9193 14.8214 28.798 15.2267 29.0847ZM16 5.33268C20.412 5.33268 24 8.92068 24 13.3393C24.028 19.2567 18.1494 24.57 16 26.3127C13.852 24.5687 7.97204 19.254 8.00004 13.3327C8.00004 8.92068 11.588 5.33268 16 5.33268Z" fill="#000"/>
</svg>
