<svg width="32" height="32" viewBox="0 0 32 32" fill="none" xmlns="http://www.w3.org/2000/svg">
<path d="M26.6667 5.33398H5.33341C3.86275 5.33398 2.66675 6.52998 2.66675 8.00065V24.0006C2.66675 25.4713 3.86275 26.6673 5.33341 26.6673H26.6667C28.1374 26.6673 29.3334 25.4713 29.3334 24.0006V8.00065C29.3334 6.52998 28.1374 5.33398 26.6667 5.33398ZM26.6667 8.00065V8.68198L16.0001 16.9793L5.33341 8.68332V8.00065H26.6667ZM5.33341 24.0006V12.0593L15.1814 19.7193C15.4149 19.9027 15.7032 20.0024 16.0001 20.0024C16.297 20.0024 16.5853 19.9027 16.8187 19.7193L26.6667 12.0593L26.6694 24.0006H5.33341Z" fill="#000"/>
</svg>
