<svg width="19" height="19" viewBox="0 0 19 19" fill="none" xmlns="http://www.w3.org/2000/svg">
<path d="M14.7064 10.2932C14.6136 10.2003 14.5034 10.1265 14.382 10.0762C14.2607 10.0259 14.1307 10 13.9994 10C13.868 10 13.738 10.0259 13.6167 10.0762C13.4953 10.1265 13.3851 10.2003 13.2924 10.2932L11.6984 11.8872C10.9594 11.6672 9.58036 11.1672 8.70636 10.2932C7.83236 9.4192 7.33236 8.0402 7.11236 7.3012L8.70636 5.7072C8.7993 5.61441 8.87304 5.50421 8.92335 5.38289C8.97366 5.26158 8.99956 5.13153 8.99956 5.0002C8.99956 4.86887 8.97366 4.73882 8.92335 4.61751C8.87304 4.49619 8.7993 4.38599 8.70636 4.2932L4.70636 0.293201C4.61357 0.200255 4.50337 0.126518 4.38205 0.0762068C4.26074 0.0258961 4.13069 0 3.99936 0C3.86802 0 3.73798 0.0258961 3.61666 0.0762068C3.49535 0.126518 3.38515 0.200255 3.29236 0.293201L0.580357 3.0052C0.200357 3.3852 -0.0136428 3.9072 -0.00564283 4.4402C0.0173572 5.8642 0.394357 10.8102 4.29236 14.7082C8.19036 18.6062 13.1364 18.9822 14.5614 19.0062H14.5894C15.1174 19.0062 15.6164 18.7982 15.9944 18.4202L18.7064 15.7082C18.7993 15.6154 18.873 15.5052 18.9234 15.3839C18.9737 15.2626 18.9996 15.1325 18.9996 15.0012C18.9996 14.8699 18.9737 14.7398 18.9234 14.6185C18.873 14.4972 18.7993 14.387 18.7064 14.2942L14.7064 10.2932ZM14.5794 17.0052C13.3314 16.9842 9.06136 16.6492 5.70636 13.2932C2.34036 9.9272 2.01436 5.6422 1.99436 4.4192L3.99936 2.4142L6.58536 5.0002L5.29236 6.2932C5.17482 6.41065 5.0884 6.55554 5.04091 6.71477C4.99342 6.874 4.98636 7.04256 5.02036 7.2052C5.04436 7.3202 5.63136 10.0472 7.29136 11.7072C8.95136 13.3672 11.6784 13.9542 11.7934 13.9782C11.9559 14.0132 12.1246 14.0067 12.284 13.9593C12.4434 13.9119 12.5883 13.8252 12.7054 13.7072L13.9994 12.4142L16.5854 15.0002L14.5794 17.0052Z" fill="black"/>
</svg>
