<svg width="32" height="32" viewBox="0 0 32 32" fill="none" xmlns="http://www.w3.org/2000/svg">
<path d="M8.17674 12.5303L8.17676 12.5303L8.5303 12.1767C8.53031 12.1767 8.53031 12.1767 8.53032 12.1767C8.62794 12.0791 8.78621 12.0791 8.88385 12.1767C8.88385 12.1767 8.88385 12.1767 8.88385 12.1767L15.6464 18.9393L16 19.2929L16.3535 18.9393L23.1161 12.1767C23.2138 12.0791 23.372 12.0791 23.4696 12.1767L23.8232 12.5303C23.9208 12.628 23.9208 12.7862 23.8232 12.8838L16.1767 20.5303C16.0791 20.628 15.9209 20.628 15.8232 20.5303L8.17674 12.8838C8.17674 12.8838 8.17674 12.8838 8.17674 12.8838C8.07911 12.7862 8.07911 12.628 8.17674 12.5303Z" fill="#000" stroke="#000"/>
</svg>
