<svg width="19" height="19" viewBox="0 0 19 19" fill="none" xmlns="http://www.w3.org/2000/svg">
<path fill-rule="evenodd" clip-rule="evenodd" d="M13.666 0.841797H5.66602C2.9046 0.841797 0.666016 3.08038 0.666016 5.8418V13.8418C0.666016 16.6032 2.9046 18.8418 5.66602 18.8418H13.666C16.4274 18.8418 18.666 16.6032 18.666 13.8418V5.8418C18.666 3.08038 16.4274 0.841797 13.666 0.841797ZM16.916 13.8418C16.9105 15.6344 15.4586 17.0863 13.666 17.0918H5.66602C3.87337 17.0863 2.42151 15.6344 2.41602 13.8418V5.8418C2.42151 4.04915 3.87337 2.59729 5.66602 2.5918H13.666C15.4586 2.59729 16.9105 4.04915 16.916 5.8418V13.8418ZM14.416 6.0918C14.9683 6.0918 15.416 5.64408 15.416 5.0918C15.416 4.53952 14.9683 4.0918 14.416 4.0918C13.8637 4.0918 13.416 4.53952 13.416 5.0918C13.416 5.64408 13.8637 6.0918 14.416 6.0918ZM9.66602 5.3418C7.18074 5.3418 5.16602 7.35652 5.16602 9.8418C5.16602 12.3271 7.18074 14.3418 9.66602 14.3418C12.1513 14.3418 14.166 12.3271 14.166 9.8418C14.1687 8.6475 13.6954 7.50137 12.8509 6.65688C12.0064 5.81239 10.8603 5.33914 9.66602 5.3418ZM6.91602 9.8418C6.91602 11.3606 8.14722 12.5918 9.66602 12.5918C11.1848 12.5918 12.416 11.3606 12.416 9.8418C12.416 8.323 11.1848 7.0918 9.66602 7.0918C8.14722 7.0918 6.91602 8.323 6.91602 9.8418Z" fill="white"/>
</svg>
