<svg width="19" height="19" viewBox="0 0 19 19" fill="none" xmlns="http://www.w3.org/2000/svg">
<path fill-rule="evenodd" clip-rule="evenodd" d="M2.16602 0.841797C1.33759 0.841797 0.666016 1.51337 0.666016 2.3418V17.3418C0.666016 18.1702 1.33759 18.8418 2.16602 18.8418H17.166C17.9944 18.8418 18.666 18.1702 18.666 17.3418V2.3418C18.666 1.51337 17.9944 0.841797 17.166 0.841797H2.16602ZM6.18678 4.84452C6.19241 5.80077 5.47663 6.38999 4.62725 6.38577C3.82709 6.38155 3.12959 5.74452 3.13381 4.84593C3.13803 4.00077 3.806 3.32155 4.67366 3.34124C5.55397 3.36093 6.19241 4.0064 6.18678 4.84452ZM9.94572 7.60356H7.42573H7.42432V16.1634H10.0877V15.9637C10.0877 15.5838 10.0874 15.2038 10.0871 14.8237C10.0863 13.8099 10.0854 12.795 10.0906 11.7815C10.092 11.5354 10.1032 11.2795 10.1665 11.0446C10.4041 10.1671 11.1931 9.6004 12.0734 9.7397C12.6387 9.8282 13.0127 10.1559 13.1702 10.6889C13.2673 11.0221 13.3109 11.3807 13.3151 11.7281C13.3265 12.7757 13.3249 13.8233 13.3233 14.871C13.3227 15.2408 13.3221 15.6108 13.3221 15.9806V16.162H15.994V15.9567C15.994 15.5047 15.9938 15.0528 15.9935 14.6009C15.993 13.4714 15.9924 12.3419 15.9954 11.212C15.9968 10.7015 15.942 10.1981 15.8168 9.7045C15.6298 8.9704 15.2431 8.3629 14.6145 7.9242C14.1687 7.61199 13.6793 7.4109 13.1323 7.3884C13.07 7.38581 13.0072 7.38242 12.9441 7.37901C12.6644 7.36389 12.3801 7.34853 12.1127 7.40246C11.3477 7.55574 10.6756 7.9059 10.1679 8.5232C10.1089 8.594 10.0512 8.6659 9.96512 8.7732L9.94572 8.7975V7.60356ZM3.34766 16.1662H5.99844V7.60913H3.34766V16.1662Z" fill="white"/>
</svg>
