<svg width="140" height="57" viewBox="0 0 140 57" fill="none" xmlns="http://www.w3.org/2000/svg">
<path fill-rule="evenodd" clip-rule="evenodd" d="M38.5742 17.3496L27.0647 39.8496H16.2539L21.0707 30.5246H20.8545C16.8808 35.6831 10.9518 39.079 2.50391 39.8496V30.6537C2.50391 30.6537 7.90822 30.3345 11.0853 26.9943H2.50391V17.3498H12.1484V25.2823L12.3649 25.2814L16.306 17.3498H23.5999V25.232L23.8163 25.2316L27.9053 17.3496H38.5742ZM101.337 37.3661H104.443V19.5371H101.337V37.3661ZM84.2131 37.1841C84.8881 37.4647 85.5746 37.6051 86.2725 37.6051C87.4253 37.6051 88.457 37.3244 89.3672 36.7631C90.2773 36.2018 90.9828 35.4282 91.4835 34.4421C91.9841 33.4484 92.2343 32.3219 92.2343 31.0628C92.2343 29.8037 91.9765 28.6773 91.4607 27.6837C90.9448 26.69 90.2281 25.9201 89.3102 25.374C88.3925 24.8203 87.3495 24.5472 86.1813 24.5548C85.4381 24.5548 84.7251 24.6989 84.0424 24.9871C83.3597 25.2754 82.7908 25.685 82.3357 26.2159C82.3006 26.2564 82.2665 26.2972 82.2333 26.3384V19.5486H79.1158V37.3662H82.2106L82.2043 35.7017C82.2843 35.7998 82.37 35.8957 82.4608 35.9894C82.9538 36.4977 83.538 36.8958 84.2131 37.1841ZM87.3988 34.3056C86.8906 34.6166 86.3103 34.7721 85.658 34.7721C85.0132 34.7721 84.4216 34.6127 83.8831 34.2942C83.3445 33.9679 82.916 33.5243 82.5973 32.9629C82.2863 32.4017 82.1308 31.7644 82.1308 31.0514C82.1233 30.3384 82.275 29.7013 82.586 29.14C82.9046 28.5711 83.3331 28.1312 83.8717 27.8202C84.4102 27.5016 85.0057 27.3461 85.658 27.3537C86.3103 27.3461 86.8906 27.4978 87.3988 27.8088C87.9146 28.1122 88.309 28.5484 88.5821 29.1173C88.8627 29.6786 89.0031 30.3233 89.0031 31.0514C89.0031 31.7797 88.8627 32.4244 88.5821 32.9857C88.309 33.5471 87.9146 33.9869 87.3988 34.3056ZM43.074 20.618H46.6239L49.7993 32.215L53.1775 20.618H56.1357L59.7993 31.9823L62.8486 20.618H66.1026L61.3012 37.3662H58.2406L54.5151 26.2641L51.0953 37.3662H48.0006L43.074 20.618ZM71.3452 37.6619C70.1087 37.6695 68.9937 37.3964 68.0001 36.8428C67.0139 36.2814 66.2366 35.5039 65.6676 34.5103C65.1063 33.5166 64.8257 32.3826 64.8257 31.1083C64.8257 29.8719 65.1139 28.7531 65.6904 27.7519C66.2668 26.7506 67.0481 25.9694 68.0342 25.4081C69.0203 24.8468 70.1201 24.5661 71.3337 24.5661C72.6991 24.5661 73.8937 24.8695 74.9177 25.4763C75.9493 26.0831 76.7192 26.9441 77.2274 28.0591C77.7432 29.1665 77.9291 30.437 77.7849 31.8706H68.0391C68.0663 32.4418 68.2088 32.9614 68.4666 33.4294C68.7548 33.9451 69.1568 34.3471 69.6726 34.6354C70.1884 34.9236 70.7648 35.0678 71.4021 35.0678C71.8874 35.0601 72.3388 34.9768 72.7559 34.8175C73.1732 34.6506 73.5258 34.4269 73.8141 34.1461C74.1099 33.8655 74.3186 33.547 74.4399 33.1905H77.6939C77.4967 34.0628 77.1023 34.8403 76.5107 35.5229C75.9189 36.198 75.1757 36.7251 74.2806 37.1044C73.3856 37.4836 72.4071 37.6695 71.3452 37.6619ZM68.4779 28.7417C68.2962 29.0587 68.1702 29.4 68.1001 29.7658H74.5604C74.5136 29.3038 74.3709 28.8828 74.1327 28.5028C73.8596 28.0553 73.4879 27.7102 73.0177 27.4674C72.5474 27.2171 72.0164 27.092 71.4248 27.092C70.7952 27.092 70.2226 27.2361 69.7067 27.5243C69.1909 27.8126 68.7813 28.2184 68.4779 28.7417ZM94.5217 24.8278C94.5217 23.8114 94.7529 22.9088 95.2157 22.1199C95.6783 21.3235 96.3269 20.7053 97.1613 20.2653C98.0032 19.8178 98.9855 19.5865 100.108 19.5713V22.3361C99.5847 22.3437 99.1372 22.4537 98.7655 22.666C98.4014 22.8708 98.1208 23.1705 97.9235 23.5649C97.742 23.928 97.644 24.349 97.6297 24.8278H100.04V27.4561H97.6278V37.3662H94.5217V27.4561H92.5192V24.8278H94.5217ZM112.339 37.6391C111.072 37.6391 109.938 37.3622 108.937 36.8086C107.943 36.2472 107.162 35.4736 106.593 34.4874C106.032 33.4938 105.751 32.3674 105.751 31.1082C105.751 29.8416 106.032 28.7113 106.593 27.7177C107.162 26.7164 107.943 25.939 108.937 25.3852C109.938 24.8315 111.072 24.5547 112.339 24.5547C113.613 24.5547 114.751 24.8315 115.752 25.3852C116.761 25.939 117.546 26.7126 118.107 27.7063C118.668 28.7 118.953 29.8339 118.961 31.1082C118.953 32.3674 118.668 33.4938 118.107 34.4874C117.553 35.4736 116.772 36.2472 115.763 36.8086C114.755 37.3622 113.613 37.6391 112.339 37.6391ZM112.339 34.7833C113.006 34.7833 113.598 34.6316 114.114 34.3282C114.629 34.0172 115.028 33.5848 115.308 33.0311C115.589 32.4698 115.729 31.8288 115.729 31.1082C115.729 30.3801 115.589 29.7353 115.308 29.174C115.028 28.6127 114.629 28.1804 114.114 27.877C113.598 27.566 113.006 27.4105 112.339 27.4105C111.679 27.4105 111.091 27.566 110.575 27.877C110.067 28.1804 109.672 28.6127 109.392 29.174C109.111 29.7353 108.975 30.3801 108.982 31.1082C108.982 31.8288 109.123 32.4698 109.403 33.0311C109.691 33.5848 110.086 34.0172 110.586 34.3282C111.095 34.6316 111.679 34.7833 112.339 34.7833ZM122.317 24.8278H118.858L122.602 37.3661H125.628L128.09 29.3579L130.748 37.3661H133.729L137.484 24.8278H134.355L132.225 32.6321L129.871 24.8278H126.845L124.503 32.804L122.317 24.8278Z" fill="black"/>
<path d="M38.5742 17.3496L27.0647 39.8496H16.2539L21.0707 30.5246H20.8545C16.8808 35.6831 10.9518 39.079 2.50391 39.8496V30.6537C2.50391 30.6537 7.90822 30.3345 11.0853 26.9943H2.50391V17.3498H12.1484V25.2823L12.3649 25.2814L16.306 17.3498H23.5999V25.232L23.8163 25.2316L27.9053 17.3496H38.5742ZM101.337 37.3661H104.443V19.5371H101.337V37.3661ZM84.2131 37.1841C84.8881 37.4647 85.5746 37.6051 86.2725 37.6051C87.4253 37.6051 88.457 37.3244 89.3672 36.7631C90.2773 36.2018 90.9828 35.4282 91.4835 34.4421C91.9841 33.4484 92.2343 32.3219 92.2343 31.0628C92.2343 29.8037 91.9765 28.6773 91.4607 27.6837C90.9448 26.69 90.2281 25.9201 89.3102 25.374C88.3925 24.8203 87.3495 24.5472 86.1813 24.5548C85.4381 24.5548 84.7251 24.6989 84.0424 24.9871C83.3597 25.2754 82.7908 25.685 82.3357 26.2159C82.3006 26.2564 82.2665 26.2972 82.2333 26.3384V19.5486H79.1158V37.3662H82.2106L82.2043 35.7017C82.2843 35.7998 82.37 35.8957 82.4608 35.9894C82.9538 36.4977 83.538 36.8958 84.2131 37.1841ZM87.3988 34.3056C86.8906 34.6166 86.3103 34.7721 85.658 34.7721C85.0132 34.7721 84.4216 34.6127 83.8831 34.2942C83.3445 33.9679 82.916 33.5243 82.5973 32.9629C82.2863 32.4017 82.1308 31.7644 82.1308 31.0514C82.1233 30.3384 82.275 29.7013 82.586 29.14C82.9046 28.5711 83.3331 28.1312 83.8717 27.8202C84.4102 27.5016 85.0057 27.3461 85.658 27.3537C86.3103 27.3461 86.8906 27.4978 87.3988 27.8088C87.9146 28.1122 88.309 28.5484 88.5821 29.1173C88.8627 29.6786 89.0031 30.3233 89.0031 31.0514C89.0031 31.7797 88.8627 32.4244 88.5821 32.9857C88.309 33.5471 87.9146 33.9869 87.3988 34.3056ZM43.074 20.618H46.6239L49.7993 32.215L53.1775 20.618H56.1357L59.7993 31.9823L62.8486 20.618H66.1026L61.3012 37.3662H58.2406L54.5151 26.2641L51.0953 37.3662H48.0006L43.074 20.618ZM71.3452 37.6619C70.1087 37.6695 68.9937 37.3964 68.0001 36.8428C67.0139 36.2814 66.2366 35.5039 65.6676 34.5103C65.1063 33.5166 64.8257 32.3826 64.8257 31.1083C64.8257 29.8719 65.1139 28.7531 65.6904 27.7519C66.2668 26.7506 67.0481 25.9694 68.0342 25.4081C69.0203 24.8468 70.1201 24.5661 71.3337 24.5661C72.6991 24.5661 73.8937 24.8695 74.9177 25.4763C75.9493 26.0831 76.7192 26.9441 77.2274 28.0591C77.7432 29.1665 77.9291 30.437 77.7849 31.8706H68.0391C68.0663 32.4418 68.2088 32.9614 68.4666 33.4294C68.7548 33.9451 69.1568 34.3471 69.6726 34.6354C70.1884 34.9236 70.7648 35.0678 71.4021 35.0678C71.8874 35.0601 72.3388 34.9768 72.7559 34.8175C73.1732 34.6506 73.5258 34.4269 73.8141 34.1461C74.1099 33.8655 74.3186 33.547 74.4399 33.1905H77.6939C77.4967 34.0628 77.1023 34.8403 76.5107 35.5229C75.9189 36.198 75.1757 36.7251 74.2806 37.1044C73.3856 37.4836 72.4071 37.6695 71.3452 37.6619ZM68.4779 28.7417C68.2962 29.0587 68.1702 29.4 68.1001 29.7658H74.5604C74.5136 29.3038 74.3709 28.8828 74.1327 28.5028C73.8596 28.0553 73.4879 27.7102 73.0177 27.4674C72.5474 27.2171 72.0164 27.092 71.4248 27.092C70.7952 27.092 70.2226 27.2361 69.7067 27.5243C69.1909 27.8126 68.7813 28.2184 68.4779 28.7417ZM94.5217 24.8278C94.5217 23.8114 94.7529 22.9088 95.2157 22.1199C95.6783 21.3235 96.3269 20.7053 97.1613 20.2653C98.0032 19.8178 98.9855 19.5865 100.108 19.5713V22.3361C99.5847 22.3437 99.1372 22.4537 98.7655 22.666C98.4014 22.8708 98.1208 23.1705 97.9235 23.5649C97.742 23.928 97.644 24.349 97.6297 24.8278H100.04V27.4561H97.6278V37.3662H94.5217V27.4561H92.5192V24.8278H94.5217ZM112.339 37.6391C111.072 37.6391 109.938 37.3622 108.937 36.8086C107.943 36.2472 107.162 35.4736 106.593 34.4874C106.032 33.4938 105.751 32.3674 105.751 31.1082C105.751 29.8416 106.032 28.7113 106.593 27.7177C107.162 26.7164 107.943 25.939 108.937 25.3852C109.938 24.8315 111.072 24.5547 112.339 24.5547C113.613 24.5547 114.751 24.8315 115.752 25.3852C116.761 25.939 117.546 26.7126 118.107 27.7063C118.668 28.7 118.953 29.8339 118.961 31.1082C118.953 32.3674 118.668 33.4938 118.107 34.4874C117.553 35.4736 116.772 36.2472 115.763 36.8086C114.755 37.3622 113.613 37.6391 112.339 37.6391ZM112.339 34.7833C113.006 34.7833 113.598 34.6316 114.114 34.3282C114.629 34.0172 115.028 33.5848 115.308 33.0311C115.589 32.4698 115.729 31.8288 115.729 31.1082C115.729 30.3801 115.589 29.7353 115.308 29.174C115.028 28.6127 114.629 28.1804 114.114 27.877C113.598 27.566 113.006 27.4105 112.339 27.4105C111.679 27.4105 111.091 27.566 110.575 27.877C110.067 28.1804 109.672 28.6127 109.392 29.174C109.111 29.7353 108.975 30.3801 108.982 31.1082C108.982 31.8288 109.123 32.4698 109.403 33.0311C109.691 33.5848 110.086 34.0172 110.586 34.3282C111.095 34.6316 111.679 34.7833 112.339 34.7833ZM122.317 24.8278H118.858L122.602 37.3661H125.628L128.09 29.3579L130.748 37.3661H133.729L137.484 24.8278H134.355L132.225 32.6321L129.871 24.8278H126.845L124.503 32.804L122.317 24.8278Z" fill="black"/>
<path fill-rule="evenodd" clip-rule="evenodd" d="M38.5742 17.3496L27.0647 39.8496H16.2539L21.0707 30.5246H20.8545C16.8808 35.6831 10.9518 39.079 2.50391 39.8496V30.6537C2.50391 30.6537 7.90822 30.3345 11.0853 26.9943H2.50391V17.3498H12.1484V25.2823L12.3649 25.2814L16.306 17.3498H23.5999V25.232L23.8163 25.2316L27.9053 17.3496H38.5742ZM101.337 37.3661H104.443V19.5371H101.337V37.3661ZM84.2131 37.1841C84.8881 37.4647 85.5746 37.6051 86.2725 37.6051C87.4253 37.6051 88.457 37.3244 89.3672 36.7631C90.2773 36.2018 90.9828 35.4282 91.4835 34.4421C91.9841 33.4484 92.2343 32.3219 92.2343 31.0628C92.2343 29.8037 91.9765 28.6773 91.4607 27.6837C90.9448 26.69 90.2281 25.9201 89.3102 25.374C88.3925 24.8203 87.3495 24.5472 86.1813 24.5548C85.4381 24.5548 84.7251 24.6989 84.0424 24.9871C83.3597 25.2754 82.7908 25.685 82.3357 26.2159C82.3006 26.2564 82.2665 26.2972 82.2333 26.3384V19.5486H79.1158V37.3662H82.2106L82.2043 35.7017C82.2843 35.7998 82.37 35.8957 82.4608 35.9894C82.9538 36.4977 83.538 36.8958 84.2131 37.1841ZM87.3988 34.3056C86.8906 34.6166 86.3103 34.7721 85.658 34.7721C85.0132 34.7721 84.4216 34.6127 83.8831 34.2942C83.3445 33.9679 82.916 33.5243 82.5973 32.9629C82.2863 32.4017 82.1308 31.7644 82.1308 31.0514C82.1233 30.3384 82.275 29.7013 82.586 29.14C82.9046 28.5711 83.3331 28.1312 83.8717 27.8202C84.4102 27.5016 85.0057 27.3461 85.658 27.3537C86.3103 27.3461 86.8906 27.4978 87.3988 27.8088C87.9146 28.1122 88.309 28.5484 88.5821 29.1173C88.8627 29.6786 89.0031 30.3233 89.0031 31.0514C89.0031 31.7797 88.8627 32.4244 88.5821 32.9857C88.309 33.5471 87.9146 33.9869 87.3988 34.3056ZM43.074 20.618H46.6239L49.7993 32.215L53.1775 20.618H56.1357L59.7993 31.9823L62.8486 20.618H66.1026L61.3012 37.3662H58.2406L54.5151 26.2641L51.0953 37.3662H48.0006L43.074 20.618ZM71.3452 37.6619C70.1087 37.6695 68.9937 37.3964 68.0001 36.8428C67.0139 36.2814 66.2366 35.5039 65.6676 34.5103C65.1063 33.5166 64.8257 32.3826 64.8257 31.1083C64.8257 29.8719 65.1139 28.7531 65.6904 27.7519C66.2668 26.7506 67.0481 25.9694 68.0342 25.4081C69.0203 24.8468 70.1201 24.5661 71.3337 24.5661C72.6991 24.5661 73.8937 24.8695 74.9177 25.4763C75.9493 26.0831 76.7192 26.9441 77.2274 28.0591C77.7432 29.1665 77.9291 30.437 77.7849 31.8706H68.0391C68.0663 32.4418 68.2088 32.9614 68.4666 33.4294C68.7548 33.9451 69.1568 34.3471 69.6726 34.6354C70.1884 34.9236 70.7648 35.0678 71.4021 35.0678C71.8874 35.0601 72.3388 34.9768 72.7559 34.8175C73.1732 34.6506 73.5258 34.4269 73.8141 34.1461C74.1099 33.8655 74.3186 33.547 74.4399 33.1905H77.6939C77.4967 34.0628 77.1023 34.8403 76.5107 35.5229C75.9189 36.198 75.1757 36.7251 74.2806 37.1044C73.3856 37.4836 72.4071 37.6695 71.3452 37.6619ZM68.4779 28.7417C68.2962 29.0587 68.1702 29.4 68.1001 29.7658H74.5604C74.5136 29.3038 74.3709 28.8828 74.1327 28.5028C73.8596 28.0553 73.4879 27.7102 73.0177 27.4674C72.5474 27.2171 72.0164 27.092 71.4248 27.092C70.7952 27.092 70.2226 27.2361 69.7067 27.5243C69.1909 27.8126 68.7813 28.2184 68.4779 28.7417ZM94.5217 24.8278C94.5217 23.8114 94.7529 22.9088 95.2157 22.1199C95.6783 21.3235 96.3269 20.7053 97.1613 20.2653C98.0032 19.8178 98.9855 19.5865 100.108 19.5713V22.3361C99.5847 22.3437 99.1372 22.4537 98.7655 22.666C98.4014 22.8708 98.1208 23.1705 97.9235 23.5649C97.742 23.928 97.644 24.349 97.6297 24.8278H100.04V27.4561H97.6278V37.3662H94.5217V27.4561H92.5192V24.8278H94.5217ZM112.339 37.6391C111.072 37.6391 109.938 37.3622 108.937 36.8086C107.943 36.2472 107.162 35.4736 106.593 34.4874C106.032 33.4938 105.751 32.3674 105.751 31.1082C105.751 29.8416 106.032 28.7113 106.593 27.7177C107.162 26.7164 107.943 25.939 108.937 25.3852C109.938 24.8315 111.072 24.5547 112.339 24.5547C113.613 24.5547 114.751 24.8315 115.752 25.3852C116.761 25.939 117.546 26.7126 118.107 27.7063C118.668 28.7 118.953 29.8339 118.961 31.1082C118.953 32.3674 118.668 33.4938 118.107 34.4874C117.553 35.4736 116.772 36.2472 115.763 36.8086C114.755 37.3622 113.613 37.6391 112.339 37.6391ZM112.339 34.7833C113.006 34.7833 113.598 34.6316 114.114 34.3282C114.629 34.0172 115.028 33.5848 115.308 33.0311C115.589 32.4698 115.729 31.8288 115.729 31.1082C115.729 30.3801 115.589 29.7353 115.308 29.174C115.028 28.6127 114.629 28.1804 114.114 27.877C113.598 27.566 113.006 27.4105 112.339 27.4105C111.679 27.4105 111.091 27.566 110.575 27.877C110.067 28.1804 109.672 28.6127 109.392 29.174C109.111 29.7353 108.975 30.3801 108.982 31.1082C108.982 31.8288 109.123 32.4698 109.403 33.0311C109.691 33.5848 110.086 34.0172 110.586 34.3282C111.095 34.6316 111.679 34.7833 112.339 34.7833ZM122.317 24.8278H118.858L122.602 37.3661H125.628L128.09 29.3579L130.748 37.3661H133.729L137.484 24.8278H134.355L132.225 32.6321L129.871 24.8278H126.845L124.503 32.804L122.317 24.8278Z" fill="black"/>
<path d="M38.5742 17.3496L27.0647 39.8496H16.2539L21.0707 30.5246H20.8545C16.8808 35.6831 10.9518 39.079 2.50391 39.8496V30.6537C2.50391 30.6537 7.90822 30.3345 11.0853 26.9943H2.50391V17.3498H12.1484V25.2823L12.3649 25.2814L16.306 17.3498H23.5999V25.232L23.8163 25.2316L27.9053 17.3496H38.5742ZM101.337 37.3661H104.443V19.5371H101.337V37.3661ZM84.2131 37.1841C84.8881 37.4647 85.5746 37.6051 86.2725 37.6051C87.4253 37.6051 88.457 37.3244 89.3672 36.7631C90.2773 36.2018 90.9828 35.4282 91.4835 34.4421C91.9841 33.4484 92.2343 32.3219 92.2343 31.0628C92.2343 29.8037 91.9765 28.6773 91.4607 27.6837C90.9448 26.69 90.2281 25.9201 89.3102 25.374C88.3925 24.8203 87.3495 24.5472 86.1813 24.5548C85.4381 24.5548 84.7251 24.6989 84.0424 24.9871C83.3597 25.2754 82.7908 25.685 82.3357 26.2159C82.3006 26.2564 82.2665 26.2972 82.2333 26.3384V19.5486H79.1158V37.3662H82.2106L82.2043 35.7017C82.2843 35.7998 82.37 35.8957 82.4608 35.9894C82.9538 36.4977 83.538 36.8958 84.2131 37.1841ZM87.3988 34.3056C86.8906 34.6166 86.3103 34.7721 85.658 34.7721C85.0132 34.7721 84.4216 34.6127 83.8831 34.2942C83.3445 33.9679 82.916 33.5243 82.5973 32.9629C82.2863 32.4017 82.1308 31.7644 82.1308 31.0514C82.1233 30.3384 82.275 29.7013 82.586 29.14C82.9046 28.5711 83.3331 28.1312 83.8717 27.8202C84.4102 27.5016 85.0057 27.3461 85.658 27.3537C86.3103 27.3461 86.8906 27.4978 87.3988 27.8088C87.9146 28.1122 88.309 28.5484 88.5821 29.1173C88.8627 29.6786 89.0031 30.3233 89.0031 31.0514C89.0031 31.7797 88.8627 32.4244 88.5821 32.9857C88.309 33.5471 87.9146 33.9869 87.3988 34.3056ZM43.074 20.618H46.6239L49.7993 32.215L53.1775 20.618H56.1357L59.7993 31.9823L62.8486 20.618H66.1026L61.3012 37.3662H58.2406L54.5151 26.2641L51.0953 37.3662H48.0006L43.074 20.618ZM71.3452 37.6619C70.1087 37.6695 68.9937 37.3964 68.0001 36.8428C67.0139 36.2814 66.2366 35.5039 65.6676 34.5103C65.1063 33.5166 64.8257 32.3826 64.8257 31.1083C64.8257 29.8719 65.1139 28.7531 65.6904 27.7519C66.2668 26.7506 67.0481 25.9694 68.0342 25.4081C69.0203 24.8468 70.1201 24.5661 71.3337 24.5661C72.6991 24.5661 73.8937 24.8695 74.9177 25.4763C75.9493 26.0831 76.7192 26.9441 77.2274 28.0591C77.7432 29.1665 77.9291 30.437 77.7849 31.8706H68.0391C68.0663 32.4418 68.2088 32.9614 68.4666 33.4294C68.7548 33.9451 69.1568 34.3471 69.6726 34.6354C70.1884 34.9236 70.7648 35.0678 71.4021 35.0678C71.8874 35.0601 72.3388 34.9768 72.7559 34.8175C73.1732 34.6506 73.5258 34.4269 73.8141 34.1461C74.1099 33.8655 74.3186 33.547 74.4399 33.1905H77.6939C77.4967 34.0628 77.1023 34.8403 76.5107 35.5229C75.9189 36.198 75.1757 36.7251 74.2806 37.1044C73.3856 37.4836 72.4071 37.6695 71.3452 37.6619ZM68.4779 28.7417C68.2962 29.0587 68.1702 29.4 68.1001 29.7658H74.5604C74.5136 29.3038 74.3709 28.8828 74.1327 28.5028C73.8596 28.0553 73.4879 27.7102 73.0177 27.4674C72.5474 27.2171 72.0164 27.092 71.4248 27.092C70.7952 27.092 70.2226 27.2361 69.7067 27.5243C69.1909 27.8126 68.7813 28.2184 68.4779 28.7417ZM94.5217 24.8278C94.5217 23.8114 94.7529 22.9088 95.2157 22.1199C95.6783 21.3235 96.3269 20.7053 97.1613 20.2653C98.0032 19.8178 98.9855 19.5865 100.108 19.5713V22.3361C99.5847 22.3437 99.1372 22.4537 98.7655 22.666C98.4014 22.8708 98.1208 23.1705 97.9235 23.5649C97.742 23.928 97.644 24.349 97.6297 24.8278H100.04V27.4561H97.6278V37.3662H94.5217V27.4561H92.5192V24.8278H94.5217ZM112.339 37.6391C111.072 37.6391 109.938 37.3622 108.937 36.8086C107.943 36.2472 107.162 35.4736 106.593 34.4874C106.032 33.4938 105.751 32.3674 105.751 31.1082C105.751 29.8416 106.032 28.7113 106.593 27.7177C107.162 26.7164 107.943 25.939 108.937 25.3852C109.938 24.8315 111.072 24.5547 112.339 24.5547C113.613 24.5547 114.751 24.8315 115.752 25.3852C116.761 25.939 117.546 26.7126 118.107 27.7063C118.668 28.7 118.953 29.8339 118.961 31.1082C118.953 32.3674 118.668 33.4938 118.107 34.4874C117.553 35.4736 116.772 36.2472 115.763 36.8086C114.755 37.3622 113.613 37.6391 112.339 37.6391ZM112.339 34.7833C113.006 34.7833 113.598 34.6316 114.114 34.3282C114.629 34.0172 115.028 33.5848 115.308 33.0311C115.589 32.4698 115.729 31.8288 115.729 31.1082C115.729 30.3801 115.589 29.7353 115.308 29.174C115.028 28.6127 114.629 28.1804 114.114 27.877C113.598 27.566 113.006 27.4105 112.339 27.4105C111.679 27.4105 111.091 27.566 110.575 27.877C110.067 28.1804 109.672 28.6127 109.392 29.174C109.111 29.7353 108.975 30.3801 108.982 31.1082C108.982 31.8288 109.123 32.4698 109.403 33.0311C109.691 33.5848 110.086 34.0172 110.586 34.3282C111.095 34.6316 111.679 34.7833 112.339 34.7833ZM122.317 24.8278H118.858L122.602 37.3661H125.628L128.09 29.3579L130.748 37.3661H133.729L137.484 24.8278H134.355L132.225 32.6321L129.871 24.8278H126.845L124.503 32.804L122.317 24.8278Z" fill="black"/>
<path fill-rule="evenodd" clip-rule="evenodd" d="M38.5742 17.3496L27.0647 39.8496H16.2539L21.0707 30.5246H20.8545C16.8808 35.6831 10.9518 39.079 2.50391 39.8496V30.6537C2.50391 30.6537 7.90822 30.3345 11.0853 26.9943H2.50391V17.3498H12.1484V25.2823L12.3649 25.2814L16.306 17.3498H23.5999V25.232L23.8163 25.2316L27.9053 17.3496H38.5742ZM101.337 37.3661H104.443V19.5371H101.337V37.3661ZM84.2131 37.1841C84.8881 37.4647 85.5746 37.6051 86.2725 37.6051C87.4253 37.6051 88.457 37.3244 89.3672 36.7631C90.2773 36.2018 90.9828 35.4282 91.4835 34.4421C91.9841 33.4484 92.2343 32.3219 92.2343 31.0628C92.2343 29.8037 91.9765 28.6773 91.4607 27.6837C90.9448 26.69 90.2281 25.9201 89.3102 25.374C88.3925 24.8203 87.3495 24.5472 86.1813 24.5548C85.4381 24.5548 84.7251 24.6989 84.0424 24.9871C83.3597 25.2754 82.7908 25.685 82.3357 26.2159C82.3006 26.2564 82.2665 26.2972 82.2333 26.3384V19.5486H79.1158V37.3662H82.2106L82.2043 35.7017C82.2843 35.7998 82.37 35.8957 82.4608 35.9894C82.9538 36.4977 83.538 36.8958 84.2131 37.1841ZM87.3988 34.3056C86.8906 34.6166 86.3103 34.7721 85.658 34.7721C85.0132 34.7721 84.4216 34.6127 83.8831 34.2942C83.3445 33.9679 82.916 33.5243 82.5973 32.9629C82.2863 32.4017 82.1308 31.7644 82.1308 31.0514C82.1233 30.3384 82.275 29.7013 82.586 29.14C82.9046 28.5711 83.3331 28.1312 83.8717 27.8202C84.4102 27.5016 85.0057 27.3461 85.658 27.3537C86.3103 27.3461 86.8906 27.4978 87.3988 27.8088C87.9146 28.1122 88.309 28.5484 88.5821 29.1173C88.8627 29.6786 89.0031 30.3233 89.0031 31.0514C89.0031 31.7797 88.8627 32.4244 88.5821 32.9857C88.309 33.5471 87.9146 33.9869 87.3988 34.3056ZM43.074 20.618H46.6239L49.7993 32.215L53.1775 20.618H56.1357L59.7993 31.9823L62.8486 20.618H66.1026L61.3012 37.3662H58.2406L54.5151 26.2641L51.0953 37.3662H48.0006L43.074 20.618ZM71.3452 37.6619C70.1087 37.6695 68.9937 37.3964 68.0001 36.8428C67.0139 36.2814 66.2366 35.5039 65.6676 34.5103C65.1063 33.5166 64.8257 32.3826 64.8257 31.1083C64.8257 29.8719 65.1139 28.7531 65.6904 27.7519C66.2668 26.7506 67.0481 25.9694 68.0342 25.4081C69.0203 24.8468 70.1201 24.5661 71.3337 24.5661C72.6991 24.5661 73.8937 24.8695 74.9177 25.4763C75.9493 26.0831 76.7192 26.9441 77.2274 28.0591C77.7432 29.1665 77.9291 30.437 77.7849 31.8706H68.0391C68.0663 32.4418 68.2088 32.9614 68.4666 33.4294C68.7548 33.9451 69.1568 34.3471 69.6726 34.6354C70.1884 34.9236 70.7648 35.0678 71.4021 35.0678C71.8874 35.0601 72.3388 34.9768 72.7559 34.8175C73.1732 34.6506 73.5258 34.4269 73.8141 34.1461C74.1099 33.8655 74.3186 33.547 74.4399 33.1905H77.6939C77.4967 34.0628 77.1023 34.8403 76.5107 35.5229C75.9189 36.198 75.1757 36.7251 74.2806 37.1044C73.3856 37.4836 72.4071 37.6695 71.3452 37.6619ZM68.4779 28.7417C68.2962 29.0587 68.1702 29.4 68.1001 29.7658H74.5604C74.5136 29.3038 74.3709 28.8828 74.1327 28.5028C73.8596 28.0553 73.4879 27.7102 73.0177 27.4674C72.5474 27.2171 72.0164 27.092 71.4248 27.092C70.7952 27.092 70.2226 27.2361 69.7067 27.5243C69.1909 27.8126 68.7813 28.2184 68.4779 28.7417ZM94.5217 24.8278C94.5217 23.8114 94.7529 22.9088 95.2157 22.1199C95.6783 21.3235 96.3269 20.7053 97.1613 20.2653C98.0032 19.8178 98.9855 19.5865 100.108 19.5713V22.3361C99.5847 22.3437 99.1372 22.4537 98.7655 22.666C98.4014 22.8708 98.1208 23.1705 97.9235 23.5649C97.742 23.928 97.644 24.349 97.6297 24.8278H100.04V27.4561H97.6278V37.3662H94.5217V27.4561H92.5192V24.8278H94.5217ZM112.339 37.6391C111.072 37.6391 109.938 37.3622 108.937 36.8086C107.943 36.2472 107.162 35.4736 106.593 34.4874C106.032 33.4938 105.751 32.3674 105.751 31.1082C105.751 29.8416 106.032 28.7113 106.593 27.7177C107.162 26.7164 107.943 25.939 108.937 25.3852C109.938 24.8315 111.072 24.5547 112.339 24.5547C113.613 24.5547 114.751 24.8315 115.752 25.3852C116.761 25.939 117.546 26.7126 118.107 27.7063C118.668 28.7 118.953 29.8339 118.961 31.1082C118.953 32.3674 118.668 33.4938 118.107 34.4874C117.553 35.4736 116.772 36.2472 115.763 36.8086C114.755 37.3622 113.613 37.6391 112.339 37.6391ZM112.339 34.7833C113.006 34.7833 113.598 34.6316 114.114 34.3282C114.629 34.0172 115.028 33.5848 115.308 33.0311C115.589 32.4698 115.729 31.8288 115.729 31.1082C115.729 30.3801 115.589 29.7353 115.308 29.174C115.028 28.6127 114.629 28.1804 114.114 27.877C113.598 27.566 113.006 27.4105 112.339 27.4105C111.679 27.4105 111.091 27.566 110.575 27.877C110.067 28.1804 109.672 28.6127 109.392 29.174C109.111 29.7353 108.975 30.3801 108.982 31.1082C108.982 31.8288 109.123 32.4698 109.403 33.0311C109.691 33.5848 110.086 34.0172 110.586 34.3282C111.095 34.6316 111.679 34.7833 112.339 34.7833ZM122.317 24.8278H118.858L122.602 37.3661H125.628L128.09 29.3579L130.748 37.3661H133.729L137.484 24.8278H134.355L132.225 32.6321L129.871 24.8278H126.845L124.503 32.804L122.317 24.8278Z" fill="black"/>
<path d="M38.5742 17.3496L27.0647 39.8496H16.2539L21.0707 30.5246H20.8545C16.8808 35.6831 10.9518 39.079 2.50391 39.8496V30.6537C2.50391 30.6537 7.90822 30.3345 11.0853 26.9943H2.50391V17.3498H12.1484V25.2823L12.3649 25.2814L16.306 17.3498H23.5999V25.232L23.8163 25.2316L27.9053 17.3496H38.5742ZM101.337 37.3661H104.443V19.5371H101.337V37.3661ZM84.2131 37.1841C84.8881 37.4647 85.5746 37.6051 86.2725 37.6051C87.4253 37.6051 88.457 37.3244 89.3672 36.7631C90.2773 36.2018 90.9828 35.4282 91.4835 34.4421C91.9841 33.4484 92.2343 32.3219 92.2343 31.0628C92.2343 29.8037 91.9765 28.6773 91.4607 27.6837C90.9448 26.69 90.2281 25.9201 89.3102 25.374C88.3925 24.8203 87.3495 24.5472 86.1813 24.5548C85.4381 24.5548 84.7251 24.6989 84.0424 24.9871C83.3597 25.2754 82.7908 25.685 82.3357 26.2159C82.3006 26.2564 82.2665 26.2972 82.2333 26.3384V19.5486H79.1158V37.3662H82.2106L82.2043 35.7017C82.2843 35.7998 82.37 35.8957 82.4608 35.9894C82.9538 36.4977 83.538 36.8958 84.2131 37.1841ZM87.3988 34.3056C86.8906 34.6166 86.3103 34.7721 85.658 34.7721C85.0132 34.7721 84.4216 34.6127 83.8831 34.2942C83.3445 33.9679 82.916 33.5243 82.5973 32.9629C82.2863 32.4017 82.1308 31.7644 82.1308 31.0514C82.1233 30.3384 82.275 29.7013 82.586 29.14C82.9046 28.5711 83.3331 28.1312 83.8717 27.8202C84.4102 27.5016 85.0057 27.3461 85.658 27.3537C86.3103 27.3461 86.8906 27.4978 87.3988 27.8088C87.9146 28.1122 88.309 28.5484 88.5821 29.1173C88.8627 29.6786 89.0031 30.3233 89.0031 31.0514C89.0031 31.7797 88.8627 32.4244 88.5821 32.9857C88.309 33.5471 87.9146 33.9869 87.3988 34.3056ZM43.074 20.618H46.6239L49.7993 32.215L53.1775 20.618H56.1357L59.7993 31.9823L62.8486 20.618H66.1026L61.3012 37.3662H58.2406L54.5151 26.2641L51.0953 37.3662H48.0006L43.074 20.618ZM71.3452 37.6619C70.1087 37.6695 68.9937 37.3964 68.0001 36.8428C67.0139 36.2814 66.2366 35.5039 65.6676 34.5103C65.1063 33.5166 64.8257 32.3826 64.8257 31.1083C64.8257 29.8719 65.1139 28.7531 65.6904 27.7519C66.2668 26.7506 67.0481 25.9694 68.0342 25.4081C69.0203 24.8468 70.1201 24.5661 71.3337 24.5661C72.6991 24.5661 73.8937 24.8695 74.9177 25.4763C75.9493 26.0831 76.7192 26.9441 77.2274 28.0591C77.7432 29.1665 77.9291 30.437 77.7849 31.8706H68.0391C68.0663 32.4418 68.2088 32.9614 68.4666 33.4294C68.7548 33.9451 69.1568 34.3471 69.6726 34.6354C70.1884 34.9236 70.7648 35.0678 71.4021 35.0678C71.8874 35.0601 72.3388 34.9768 72.7559 34.8175C73.1732 34.6506 73.5258 34.4269 73.8141 34.1461C74.1099 33.8655 74.3186 33.547 74.4399 33.1905H77.6939C77.4967 34.0628 77.1023 34.8403 76.5107 35.5229C75.9189 36.198 75.1757 36.7251 74.2806 37.1044C73.3856 37.4836 72.4071 37.6695 71.3452 37.6619ZM68.4779 28.7417C68.2962 29.0587 68.1702 29.4 68.1001 29.7658H74.5604C74.5136 29.3038 74.3709 28.8828 74.1327 28.5028C73.8596 28.0553 73.4879 27.7102 73.0177 27.4674C72.5474 27.2171 72.0164 27.092 71.4248 27.092C70.7952 27.092 70.2226 27.2361 69.7067 27.5243C69.1909 27.8126 68.7813 28.2184 68.4779 28.7417ZM94.5217 24.8278C94.5217 23.8114 94.7529 22.9088 95.2157 22.1199C95.6783 21.3235 96.3269 20.7053 97.1613 20.2653C98.0032 19.8178 98.9855 19.5865 100.108 19.5713V22.3361C99.5847 22.3437 99.1372 22.4537 98.7655 22.666C98.4014 22.8708 98.1208 23.1705 97.9235 23.5649C97.742 23.928 97.644 24.349 97.6297 24.8278H100.04V27.4561H97.6278V37.3662H94.5217V27.4561H92.5192V24.8278H94.5217ZM112.339 37.6391C111.072 37.6391 109.938 37.3622 108.937 36.8086C107.943 36.2472 107.162 35.4736 106.593 34.4874C106.032 33.4938 105.751 32.3674 105.751 31.1082C105.751 29.8416 106.032 28.7113 106.593 27.7177C107.162 26.7164 107.943 25.939 108.937 25.3852C109.938 24.8315 111.072 24.5547 112.339 24.5547C113.613 24.5547 114.751 24.8315 115.752 25.3852C116.761 25.939 117.546 26.7126 118.107 27.7063C118.668 28.7 118.953 29.8339 118.961 31.1082C118.953 32.3674 118.668 33.4938 118.107 34.4874C117.553 35.4736 116.772 36.2472 115.763 36.8086C114.755 37.3622 113.613 37.6391 112.339 37.6391ZM112.339 34.7833C113.006 34.7833 113.598 34.6316 114.114 34.3282C114.629 34.0172 115.028 33.5848 115.308 33.0311C115.589 32.4698 115.729 31.8288 115.729 31.1082C115.729 30.3801 115.589 29.7353 115.308 29.174C115.028 28.6127 114.629 28.1804 114.114 27.877C113.598 27.566 113.006 27.4105 112.339 27.4105C111.679 27.4105 111.091 27.566 110.575 27.877C110.067 28.1804 109.672 28.6127 109.392 29.174C109.111 29.7353 108.975 30.3801 108.982 31.1082C108.982 31.8288 109.123 32.4698 109.403 33.0311C109.691 33.5848 110.086 34.0172 110.586 34.3282C111.095 34.6316 111.679 34.7833 112.339 34.7833ZM122.317 24.8278H118.858L122.602 37.3661H125.628L128.09 29.3579L130.748 37.3661H133.729L137.484 24.8278H134.355L132.225 32.6321L129.871 24.8278H126.845L124.503 32.804L122.317 24.8278Z" fill="black"/>
<path fill-rule="evenodd" clip-rule="evenodd" d="M38.5742 17.3496L27.0647 39.8496H16.2539L21.0707 30.5246H20.8545C16.8808 35.6831 10.9518 39.079 2.50391 39.8496V30.6537C2.50391 30.6537 7.90822 30.3345 11.0853 26.9943H2.50391V17.3498H12.1484V25.2823L12.3649 25.2814L16.306 17.3498H23.5999V25.232L23.8163 25.2316L27.9053 17.3496H38.5742ZM101.337 37.3661H104.443V19.5371H101.337V37.3661ZM84.2131 37.1841C84.8881 37.4647 85.5746 37.6051 86.2725 37.6051C87.4253 37.6051 88.457 37.3244 89.3672 36.7631C90.2773 36.2018 90.9828 35.4282 91.4835 34.4421C91.9841 33.4484 92.2343 32.3219 92.2343 31.0628C92.2343 29.8037 91.9765 28.6773 91.4607 27.6837C90.9448 26.69 90.2281 25.9201 89.3102 25.374C88.3925 24.8203 87.3495 24.5472 86.1813 24.5548C85.4381 24.5548 84.7251 24.6989 84.0424 24.9871C83.3597 25.2754 82.7908 25.685 82.3357 26.2159C82.3006 26.2564 82.2665 26.2972 82.2333 26.3384V19.5486H79.1158V37.3662H82.2106L82.2043 35.7017C82.2843 35.7998 82.37 35.8957 82.4608 35.9894C82.9538 36.4977 83.538 36.8958 84.2131 37.1841ZM87.3988 34.3056C86.8906 34.6166 86.3103 34.7721 85.658 34.7721C85.0132 34.7721 84.4216 34.6127 83.8831 34.2942C83.3445 33.9679 82.916 33.5243 82.5973 32.9629C82.2863 32.4017 82.1308 31.7644 82.1308 31.0514C82.1233 30.3384 82.275 29.7013 82.586 29.14C82.9046 28.5711 83.3331 28.1312 83.8717 27.8202C84.4102 27.5016 85.0057 27.3461 85.658 27.3537C86.3103 27.3461 86.8906 27.4978 87.3988 27.8088C87.9146 28.1122 88.309 28.5484 88.5821 29.1173C88.8627 29.6786 89.0031 30.3233 89.0031 31.0514C89.0031 31.7797 88.8627 32.4244 88.5821 32.9857C88.309 33.5471 87.9146 33.9869 87.3988 34.3056ZM43.074 20.618H46.6239L49.7993 32.215L53.1775 20.618H56.1357L59.7993 31.9823L62.8486 20.618H66.1026L61.3012 37.3662H58.2406L54.5151 26.2641L51.0953 37.3662H48.0006L43.074 20.618ZM71.3452 37.6619C70.1087 37.6695 68.9937 37.3964 68.0001 36.8428C67.0139 36.2814 66.2366 35.5039 65.6676 34.5103C65.1063 33.5166 64.8257 32.3826 64.8257 31.1083C64.8257 29.8719 65.1139 28.7531 65.6904 27.7519C66.2668 26.7506 67.0481 25.9694 68.0342 25.4081C69.0203 24.8468 70.1201 24.5661 71.3337 24.5661C72.6991 24.5661 73.8937 24.8695 74.9177 25.4763C75.9493 26.0831 76.7192 26.9441 77.2274 28.0591C77.7432 29.1665 77.9291 30.437 77.7849 31.8706H68.0391C68.0663 32.4418 68.2088 32.9614 68.4666 33.4294C68.7548 33.9451 69.1568 34.3471 69.6726 34.6354C70.1884 34.9236 70.7648 35.0678 71.4021 35.0678C71.8874 35.0601 72.3388 34.9768 72.7559 34.8175C73.1732 34.6506 73.5258 34.4269 73.8141 34.1461C74.1099 33.8655 74.3186 33.547 74.4399 33.1905H77.6939C77.4967 34.0628 77.1023 34.8403 76.5107 35.5229C75.9189 36.198 75.1757 36.7251 74.2806 37.1044C73.3856 37.4836 72.4071 37.6695 71.3452 37.6619ZM68.4779 28.7417C68.2962 29.0587 68.1702 29.4 68.1001 29.7658H74.5604C74.5136 29.3038 74.3709 28.8828 74.1327 28.5028C73.8596 28.0553 73.4879 27.7102 73.0177 27.4674C72.5474 27.2171 72.0164 27.092 71.4248 27.092C70.7952 27.092 70.2226 27.2361 69.7067 27.5243C69.1909 27.8126 68.7813 28.2184 68.4779 28.7417ZM94.5217 24.8278C94.5217 23.8114 94.7529 22.9088 95.2157 22.1199C95.6783 21.3235 96.3269 20.7053 97.1613 20.2653C98.0032 19.8178 98.9855 19.5865 100.108 19.5713V22.3361C99.5847 22.3437 99.1372 22.4537 98.7655 22.666C98.4014 22.8708 98.1208 23.1705 97.9235 23.5649C97.742 23.928 97.644 24.349 97.6297 24.8278H100.04V27.4561H97.6278V37.3662H94.5217V27.4561H92.5192V24.8278H94.5217ZM112.339 37.6391C111.072 37.6391 109.938 37.3622 108.937 36.8086C107.943 36.2472 107.162 35.4736 106.593 34.4874C106.032 33.4938 105.751 32.3674 105.751 31.1082C105.751 29.8416 106.032 28.7113 106.593 27.7177C107.162 26.7164 107.943 25.939 108.937 25.3852C109.938 24.8315 111.072 24.5547 112.339 24.5547C113.613 24.5547 114.751 24.8315 115.752 25.3852C116.761 25.939 117.546 26.7126 118.107 27.7063C118.668 28.7 118.953 29.8339 118.961 31.1082C118.953 32.3674 118.668 33.4938 118.107 34.4874C117.553 35.4736 116.772 36.2472 115.763 36.8086C114.755 37.3622 113.613 37.6391 112.339 37.6391ZM112.339 34.7833C113.006 34.7833 113.598 34.6316 114.114 34.3282C114.629 34.0172 115.028 33.5848 115.308 33.0311C115.589 32.4698 115.729 31.8288 115.729 31.1082C115.729 30.3801 115.589 29.7353 115.308 29.174C115.028 28.6127 114.629 28.1804 114.114 27.877C113.598 27.566 113.006 27.4105 112.339 27.4105C111.679 27.4105 111.091 27.566 110.575 27.877C110.067 28.1804 109.672 28.6127 109.392 29.174C109.111 29.7353 108.975 30.3801 108.982 31.1082C108.982 31.8288 109.123 32.4698 109.403 33.0311C109.691 33.5848 110.086 34.0172 110.586 34.3282C111.095 34.6316 111.679 34.7833 112.339 34.7833ZM122.317 24.8278H118.858L122.602 37.3661H125.628L128.09 29.3579L130.748 37.3661H133.729L137.484 24.8278H134.355L132.225 32.6321L129.871 24.8278H126.845L124.503 32.804L122.317 24.8278Z" fill="black"/>
<path d="M38.5742 17.3496L27.0647 39.8496H16.2539L21.0707 30.5246H20.8545C16.8808 35.6831 10.9518 39.079 2.50391 39.8496V30.6537C2.50391 30.6537 7.90822 30.3345 11.0853 26.9943H2.50391V17.3498H12.1484V25.2823L12.3649 25.2814L16.306 17.3498H23.5999V25.232L23.8163 25.2316L27.9053 17.3496H38.5742ZM101.337 37.3661H104.443V19.5371H101.337V37.3661ZM84.2131 37.1841C84.8881 37.4647 85.5746 37.6051 86.2725 37.6051C87.4253 37.6051 88.457 37.3244 89.3672 36.7631C90.2773 36.2018 90.9828 35.4282 91.4835 34.4421C91.9841 33.4484 92.2343 32.3219 92.2343 31.0628C92.2343 29.8037 91.9765 28.6773 91.4607 27.6837C90.9448 26.69 90.2281 25.9201 89.3102 25.374C88.3925 24.8203 87.3495 24.5472 86.1813 24.5548C85.4381 24.5548 84.7251 24.6989 84.0424 24.9871C83.3597 25.2754 82.7908 25.685 82.3357 26.2159C82.3006 26.2564 82.2665 26.2972 82.2333 26.3384V19.5486H79.1158V37.3662H82.2106L82.2043 35.7017C82.2843 35.7998 82.37 35.8957 82.4608 35.9894C82.9538 36.4977 83.538 36.8958 84.2131 37.1841ZM87.3988 34.3056C86.8906 34.6166 86.3103 34.7721 85.658 34.7721C85.0132 34.7721 84.4216 34.6127 83.8831 34.2942C83.3445 33.9679 82.916 33.5243 82.5973 32.9629C82.2863 32.4017 82.1308 31.7644 82.1308 31.0514C82.1233 30.3384 82.275 29.7013 82.586 29.14C82.9046 28.5711 83.3331 28.1312 83.8717 27.8202C84.4102 27.5016 85.0057 27.3461 85.658 27.3537C86.3103 27.3461 86.8906 27.4978 87.3988 27.8088C87.9146 28.1122 88.309 28.5484 88.5821 29.1173C88.8627 29.6786 89.0031 30.3233 89.0031 31.0514C89.0031 31.7797 88.8627 32.4244 88.5821 32.9857C88.309 33.5471 87.9146 33.9869 87.3988 34.3056ZM43.074 20.618H46.6239L49.7993 32.215L53.1775 20.618H56.1357L59.7993 31.9823L62.8486 20.618H66.1026L61.3012 37.3662H58.2406L54.5151 26.2641L51.0953 37.3662H48.0006L43.074 20.618ZM71.3452 37.6619C70.1087 37.6695 68.9937 37.3964 68.0001 36.8428C67.0139 36.2814 66.2366 35.5039 65.6676 34.5103C65.1063 33.5166 64.8257 32.3826 64.8257 31.1083C64.8257 29.8719 65.1139 28.7531 65.6904 27.7519C66.2668 26.7506 67.0481 25.9694 68.0342 25.4081C69.0203 24.8468 70.1201 24.5661 71.3337 24.5661C72.6991 24.5661 73.8937 24.8695 74.9177 25.4763C75.9493 26.0831 76.7192 26.9441 77.2274 28.0591C77.7432 29.1665 77.9291 30.437 77.7849 31.8706H68.0391C68.0663 32.4418 68.2088 32.9614 68.4666 33.4294C68.7548 33.9451 69.1568 34.3471 69.6726 34.6354C70.1884 34.9236 70.7648 35.0678 71.4021 35.0678C71.8874 35.0601 72.3388 34.9768 72.7559 34.8175C73.1732 34.6506 73.5258 34.4269 73.8141 34.1461C74.1099 33.8655 74.3186 33.547 74.4399 33.1905H77.6939C77.4967 34.0628 77.1023 34.8403 76.5107 35.5229C75.9189 36.198 75.1757 36.7251 74.2806 37.1044C73.3856 37.4836 72.4071 37.6695 71.3452 37.6619ZM68.4779 28.7417C68.2962 29.0587 68.1702 29.4 68.1001 29.7658H74.5604C74.5136 29.3038 74.3709 28.8828 74.1327 28.5028C73.8596 28.0553 73.4879 27.7102 73.0177 27.4674C72.5474 27.2171 72.0164 27.092 71.4248 27.092C70.7952 27.092 70.2226 27.2361 69.7067 27.5243C69.1909 27.8126 68.7813 28.2184 68.4779 28.7417ZM94.5217 24.8278C94.5217 23.8114 94.7529 22.9088 95.2157 22.1199C95.6783 21.3235 96.3269 20.7053 97.1613 20.2653C98.0032 19.8178 98.9855 19.5865 100.108 19.5713V22.3361C99.5847 22.3437 99.1372 22.4537 98.7655 22.666C98.4014 22.8708 98.1208 23.1705 97.9235 23.5649C97.742 23.928 97.644 24.349 97.6297 24.8278H100.04V27.4561H97.6278V37.3662H94.5217V27.4561H92.5192V24.8278H94.5217ZM112.339 37.6391C111.072 37.6391 109.938 37.3622 108.937 36.8086C107.943 36.2472 107.162 35.4736 106.593 34.4874C106.032 33.4938 105.751 32.3674 105.751 31.1082C105.751 29.8416 106.032 28.7113 106.593 27.7177C107.162 26.7164 107.943 25.939 108.937 25.3852C109.938 24.8315 111.072 24.5547 112.339 24.5547C113.613 24.5547 114.751 24.8315 115.752 25.3852C116.761 25.939 117.546 26.7126 118.107 27.7063C118.668 28.7 118.953 29.8339 118.961 31.1082C118.953 32.3674 118.668 33.4938 118.107 34.4874C117.553 35.4736 116.772 36.2472 115.763 36.8086C114.755 37.3622 113.613 37.6391 112.339 37.6391ZM112.339 34.7833C113.006 34.7833 113.598 34.6316 114.114 34.3282C114.629 34.0172 115.028 33.5848 115.308 33.0311C115.589 32.4698 115.729 31.8288 115.729 31.1082C115.729 30.3801 115.589 29.7353 115.308 29.174C115.028 28.6127 114.629 28.1804 114.114 27.877C113.598 27.566 113.006 27.4105 112.339 27.4105C111.679 27.4105 111.091 27.566 110.575 27.877C110.067 28.1804 109.672 28.6127 109.392 29.174C109.111 29.7353 108.975 30.3801 108.982 31.1082C108.982 31.8288 109.123 32.4698 109.403 33.0311C109.691 33.5848 110.086 34.0172 110.586 34.3282C111.095 34.6316 111.679 34.7833 112.339 34.7833ZM122.317 24.8278H118.858L122.602 37.3661H125.628L128.09 29.3579L130.748 37.3661H133.729L137.484 24.8278H134.355L132.225 32.6321L129.871 24.8278H126.845L124.503 32.804L122.317 24.8278Z" fill="black"/>
</svg>
