<svg width="140" height="57" viewBox="0 0 140 57" fill="none" xmlns="http://www.w3.org/2000/svg">
<path fill-rule="evenodd" clip-rule="evenodd" d="M38.5722 17.3496L27.0627 39.8496H16.252L21.0687 30.5246H20.8526C16.8788 35.6831 10.9498 39.079 2.50195 39.8496V30.6537C2.50195 30.6537 7.90627 30.3345 11.0833 26.9943H2.50195V17.3498H12.1465V25.2823L12.3629 25.2814L16.3041 17.3498H23.598V25.232L23.8143 25.2316L27.9033 17.3496H38.5722ZM101.335 37.3661H104.441V19.5371H101.335V37.3661ZM84.2111 37.1841C84.8861 37.4647 85.5726 37.6051 86.2705 37.6051C87.4234 37.6051 88.455 37.3244 89.3653 36.7631C90.2754 36.2018 90.9809 35.4282 91.4815 34.4421C91.9821 33.4484 92.2324 32.3219 92.2324 31.0628C92.2324 29.8037 91.9745 28.6773 91.4588 27.6837C90.9429 26.69 90.2261 25.9201 89.3083 25.374C88.3905 24.8203 87.3475 24.5472 86.1794 24.5548C85.4361 24.5548 84.7231 24.6989 84.0404 24.9871C83.3578 25.2754 82.7889 25.685 82.3338 26.2159C82.2986 26.2564 82.2645 26.2972 82.2314 26.3384V19.5486H79.1139V37.3662H82.2086L82.2024 35.7017C82.2824 35.7998 82.368 35.8957 82.4589 35.9894C82.9519 36.4977 83.536 36.8958 84.2111 37.1841ZM87.3969 34.3056C86.8886 34.6166 86.3084 34.7721 85.656 34.7721C85.0113 34.7721 84.4196 34.6127 83.8811 34.2942C83.3425 33.9679 82.914 33.5243 82.5954 32.9629C82.2844 32.4017 82.1289 31.7644 82.1289 31.0514C82.1214 30.3384 82.273 29.7013 82.584 29.14C82.9026 28.5711 83.3311 28.1312 83.8698 27.8202C84.4083 27.5016 85.0038 27.3461 85.656 27.3537C86.3084 27.3461 86.8886 27.4978 87.3969 27.8088C87.9126 28.1122 88.307 28.5484 88.5801 29.1173C88.8608 29.6786 89.0011 30.3233 89.0011 31.0514C89.0011 31.7797 88.8608 32.4244 88.5801 32.9857C88.307 33.5471 87.9126 33.9869 87.3969 34.3056ZM43.072 20.618H46.6219L49.7974 32.215L53.1755 20.618H56.1338L59.7974 31.9823L62.8466 20.618H66.1006L61.2993 37.3662H58.2386L54.5131 26.2641L51.0934 37.3662H47.9986L43.072 20.618ZM71.3432 37.6619C70.1067 37.6695 68.9917 37.3964 67.9981 36.8428C67.012 36.2814 66.2346 35.5039 65.6656 34.5103C65.1044 33.5166 64.8237 32.3826 64.8237 31.1083C64.8237 29.8719 65.112 28.7531 65.6885 27.7519C66.2649 26.7506 67.0461 25.9694 68.0322 25.4081C69.0184 24.8468 70.1181 24.5661 71.3317 24.5661C72.6971 24.5661 73.8917 24.8695 74.9157 25.4763C75.9474 26.0831 76.7172 26.9441 77.2255 28.0591C77.7412 29.1665 77.9271 30.437 77.783 31.8706H68.0371C68.0644 32.4418 68.2069 32.9614 68.4646 33.4294C68.7529 33.9451 69.1549 34.3471 69.6706 34.6354C70.1865 34.9236 70.7629 35.0678 71.4001 35.0678C71.8855 35.0601 72.3369 34.9768 72.754 34.8175C73.1712 34.6506 73.5239 34.4269 73.8121 34.1461C74.108 33.8655 74.3166 33.547 74.438 33.1905H77.692C77.4947 34.0628 77.1004 34.8403 76.5087 35.5229C75.917 36.198 75.1737 36.7251 74.2786 37.1044C73.3836 37.4836 72.4051 37.6695 71.3432 37.6619ZM68.476 28.7417C68.2942 29.0587 68.1682 29.4 68.0981 29.7658H74.5585C74.5116 29.3038 74.369 28.8828 74.1307 28.5028C73.8576 28.0553 73.486 27.7102 73.0157 27.4674C72.5455 27.2171 72.0145 27.092 71.4229 27.092C70.7932 27.092 70.2206 27.2361 69.7047 27.5243C69.189 27.8126 68.7794 28.2184 68.476 28.7417ZM94.5197 24.8278C94.5197 23.8114 94.751 22.9088 95.2137 22.1199C95.6763 21.3235 96.325 20.7053 97.1593 20.2653C98.0012 19.8178 98.9836 19.5865 100.106 19.5713V22.3361C99.5827 22.3437 99.1352 22.4537 98.7636 22.666C98.3995 22.8708 98.1188 23.1705 97.9216 23.5649C97.7401 23.928 97.6421 24.349 97.6277 24.8278H100.038V27.4561H97.6258V37.3662H94.5197V27.4561H92.5172V24.8278H94.5197ZM112.337 37.6391C111.07 37.6391 109.936 37.3622 108.935 36.8086C107.941 36.2472 107.16 35.4736 106.591 34.4874C106.03 33.4938 105.749 32.3674 105.749 31.1082C105.749 29.8416 106.03 28.7113 106.591 27.7177C107.16 26.7164 107.941 25.939 108.935 25.3852C109.936 24.8315 111.07 24.5547 112.337 24.5547C113.611 24.5547 114.749 24.8315 115.75 25.3852C116.759 25.939 117.544 26.7126 118.105 27.7063C118.667 28.7 118.951 29.8339 118.959 31.1082C118.951 32.3674 118.667 33.4938 118.105 34.4874C117.552 35.4736 116.77 36.2472 115.761 36.8086C114.753 37.3622 113.611 37.6391 112.337 37.6391ZM112.337 34.7833C113.004 34.7833 113.596 34.6316 114.112 34.3282C114.628 34.0172 115.026 33.5848 115.306 33.0311C115.587 32.4698 115.727 31.8288 115.727 31.1082C115.727 30.3801 115.587 29.7353 115.306 29.174C115.026 28.6127 114.628 28.1804 114.112 27.877C113.596 27.566 113.004 27.4105 112.337 27.4105C111.677 27.4105 111.089 27.566 110.573 27.877C110.065 28.1804 109.671 28.6127 109.39 29.174C109.109 29.7353 108.973 30.3801 108.98 31.1082C108.98 31.8288 109.121 32.4698 109.401 33.0311C109.69 33.5848 110.084 34.0172 110.585 34.3282C111.093 34.6316 111.677 34.7833 112.337 34.7833ZM122.315 24.8278H118.856L122.6 37.3661H125.626L128.088 29.3579L130.746 37.3661H133.727L137.482 24.8278H134.353L132.223 32.6321L129.869 24.8278H126.843L124.501 32.804L122.315 24.8278Z" fill="black"/>
<path d="M38.5722 17.3496L27.0627 39.8496H16.252L21.0687 30.5246H20.8526C16.8788 35.6831 10.9498 39.079 2.50195 39.8496V30.6537C2.50195 30.6537 7.90627 30.3345 11.0833 26.9943H2.50195V17.3498H12.1465V25.2823L12.3629 25.2814L16.3041 17.3498H23.598V25.232L23.8143 25.2316L27.9033 17.3496H38.5722ZM101.335 37.3661H104.441V19.5371H101.335V37.3661ZM84.2111 37.1841C84.8861 37.4647 85.5726 37.6051 86.2705 37.6051C87.4234 37.6051 88.455 37.3244 89.3653 36.7631C90.2754 36.2018 90.9809 35.4282 91.4815 34.4421C91.9821 33.4484 92.2324 32.3219 92.2324 31.0628C92.2324 29.8037 91.9745 28.6773 91.4588 27.6837C90.9429 26.69 90.2261 25.9201 89.3083 25.374C88.3905 24.8203 87.3475 24.5472 86.1794 24.5548C85.4361 24.5548 84.7231 24.6989 84.0404 24.9871C83.3578 25.2754 82.7889 25.685 82.3338 26.2159C82.2986 26.2564 82.2645 26.2972 82.2314 26.3384V19.5486H79.1139V37.3662H82.2086L82.2024 35.7017C82.2824 35.7998 82.368 35.8957 82.4589 35.9894C82.9519 36.4977 83.536 36.8958 84.2111 37.1841ZM87.3969 34.3056C86.8886 34.6166 86.3084 34.7721 85.656 34.7721C85.0113 34.7721 84.4196 34.6127 83.8811 34.2942C83.3425 33.9679 82.914 33.5243 82.5954 32.9629C82.2844 32.4017 82.1289 31.7644 82.1289 31.0514C82.1214 30.3384 82.273 29.7013 82.584 29.14C82.9026 28.5711 83.3311 28.1312 83.8698 27.8202C84.4083 27.5016 85.0038 27.3461 85.656 27.3537C86.3084 27.3461 86.8886 27.4978 87.3969 27.8088C87.9126 28.1122 88.307 28.5484 88.5801 29.1173C88.8608 29.6786 89.0011 30.3233 89.0011 31.0514C89.0011 31.7797 88.8608 32.4244 88.5801 32.9857C88.307 33.5471 87.9126 33.9869 87.3969 34.3056ZM43.072 20.618H46.6219L49.7974 32.215L53.1755 20.618H56.1338L59.7974 31.9823L62.8466 20.618H66.1006L61.2993 37.3662H58.2386L54.5131 26.2641L51.0934 37.3662H47.9986L43.072 20.618ZM71.3432 37.6619C70.1067 37.6695 68.9917 37.3964 67.9981 36.8428C67.012 36.2814 66.2346 35.5039 65.6656 34.5103C65.1044 33.5166 64.8237 32.3826 64.8237 31.1083C64.8237 29.8719 65.112 28.7531 65.6885 27.7519C66.2649 26.7506 67.0461 25.9694 68.0322 25.4081C69.0184 24.8468 70.1181 24.5661 71.3317 24.5661C72.6971 24.5661 73.8917 24.8695 74.9157 25.4763C75.9474 26.0831 76.7172 26.9441 77.2255 28.0591C77.7412 29.1665 77.9271 30.437 77.783 31.8706H68.0371C68.0644 32.4418 68.2069 32.9614 68.4646 33.4294C68.7529 33.9451 69.1549 34.3471 69.6706 34.6354C70.1865 34.9236 70.7629 35.0678 71.4001 35.0678C71.8855 35.0601 72.3369 34.9768 72.754 34.8175C73.1712 34.6506 73.5239 34.4269 73.8121 34.1461C74.108 33.8655 74.3166 33.547 74.438 33.1905H77.692C77.4947 34.0628 77.1004 34.8403 76.5087 35.5229C75.917 36.198 75.1737 36.7251 74.2786 37.1044C73.3836 37.4836 72.4051 37.6695 71.3432 37.6619ZM68.476 28.7417C68.2942 29.0587 68.1682 29.4 68.0981 29.7658H74.5585C74.5116 29.3038 74.369 28.8828 74.1307 28.5028C73.8576 28.0553 73.486 27.7102 73.0157 27.4674C72.5455 27.2171 72.0145 27.092 71.4229 27.092C70.7932 27.092 70.2206 27.2361 69.7047 27.5243C69.189 27.8126 68.7794 28.2184 68.476 28.7417ZM94.5197 24.8278C94.5197 23.8114 94.751 22.9088 95.2137 22.1199C95.6763 21.3235 96.325 20.7053 97.1593 20.2653C98.0012 19.8178 98.9836 19.5865 100.106 19.5713V22.3361C99.5827 22.3437 99.1352 22.4537 98.7636 22.666C98.3995 22.8708 98.1188 23.1705 97.9216 23.5649C97.7401 23.928 97.6421 24.349 97.6277 24.8278H100.038V27.4561H97.6258V37.3662H94.5197V27.4561H92.5172V24.8278H94.5197ZM112.337 37.6391C111.07 37.6391 109.936 37.3622 108.935 36.8086C107.941 36.2472 107.16 35.4736 106.591 34.4874C106.03 33.4938 105.749 32.3674 105.749 31.1082C105.749 29.8416 106.03 28.7113 106.591 27.7177C107.16 26.7164 107.941 25.939 108.935 25.3852C109.936 24.8315 111.07 24.5547 112.337 24.5547C113.611 24.5547 114.749 24.8315 115.75 25.3852C116.759 25.939 117.544 26.7126 118.105 27.7063C118.667 28.7 118.951 29.8339 118.959 31.1082C118.951 32.3674 118.667 33.4938 118.105 34.4874C117.552 35.4736 116.77 36.2472 115.761 36.8086C114.753 37.3622 113.611 37.6391 112.337 37.6391ZM112.337 34.7833C113.004 34.7833 113.596 34.6316 114.112 34.3282C114.628 34.0172 115.026 33.5848 115.306 33.0311C115.587 32.4698 115.727 31.8288 115.727 31.1082C115.727 30.3801 115.587 29.7353 115.306 29.174C115.026 28.6127 114.628 28.1804 114.112 27.877C113.596 27.566 113.004 27.4105 112.337 27.4105C111.677 27.4105 111.089 27.566 110.573 27.877C110.065 28.1804 109.671 28.6127 109.39 29.174C109.109 29.7353 108.973 30.3801 108.98 31.1082C108.98 31.8288 109.121 32.4698 109.401 33.0311C109.69 33.5848 110.084 34.0172 110.585 34.3282C111.093 34.6316 111.677 34.7833 112.337 34.7833ZM122.315 24.8278H118.856L122.6 37.3661H125.626L128.088 29.3579L130.746 37.3661H133.727L137.482 24.8278H134.353L132.223 32.6321L129.869 24.8278H126.843L124.501 32.804L122.315 24.8278Z" fill="black"/>
<path fill-rule="evenodd" clip-rule="evenodd" d="M38.5722 17.3496L27.0627 39.8496H16.252L21.0687 30.5246H20.8526C16.8788 35.6831 10.9498 39.079 2.50195 39.8496V30.6537C2.50195 30.6537 7.90627 30.3345 11.0833 26.9943H2.50195V17.3498H12.1465V25.2823L12.3629 25.2814L16.3041 17.3498H23.598V25.232L23.8143 25.2316L27.9033 17.3496H38.5722ZM101.335 37.3661H104.441V19.5371H101.335V37.3661ZM84.2111 37.1841C84.8861 37.4647 85.5726 37.6051 86.2705 37.6051C87.4234 37.6051 88.455 37.3244 89.3653 36.7631C90.2754 36.2018 90.9809 35.4282 91.4815 34.4421C91.9821 33.4484 92.2324 32.3219 92.2324 31.0628C92.2324 29.8037 91.9745 28.6773 91.4588 27.6837C90.9429 26.69 90.2261 25.9201 89.3083 25.374C88.3905 24.8203 87.3475 24.5472 86.1794 24.5548C85.4361 24.5548 84.7231 24.6989 84.0404 24.9871C83.3578 25.2754 82.7889 25.685 82.3338 26.2159C82.2986 26.2564 82.2645 26.2972 82.2314 26.3384V19.5486H79.1139V37.3662H82.2086L82.2024 35.7017C82.2824 35.7998 82.368 35.8957 82.4589 35.9894C82.9519 36.4977 83.536 36.8958 84.2111 37.1841ZM87.3969 34.3056C86.8886 34.6166 86.3084 34.7721 85.656 34.7721C85.0113 34.7721 84.4196 34.6127 83.8811 34.2942C83.3425 33.9679 82.914 33.5243 82.5954 32.9629C82.2844 32.4017 82.1289 31.7644 82.1289 31.0514C82.1214 30.3384 82.273 29.7013 82.584 29.14C82.9026 28.5711 83.3311 28.1312 83.8698 27.8202C84.4083 27.5016 85.0038 27.3461 85.656 27.3537C86.3084 27.3461 86.8886 27.4978 87.3969 27.8088C87.9126 28.1122 88.307 28.5484 88.5801 29.1173C88.8608 29.6786 89.0011 30.3233 89.0011 31.0514C89.0011 31.7797 88.8608 32.4244 88.5801 32.9857C88.307 33.5471 87.9126 33.9869 87.3969 34.3056ZM43.072 20.618H46.6219L49.7974 32.215L53.1755 20.618H56.1338L59.7974 31.9823L62.8466 20.618H66.1006L61.2993 37.3662H58.2386L54.5131 26.2641L51.0934 37.3662H47.9986L43.072 20.618ZM71.3432 37.6619C70.1067 37.6695 68.9917 37.3964 67.9981 36.8428C67.012 36.2814 66.2346 35.5039 65.6656 34.5103C65.1044 33.5166 64.8237 32.3826 64.8237 31.1083C64.8237 29.8719 65.112 28.7531 65.6885 27.7519C66.2649 26.7506 67.0461 25.9694 68.0322 25.4081C69.0184 24.8468 70.1181 24.5661 71.3317 24.5661C72.6971 24.5661 73.8917 24.8695 74.9157 25.4763C75.9474 26.0831 76.7172 26.9441 77.2255 28.0591C77.7412 29.1665 77.9271 30.437 77.783 31.8706H68.0371C68.0644 32.4418 68.2069 32.9614 68.4646 33.4294C68.7529 33.9451 69.1549 34.3471 69.6706 34.6354C70.1865 34.9236 70.7629 35.0678 71.4001 35.0678C71.8855 35.0601 72.3369 34.9768 72.754 34.8175C73.1712 34.6506 73.5239 34.4269 73.8121 34.1461C74.108 33.8655 74.3166 33.547 74.438 33.1905H77.692C77.4947 34.0628 77.1004 34.8403 76.5087 35.5229C75.917 36.198 75.1737 36.7251 74.2786 37.1044C73.3836 37.4836 72.4051 37.6695 71.3432 37.6619ZM68.476 28.7417C68.2942 29.0587 68.1682 29.4 68.0981 29.7658H74.5585C74.5116 29.3038 74.369 28.8828 74.1307 28.5028C73.8576 28.0553 73.486 27.7102 73.0157 27.4674C72.5455 27.2171 72.0145 27.092 71.4229 27.092C70.7932 27.092 70.2206 27.2361 69.7047 27.5243C69.189 27.8126 68.7794 28.2184 68.476 28.7417ZM94.5197 24.8278C94.5197 23.8114 94.751 22.9088 95.2137 22.1199C95.6763 21.3235 96.325 20.7053 97.1593 20.2653C98.0012 19.8178 98.9836 19.5865 100.106 19.5713V22.3361C99.5827 22.3437 99.1352 22.4537 98.7636 22.666C98.3995 22.8708 98.1188 23.1705 97.9216 23.5649C97.7401 23.928 97.6421 24.349 97.6277 24.8278H100.038V27.4561H97.6258V37.3662H94.5197V27.4561H92.5172V24.8278H94.5197ZM112.337 37.6391C111.07 37.6391 109.936 37.3622 108.935 36.8086C107.941 36.2472 107.16 35.4736 106.591 34.4874C106.03 33.4938 105.749 32.3674 105.749 31.1082C105.749 29.8416 106.03 28.7113 106.591 27.7177C107.16 26.7164 107.941 25.939 108.935 25.3852C109.936 24.8315 111.07 24.5547 112.337 24.5547C113.611 24.5547 114.749 24.8315 115.75 25.3852C116.759 25.939 117.544 26.7126 118.105 27.7063C118.667 28.7 118.951 29.8339 118.959 31.1082C118.951 32.3674 118.667 33.4938 118.105 34.4874C117.552 35.4736 116.77 36.2472 115.761 36.8086C114.753 37.3622 113.611 37.6391 112.337 37.6391ZM112.337 34.7833C113.004 34.7833 113.596 34.6316 114.112 34.3282C114.628 34.0172 115.026 33.5848 115.306 33.0311C115.587 32.4698 115.727 31.8288 115.727 31.1082C115.727 30.3801 115.587 29.7353 115.306 29.174C115.026 28.6127 114.628 28.1804 114.112 27.877C113.596 27.566 113.004 27.4105 112.337 27.4105C111.677 27.4105 111.089 27.566 110.573 27.877C110.065 28.1804 109.671 28.6127 109.39 29.174C109.109 29.7353 108.973 30.3801 108.98 31.1082C108.98 31.8288 109.121 32.4698 109.401 33.0311C109.69 33.5848 110.084 34.0172 110.585 34.3282C111.093 34.6316 111.677 34.7833 112.337 34.7833ZM122.315 24.8278H118.856L122.6 37.3661H125.626L128.088 29.3579L130.746 37.3661H133.727L137.482 24.8278H134.353L132.223 32.6321L129.869 24.8278H126.843L124.501 32.804L122.315 24.8278Z" fill="black"/>
<path d="M38.5722 17.3496L27.0627 39.8496H16.252L21.0687 30.5246H20.8526C16.8788 35.6831 10.9498 39.079 2.50195 39.8496V30.6537C2.50195 30.6537 7.90627 30.3345 11.0833 26.9943H2.50195V17.3498H12.1465V25.2823L12.3629 25.2814L16.3041 17.3498H23.598V25.232L23.8143 25.2316L27.9033 17.3496H38.5722ZM101.335 37.3661H104.441V19.5371H101.335V37.3661ZM84.2111 37.1841C84.8861 37.4647 85.5726 37.6051 86.2705 37.6051C87.4234 37.6051 88.455 37.3244 89.3653 36.7631C90.2754 36.2018 90.9809 35.4282 91.4815 34.4421C91.9821 33.4484 92.2324 32.3219 92.2324 31.0628C92.2324 29.8037 91.9745 28.6773 91.4588 27.6837C90.9429 26.69 90.2261 25.9201 89.3083 25.374C88.3905 24.8203 87.3475 24.5472 86.1794 24.5548C85.4361 24.5548 84.7231 24.6989 84.0404 24.9871C83.3578 25.2754 82.7889 25.685 82.3338 26.2159C82.2986 26.2564 82.2645 26.2972 82.2314 26.3384V19.5486H79.1139V37.3662H82.2086L82.2024 35.7017C82.2824 35.7998 82.368 35.8957 82.4589 35.9894C82.9519 36.4977 83.536 36.8958 84.2111 37.1841ZM87.3969 34.3056C86.8886 34.6166 86.3084 34.7721 85.656 34.7721C85.0113 34.7721 84.4196 34.6127 83.8811 34.2942C83.3425 33.9679 82.914 33.5243 82.5954 32.9629C82.2844 32.4017 82.1289 31.7644 82.1289 31.0514C82.1214 30.3384 82.273 29.7013 82.584 29.14C82.9026 28.5711 83.3311 28.1312 83.8698 27.8202C84.4083 27.5016 85.0038 27.3461 85.656 27.3537C86.3084 27.3461 86.8886 27.4978 87.3969 27.8088C87.9126 28.1122 88.307 28.5484 88.5801 29.1173C88.8608 29.6786 89.0011 30.3233 89.0011 31.0514C89.0011 31.7797 88.8608 32.4244 88.5801 32.9857C88.307 33.5471 87.9126 33.9869 87.3969 34.3056ZM43.072 20.618H46.6219L49.7974 32.215L53.1755 20.618H56.1338L59.7974 31.9823L62.8466 20.618H66.1006L61.2993 37.3662H58.2386L54.5131 26.2641L51.0934 37.3662H47.9986L43.072 20.618ZM71.3432 37.6619C70.1067 37.6695 68.9917 37.3964 67.9981 36.8428C67.012 36.2814 66.2346 35.5039 65.6656 34.5103C65.1044 33.5166 64.8237 32.3826 64.8237 31.1083C64.8237 29.8719 65.112 28.7531 65.6885 27.7519C66.2649 26.7506 67.0461 25.9694 68.0322 25.4081C69.0184 24.8468 70.1181 24.5661 71.3317 24.5661C72.6971 24.5661 73.8917 24.8695 74.9157 25.4763C75.9474 26.0831 76.7172 26.9441 77.2255 28.0591C77.7412 29.1665 77.9271 30.437 77.783 31.8706H68.0371C68.0644 32.4418 68.2069 32.9614 68.4646 33.4294C68.7529 33.9451 69.1549 34.3471 69.6706 34.6354C70.1865 34.9236 70.7629 35.0678 71.4001 35.0678C71.8855 35.0601 72.3369 34.9768 72.754 34.8175C73.1712 34.6506 73.5239 34.4269 73.8121 34.1461C74.108 33.8655 74.3166 33.547 74.438 33.1905H77.692C77.4947 34.0628 77.1004 34.8403 76.5087 35.5229C75.917 36.198 75.1737 36.7251 74.2786 37.1044C73.3836 37.4836 72.4051 37.6695 71.3432 37.6619ZM68.476 28.7417C68.2942 29.0587 68.1682 29.4 68.0981 29.7658H74.5585C74.5116 29.3038 74.369 28.8828 74.1307 28.5028C73.8576 28.0553 73.486 27.7102 73.0157 27.4674C72.5455 27.2171 72.0145 27.092 71.4229 27.092C70.7932 27.092 70.2206 27.2361 69.7047 27.5243C69.189 27.8126 68.7794 28.2184 68.476 28.7417ZM94.5197 24.8278C94.5197 23.8114 94.751 22.9088 95.2137 22.1199C95.6763 21.3235 96.325 20.7053 97.1593 20.2653C98.0012 19.8178 98.9836 19.5865 100.106 19.5713V22.3361C99.5827 22.3437 99.1352 22.4537 98.7636 22.666C98.3995 22.8708 98.1188 23.1705 97.9216 23.5649C97.7401 23.928 97.6421 24.349 97.6277 24.8278H100.038V27.4561H97.6258V37.3662H94.5197V27.4561H92.5172V24.8278H94.5197ZM112.337 37.6391C111.07 37.6391 109.936 37.3622 108.935 36.8086C107.941 36.2472 107.16 35.4736 106.591 34.4874C106.03 33.4938 105.749 32.3674 105.749 31.1082C105.749 29.8416 106.03 28.7113 106.591 27.7177C107.16 26.7164 107.941 25.939 108.935 25.3852C109.936 24.8315 111.07 24.5547 112.337 24.5547C113.611 24.5547 114.749 24.8315 115.75 25.3852C116.759 25.939 117.544 26.7126 118.105 27.7063C118.667 28.7 118.951 29.8339 118.959 31.1082C118.951 32.3674 118.667 33.4938 118.105 34.4874C117.552 35.4736 116.77 36.2472 115.761 36.8086C114.753 37.3622 113.611 37.6391 112.337 37.6391ZM112.337 34.7833C113.004 34.7833 113.596 34.6316 114.112 34.3282C114.628 34.0172 115.026 33.5848 115.306 33.0311C115.587 32.4698 115.727 31.8288 115.727 31.1082C115.727 30.3801 115.587 29.7353 115.306 29.174C115.026 28.6127 114.628 28.1804 114.112 27.877C113.596 27.566 113.004 27.4105 112.337 27.4105C111.677 27.4105 111.089 27.566 110.573 27.877C110.065 28.1804 109.671 28.6127 109.39 29.174C109.109 29.7353 108.973 30.3801 108.98 31.1082C108.98 31.8288 109.121 32.4698 109.401 33.0311C109.69 33.5848 110.084 34.0172 110.585 34.3282C111.093 34.6316 111.677 34.7833 112.337 34.7833ZM122.315 24.8278H118.856L122.6 37.3661H125.626L128.088 29.3579L130.746 37.3661H133.727L137.482 24.8278H134.353L132.223 32.6321L129.869 24.8278H126.843L124.501 32.804L122.315 24.8278Z" fill="black"/>
<path fill-rule="evenodd" clip-rule="evenodd" d="M38.5722 17.3496L27.0627 39.8496H16.252L21.0687 30.5246H20.8526C16.8788 35.6831 10.9498 39.079 2.50195 39.8496V30.6537C2.50195 30.6537 7.90627 30.3345 11.0833 26.9943H2.50195V17.3498H12.1465V25.2823L12.3629 25.2814L16.3041 17.3498H23.598V25.232L23.8143 25.2316L27.9033 17.3496H38.5722ZM101.335 37.3661H104.441V19.5371H101.335V37.3661ZM84.2111 37.1841C84.8861 37.4647 85.5726 37.6051 86.2705 37.6051C87.4234 37.6051 88.455 37.3244 89.3653 36.7631C90.2754 36.2018 90.9809 35.4282 91.4815 34.4421C91.9821 33.4484 92.2324 32.3219 92.2324 31.0628C92.2324 29.8037 91.9745 28.6773 91.4588 27.6837C90.9429 26.69 90.2261 25.9201 89.3083 25.374C88.3905 24.8203 87.3475 24.5472 86.1794 24.5548C85.4361 24.5548 84.7231 24.6989 84.0404 24.9871C83.3578 25.2754 82.7889 25.685 82.3338 26.2159C82.2986 26.2564 82.2645 26.2972 82.2314 26.3384V19.5486H79.1139V37.3662H82.2086L82.2024 35.7017C82.2824 35.7998 82.368 35.8957 82.4589 35.9894C82.9519 36.4977 83.536 36.8958 84.2111 37.1841ZM87.3969 34.3056C86.8886 34.6166 86.3084 34.7721 85.656 34.7721C85.0113 34.7721 84.4196 34.6127 83.8811 34.2942C83.3425 33.9679 82.914 33.5243 82.5954 32.9629C82.2844 32.4017 82.1289 31.7644 82.1289 31.0514C82.1214 30.3384 82.273 29.7013 82.584 29.14C82.9026 28.5711 83.3311 28.1312 83.8698 27.8202C84.4083 27.5016 85.0038 27.3461 85.656 27.3537C86.3084 27.3461 86.8886 27.4978 87.3969 27.8088C87.9126 28.1122 88.307 28.5484 88.5801 29.1173C88.8608 29.6786 89.0011 30.3233 89.0011 31.0514C89.0011 31.7797 88.8608 32.4244 88.5801 32.9857C88.307 33.5471 87.9126 33.9869 87.3969 34.3056ZM43.072 20.618H46.6219L49.7974 32.215L53.1755 20.618H56.1338L59.7974 31.9823L62.8466 20.618H66.1006L61.2993 37.3662H58.2386L54.5131 26.2641L51.0934 37.3662H47.9986L43.072 20.618ZM71.3432 37.6619C70.1067 37.6695 68.9917 37.3964 67.9981 36.8428C67.012 36.2814 66.2346 35.5039 65.6656 34.5103C65.1044 33.5166 64.8237 32.3826 64.8237 31.1083C64.8237 29.8719 65.112 28.7531 65.6885 27.7519C66.2649 26.7506 67.0461 25.9694 68.0322 25.4081C69.0184 24.8468 70.1181 24.5661 71.3317 24.5661C72.6971 24.5661 73.8917 24.8695 74.9157 25.4763C75.9474 26.0831 76.7172 26.9441 77.2255 28.0591C77.7412 29.1665 77.9271 30.437 77.783 31.8706H68.0371C68.0644 32.4418 68.2069 32.9614 68.4646 33.4294C68.7529 33.9451 69.1549 34.3471 69.6706 34.6354C70.1865 34.9236 70.7629 35.0678 71.4001 35.0678C71.8855 35.0601 72.3369 34.9768 72.754 34.8175C73.1712 34.6506 73.5239 34.4269 73.8121 34.1461C74.108 33.8655 74.3166 33.547 74.438 33.1905H77.692C77.4947 34.0628 77.1004 34.8403 76.5087 35.5229C75.917 36.198 75.1737 36.7251 74.2786 37.1044C73.3836 37.4836 72.4051 37.6695 71.3432 37.6619ZM68.476 28.7417C68.2942 29.0587 68.1682 29.4 68.0981 29.7658H74.5585C74.5116 29.3038 74.369 28.8828 74.1307 28.5028C73.8576 28.0553 73.486 27.7102 73.0157 27.4674C72.5455 27.2171 72.0145 27.092 71.4229 27.092C70.7932 27.092 70.2206 27.2361 69.7047 27.5243C69.189 27.8126 68.7794 28.2184 68.476 28.7417ZM94.5197 24.8278C94.5197 23.8114 94.751 22.9088 95.2137 22.1199C95.6763 21.3235 96.325 20.7053 97.1593 20.2653C98.0012 19.8178 98.9836 19.5865 100.106 19.5713V22.3361C99.5827 22.3437 99.1352 22.4537 98.7636 22.666C98.3995 22.8708 98.1188 23.1705 97.9216 23.5649C97.7401 23.928 97.6421 24.349 97.6277 24.8278H100.038V27.4561H97.6258V37.3662H94.5197V27.4561H92.5172V24.8278H94.5197ZM112.337 37.6391C111.07 37.6391 109.936 37.3622 108.935 36.8086C107.941 36.2472 107.16 35.4736 106.591 34.4874C106.03 33.4938 105.749 32.3674 105.749 31.1082C105.749 29.8416 106.03 28.7113 106.591 27.7177C107.16 26.7164 107.941 25.939 108.935 25.3852C109.936 24.8315 111.07 24.5547 112.337 24.5547C113.611 24.5547 114.749 24.8315 115.75 25.3852C116.759 25.939 117.544 26.7126 118.105 27.7063C118.667 28.7 118.951 29.8339 118.959 31.1082C118.951 32.3674 118.667 33.4938 118.105 34.4874C117.552 35.4736 116.77 36.2472 115.761 36.8086C114.753 37.3622 113.611 37.6391 112.337 37.6391ZM112.337 34.7833C113.004 34.7833 113.596 34.6316 114.112 34.3282C114.628 34.0172 115.026 33.5848 115.306 33.0311C115.587 32.4698 115.727 31.8288 115.727 31.1082C115.727 30.3801 115.587 29.7353 115.306 29.174C115.026 28.6127 114.628 28.1804 114.112 27.877C113.596 27.566 113.004 27.4105 112.337 27.4105C111.677 27.4105 111.089 27.566 110.573 27.877C110.065 28.1804 109.671 28.6127 109.39 29.174C109.109 29.7353 108.973 30.3801 108.98 31.1082C108.98 31.8288 109.121 32.4698 109.401 33.0311C109.69 33.5848 110.084 34.0172 110.585 34.3282C111.093 34.6316 111.677 34.7833 112.337 34.7833ZM122.315 24.8278H118.856L122.6 37.3661H125.626L128.088 29.3579L130.746 37.3661H133.727L137.482 24.8278H134.353L132.223 32.6321L129.869 24.8278H126.843L124.501 32.804L122.315 24.8278Z" fill="black"/>
<path d="M38.5722 17.3496L27.0627 39.8496H16.252L21.0687 30.5246H20.8526C16.8788 35.6831 10.9498 39.079 2.50195 39.8496V30.6537C2.50195 30.6537 7.90627 30.3345 11.0833 26.9943H2.50195V17.3498H12.1465V25.2823L12.3629 25.2814L16.3041 17.3498H23.598V25.232L23.8143 25.2316L27.9033 17.3496H38.5722ZM101.335 37.3661H104.441V19.5371H101.335V37.3661ZM84.2111 37.1841C84.8861 37.4647 85.5726 37.6051 86.2705 37.6051C87.4234 37.6051 88.455 37.3244 89.3653 36.7631C90.2754 36.2018 90.9809 35.4282 91.4815 34.4421C91.9821 33.4484 92.2324 32.3219 92.2324 31.0628C92.2324 29.8037 91.9745 28.6773 91.4588 27.6837C90.9429 26.69 90.2261 25.9201 89.3083 25.374C88.3905 24.8203 87.3475 24.5472 86.1794 24.5548C85.4361 24.5548 84.7231 24.6989 84.0404 24.9871C83.3578 25.2754 82.7889 25.685 82.3338 26.2159C82.2986 26.2564 82.2645 26.2972 82.2314 26.3384V19.5486H79.1139V37.3662H82.2086L82.2024 35.7017C82.2824 35.7998 82.368 35.8957 82.4589 35.9894C82.9519 36.4977 83.536 36.8958 84.2111 37.1841ZM87.3969 34.3056C86.8886 34.6166 86.3084 34.7721 85.656 34.7721C85.0113 34.7721 84.4196 34.6127 83.8811 34.2942C83.3425 33.9679 82.914 33.5243 82.5954 32.9629C82.2844 32.4017 82.1289 31.7644 82.1289 31.0514C82.1214 30.3384 82.273 29.7013 82.584 29.14C82.9026 28.5711 83.3311 28.1312 83.8698 27.8202C84.4083 27.5016 85.0038 27.3461 85.656 27.3537C86.3084 27.3461 86.8886 27.4978 87.3969 27.8088C87.9126 28.1122 88.307 28.5484 88.5801 29.1173C88.8608 29.6786 89.0011 30.3233 89.0011 31.0514C89.0011 31.7797 88.8608 32.4244 88.5801 32.9857C88.307 33.5471 87.9126 33.9869 87.3969 34.3056ZM43.072 20.618H46.6219L49.7974 32.215L53.1755 20.618H56.1338L59.7974 31.9823L62.8466 20.618H66.1006L61.2993 37.3662H58.2386L54.5131 26.2641L51.0934 37.3662H47.9986L43.072 20.618ZM71.3432 37.6619C70.1067 37.6695 68.9917 37.3964 67.9981 36.8428C67.012 36.2814 66.2346 35.5039 65.6656 34.5103C65.1044 33.5166 64.8237 32.3826 64.8237 31.1083C64.8237 29.8719 65.112 28.7531 65.6885 27.7519C66.2649 26.7506 67.0461 25.9694 68.0322 25.4081C69.0184 24.8468 70.1181 24.5661 71.3317 24.5661C72.6971 24.5661 73.8917 24.8695 74.9157 25.4763C75.9474 26.0831 76.7172 26.9441 77.2255 28.0591C77.7412 29.1665 77.9271 30.437 77.783 31.8706H68.0371C68.0644 32.4418 68.2069 32.9614 68.4646 33.4294C68.7529 33.9451 69.1549 34.3471 69.6706 34.6354C70.1865 34.9236 70.7629 35.0678 71.4001 35.0678C71.8855 35.0601 72.3369 34.9768 72.754 34.8175C73.1712 34.6506 73.5239 34.4269 73.8121 34.1461C74.108 33.8655 74.3166 33.547 74.438 33.1905H77.692C77.4947 34.0628 77.1004 34.8403 76.5087 35.5229C75.917 36.198 75.1737 36.7251 74.2786 37.1044C73.3836 37.4836 72.4051 37.6695 71.3432 37.6619ZM68.476 28.7417C68.2942 29.0587 68.1682 29.4 68.0981 29.7658H74.5585C74.5116 29.3038 74.369 28.8828 74.1307 28.5028C73.8576 28.0553 73.486 27.7102 73.0157 27.4674C72.5455 27.2171 72.0145 27.092 71.4229 27.092C70.7932 27.092 70.2206 27.2361 69.7047 27.5243C69.189 27.8126 68.7794 28.2184 68.476 28.7417ZM94.5197 24.8278C94.5197 23.8114 94.751 22.9088 95.2137 22.1199C95.6763 21.3235 96.325 20.7053 97.1593 20.2653C98.0012 19.8178 98.9836 19.5865 100.106 19.5713V22.3361C99.5827 22.3437 99.1352 22.4537 98.7636 22.666C98.3995 22.8708 98.1188 23.1705 97.9216 23.5649C97.7401 23.928 97.6421 24.349 97.6277 24.8278H100.038V27.4561H97.6258V37.3662H94.5197V27.4561H92.5172V24.8278H94.5197ZM112.337 37.6391C111.07 37.6391 109.936 37.3622 108.935 36.8086C107.941 36.2472 107.16 35.4736 106.591 34.4874C106.03 33.4938 105.749 32.3674 105.749 31.1082C105.749 29.8416 106.03 28.7113 106.591 27.7177C107.16 26.7164 107.941 25.939 108.935 25.3852C109.936 24.8315 111.07 24.5547 112.337 24.5547C113.611 24.5547 114.749 24.8315 115.75 25.3852C116.759 25.939 117.544 26.7126 118.105 27.7063C118.667 28.7 118.951 29.8339 118.959 31.1082C118.951 32.3674 118.667 33.4938 118.105 34.4874C117.552 35.4736 116.77 36.2472 115.761 36.8086C114.753 37.3622 113.611 37.6391 112.337 37.6391ZM112.337 34.7833C113.004 34.7833 113.596 34.6316 114.112 34.3282C114.628 34.0172 115.026 33.5848 115.306 33.0311C115.587 32.4698 115.727 31.8288 115.727 31.1082C115.727 30.3801 115.587 29.7353 115.306 29.174C115.026 28.6127 114.628 28.1804 114.112 27.877C113.596 27.566 113.004 27.4105 112.337 27.4105C111.677 27.4105 111.089 27.566 110.573 27.877C110.065 28.1804 109.671 28.6127 109.39 29.174C109.109 29.7353 108.973 30.3801 108.98 31.1082C108.98 31.8288 109.121 32.4698 109.401 33.0311C109.69 33.5848 110.084 34.0172 110.585 34.3282C111.093 34.6316 111.677 34.7833 112.337 34.7833ZM122.315 24.8278H118.856L122.6 37.3661H125.626L128.088 29.3579L130.746 37.3661H133.727L137.482 24.8278H134.353L132.223 32.6321L129.869 24.8278H126.843L124.501 32.804L122.315 24.8278Z" fill="black"/>
<path fill-rule="evenodd" clip-rule="evenodd" d="M38.5722 17.3496L27.0627 39.8496H16.252L21.0687 30.5246H20.8526C16.8788 35.6831 10.9498 39.079 2.50195 39.8496V30.6537C2.50195 30.6537 7.90627 30.3345 11.0833 26.9943H2.50195V17.3498H12.1465V25.2823L12.3629 25.2814L16.3041 17.3498H23.598V25.232L23.8143 25.2316L27.9033 17.3496H38.5722ZM101.335 37.3661H104.441V19.5371H101.335V37.3661ZM84.2111 37.1841C84.8861 37.4647 85.5726 37.6051 86.2705 37.6051C87.4234 37.6051 88.455 37.3244 89.3653 36.7631C90.2754 36.2018 90.9809 35.4282 91.4815 34.4421C91.9821 33.4484 92.2324 32.3219 92.2324 31.0628C92.2324 29.8037 91.9745 28.6773 91.4588 27.6837C90.9429 26.69 90.2261 25.9201 89.3083 25.374C88.3905 24.8203 87.3475 24.5472 86.1794 24.5548C85.4361 24.5548 84.7231 24.6989 84.0404 24.9871C83.3578 25.2754 82.7889 25.685 82.3338 26.2159C82.2986 26.2564 82.2645 26.2972 82.2314 26.3384V19.5486H79.1139V37.3662H82.2086L82.2024 35.7017C82.2824 35.7998 82.368 35.8957 82.4589 35.9894C82.9519 36.4977 83.536 36.8958 84.2111 37.1841ZM87.3969 34.3056C86.8886 34.6166 86.3084 34.7721 85.656 34.7721C85.0113 34.7721 84.4196 34.6127 83.8811 34.2942C83.3425 33.9679 82.914 33.5243 82.5954 32.9629C82.2844 32.4017 82.1289 31.7644 82.1289 31.0514C82.1214 30.3384 82.273 29.7013 82.584 29.14C82.9026 28.5711 83.3311 28.1312 83.8698 27.8202C84.4083 27.5016 85.0038 27.3461 85.656 27.3537C86.3084 27.3461 86.8886 27.4978 87.3969 27.8088C87.9126 28.1122 88.307 28.5484 88.5801 29.1173C88.8608 29.6786 89.0011 30.3233 89.0011 31.0514C89.0011 31.7797 88.8608 32.4244 88.5801 32.9857C88.307 33.5471 87.9126 33.9869 87.3969 34.3056ZM43.072 20.618H46.6219L49.7974 32.215L53.1755 20.618H56.1338L59.7974 31.9823L62.8466 20.618H66.1006L61.2993 37.3662H58.2386L54.5131 26.2641L51.0934 37.3662H47.9986L43.072 20.618ZM71.3432 37.6619C70.1067 37.6695 68.9917 37.3964 67.9981 36.8428C67.012 36.2814 66.2346 35.5039 65.6656 34.5103C65.1044 33.5166 64.8237 32.3826 64.8237 31.1083C64.8237 29.8719 65.112 28.7531 65.6885 27.7519C66.2649 26.7506 67.0461 25.9694 68.0322 25.4081C69.0184 24.8468 70.1181 24.5661 71.3317 24.5661C72.6971 24.5661 73.8917 24.8695 74.9157 25.4763C75.9474 26.0831 76.7172 26.9441 77.2255 28.0591C77.7412 29.1665 77.9271 30.437 77.783 31.8706H68.0371C68.0644 32.4418 68.2069 32.9614 68.4646 33.4294C68.7529 33.9451 69.1549 34.3471 69.6706 34.6354C70.1865 34.9236 70.7629 35.0678 71.4001 35.0678C71.8855 35.0601 72.3369 34.9768 72.754 34.8175C73.1712 34.6506 73.5239 34.4269 73.8121 34.1461C74.108 33.8655 74.3166 33.547 74.438 33.1905H77.692C77.4947 34.0628 77.1004 34.8403 76.5087 35.5229C75.917 36.198 75.1737 36.7251 74.2786 37.1044C73.3836 37.4836 72.4051 37.6695 71.3432 37.6619ZM68.476 28.7417C68.2942 29.0587 68.1682 29.4 68.0981 29.7658H74.5585C74.5116 29.3038 74.369 28.8828 74.1307 28.5028C73.8576 28.0553 73.486 27.7102 73.0157 27.4674C72.5455 27.2171 72.0145 27.092 71.4229 27.092C70.7932 27.092 70.2206 27.2361 69.7047 27.5243C69.189 27.8126 68.7794 28.2184 68.476 28.7417ZM94.5197 24.8278C94.5197 23.8114 94.751 22.9088 95.2137 22.1199C95.6763 21.3235 96.325 20.7053 97.1593 20.2653C98.0012 19.8178 98.9836 19.5865 100.106 19.5713V22.3361C99.5827 22.3437 99.1352 22.4537 98.7636 22.666C98.3995 22.8708 98.1188 23.1705 97.9216 23.5649C97.7401 23.928 97.6421 24.349 97.6277 24.8278H100.038V27.4561H97.6258V37.3662H94.5197V27.4561H92.5172V24.8278H94.5197ZM112.337 37.6391C111.07 37.6391 109.936 37.3622 108.935 36.8086C107.941 36.2472 107.16 35.4736 106.591 34.4874C106.03 33.4938 105.749 32.3674 105.749 31.1082C105.749 29.8416 106.03 28.7113 106.591 27.7177C107.16 26.7164 107.941 25.939 108.935 25.3852C109.936 24.8315 111.07 24.5547 112.337 24.5547C113.611 24.5547 114.749 24.8315 115.75 25.3852C116.759 25.939 117.544 26.7126 118.105 27.7063C118.667 28.7 118.951 29.8339 118.959 31.1082C118.951 32.3674 118.667 33.4938 118.105 34.4874C117.552 35.4736 116.77 36.2472 115.761 36.8086C114.753 37.3622 113.611 37.6391 112.337 37.6391ZM112.337 34.7833C113.004 34.7833 113.596 34.6316 114.112 34.3282C114.628 34.0172 115.026 33.5848 115.306 33.0311C115.587 32.4698 115.727 31.8288 115.727 31.1082C115.727 30.3801 115.587 29.7353 115.306 29.174C115.026 28.6127 114.628 28.1804 114.112 27.877C113.596 27.566 113.004 27.4105 112.337 27.4105C111.677 27.4105 111.089 27.566 110.573 27.877C110.065 28.1804 109.671 28.6127 109.39 29.174C109.109 29.7353 108.973 30.3801 108.98 31.1082C108.98 31.8288 109.121 32.4698 109.401 33.0311C109.69 33.5848 110.084 34.0172 110.585 34.3282C111.093 34.6316 111.677 34.7833 112.337 34.7833ZM122.315 24.8278H118.856L122.6 37.3661H125.626L128.088 29.3579L130.746 37.3661H133.727L137.482 24.8278H134.353L132.223 32.6321L129.869 24.8278H126.843L124.501 32.804L122.315 24.8278Z" fill="black"/>
<path d="M38.5722 17.3496L27.0627 39.8496H16.252L21.0687 30.5246H20.8526C16.8788 35.6831 10.9498 39.079 2.50195 39.8496V30.6537C2.50195 30.6537 7.90627 30.3345 11.0833 26.9943H2.50195V17.3498H12.1465V25.2823L12.3629 25.2814L16.3041 17.3498H23.598V25.232L23.8143 25.2316L27.9033 17.3496H38.5722ZM101.335 37.3661H104.441V19.5371H101.335V37.3661ZM84.2111 37.1841C84.8861 37.4647 85.5726 37.6051 86.2705 37.6051C87.4234 37.6051 88.455 37.3244 89.3653 36.7631C90.2754 36.2018 90.9809 35.4282 91.4815 34.4421C91.9821 33.4484 92.2324 32.3219 92.2324 31.0628C92.2324 29.8037 91.9745 28.6773 91.4588 27.6837C90.9429 26.69 90.2261 25.9201 89.3083 25.374C88.3905 24.8203 87.3475 24.5472 86.1794 24.5548C85.4361 24.5548 84.7231 24.6989 84.0404 24.9871C83.3578 25.2754 82.7889 25.685 82.3338 26.2159C82.2986 26.2564 82.2645 26.2972 82.2314 26.3384V19.5486H79.1139V37.3662H82.2086L82.2024 35.7017C82.2824 35.7998 82.368 35.8957 82.4589 35.9894C82.9519 36.4977 83.536 36.8958 84.2111 37.1841ZM87.3969 34.3056C86.8886 34.6166 86.3084 34.7721 85.656 34.7721C85.0113 34.7721 84.4196 34.6127 83.8811 34.2942C83.3425 33.9679 82.914 33.5243 82.5954 32.9629C82.2844 32.4017 82.1289 31.7644 82.1289 31.0514C82.1214 30.3384 82.273 29.7013 82.584 29.14C82.9026 28.5711 83.3311 28.1312 83.8698 27.8202C84.4083 27.5016 85.0038 27.3461 85.656 27.3537C86.3084 27.3461 86.8886 27.4978 87.3969 27.8088C87.9126 28.1122 88.307 28.5484 88.5801 29.1173C88.8608 29.6786 89.0011 30.3233 89.0011 31.0514C89.0011 31.7797 88.8608 32.4244 88.5801 32.9857C88.307 33.5471 87.9126 33.9869 87.3969 34.3056ZM43.072 20.618H46.6219L49.7974 32.215L53.1755 20.618H56.1338L59.7974 31.9823L62.8466 20.618H66.1006L61.2993 37.3662H58.2386L54.5131 26.2641L51.0934 37.3662H47.9986L43.072 20.618ZM71.3432 37.6619C70.1067 37.6695 68.9917 37.3964 67.9981 36.8428C67.012 36.2814 66.2346 35.5039 65.6656 34.5103C65.1044 33.5166 64.8237 32.3826 64.8237 31.1083C64.8237 29.8719 65.112 28.7531 65.6885 27.7519C66.2649 26.7506 67.0461 25.9694 68.0322 25.4081C69.0184 24.8468 70.1181 24.5661 71.3317 24.5661C72.6971 24.5661 73.8917 24.8695 74.9157 25.4763C75.9474 26.0831 76.7172 26.9441 77.2255 28.0591C77.7412 29.1665 77.9271 30.437 77.783 31.8706H68.0371C68.0644 32.4418 68.2069 32.9614 68.4646 33.4294C68.7529 33.9451 69.1549 34.3471 69.6706 34.6354C70.1865 34.9236 70.7629 35.0678 71.4001 35.0678C71.8855 35.0601 72.3369 34.9768 72.754 34.8175C73.1712 34.6506 73.5239 34.4269 73.8121 34.1461C74.108 33.8655 74.3166 33.547 74.438 33.1905H77.692C77.4947 34.0628 77.1004 34.8403 76.5087 35.5229C75.917 36.198 75.1737 36.7251 74.2786 37.1044C73.3836 37.4836 72.4051 37.6695 71.3432 37.6619ZM68.476 28.7417C68.2942 29.0587 68.1682 29.4 68.0981 29.7658H74.5585C74.5116 29.3038 74.369 28.8828 74.1307 28.5028C73.8576 28.0553 73.486 27.7102 73.0157 27.4674C72.5455 27.2171 72.0145 27.092 71.4229 27.092C70.7932 27.092 70.2206 27.2361 69.7047 27.5243C69.189 27.8126 68.7794 28.2184 68.476 28.7417ZM94.5197 24.8278C94.5197 23.8114 94.751 22.9088 95.2137 22.1199C95.6763 21.3235 96.325 20.7053 97.1593 20.2653C98.0012 19.8178 98.9836 19.5865 100.106 19.5713V22.3361C99.5827 22.3437 99.1352 22.4537 98.7636 22.666C98.3995 22.8708 98.1188 23.1705 97.9216 23.5649C97.7401 23.928 97.6421 24.349 97.6277 24.8278H100.038V27.4561H97.6258V37.3662H94.5197V27.4561H92.5172V24.8278H94.5197ZM112.337 37.6391C111.07 37.6391 109.936 37.3622 108.935 36.8086C107.941 36.2472 107.16 35.4736 106.591 34.4874C106.03 33.4938 105.749 32.3674 105.749 31.1082C105.749 29.8416 106.03 28.7113 106.591 27.7177C107.16 26.7164 107.941 25.939 108.935 25.3852C109.936 24.8315 111.07 24.5547 112.337 24.5547C113.611 24.5547 114.749 24.8315 115.75 25.3852C116.759 25.939 117.544 26.7126 118.105 27.7063C118.667 28.7 118.951 29.8339 118.959 31.1082C118.951 32.3674 118.667 33.4938 118.105 34.4874C117.552 35.4736 116.77 36.2472 115.761 36.8086C114.753 37.3622 113.611 37.6391 112.337 37.6391ZM112.337 34.7833C113.004 34.7833 113.596 34.6316 114.112 34.3282C114.628 34.0172 115.026 33.5848 115.306 33.0311C115.587 32.4698 115.727 31.8288 115.727 31.1082C115.727 30.3801 115.587 29.7353 115.306 29.174C115.026 28.6127 114.628 28.1804 114.112 27.877C113.596 27.566 113.004 27.4105 112.337 27.4105C111.677 27.4105 111.089 27.566 110.573 27.877C110.065 28.1804 109.671 28.6127 109.39 29.174C109.109 29.7353 108.973 30.3801 108.98 31.1082C108.98 31.8288 109.121 32.4698 109.401 33.0311C109.69 33.5848 110.084 34.0172 110.585 34.3282C111.093 34.6316 111.677 34.7833 112.337 34.7833ZM122.315 24.8278H118.856L122.6 37.3661H125.626L128.088 29.3579L130.746 37.3661H133.727L137.482 24.8278H134.353L132.223 32.6321L129.869 24.8278H126.843L124.501 32.804L122.315 24.8278Z" fill="black"/>
</svg>
