<svg width="141" height="56" viewBox="0 0 141 56" fill="none" xmlns="http://www.w3.org/2000/svg">
<path fill-rule="evenodd" clip-rule="evenodd" d="M39.3193 16.75L27.8098 39.25H16.999L21.8158 29.925H21.5996C17.6259 35.0835 11.6969 38.4794 3.24902 39.25V30.0541C3.24902 30.0541 8.65334 29.7349 11.8304 26.3947H3.24902V16.7502H12.8935V24.6826L13.11 24.6818L17.0511 16.7502H24.345V24.6323L24.5614 24.632L28.6504 16.75H39.3193ZM102.082 36.7665H105.188V18.9375H102.082V36.7665ZM84.9582 36.5844C85.6332 36.8651 86.3197 37.0054 87.0176 37.0054C88.1705 37.0054 89.2021 36.7248 90.1123 36.1634C91.0225 35.6022 91.728 34.8286 92.2286 33.8424C92.7292 32.8488 92.9795 31.7223 92.9795 30.4632C92.9795 29.2041 92.7216 28.0777 92.2058 27.084C91.69 26.0904 90.9732 25.3205 90.0553 24.7744C89.1376 24.2206 88.0946 23.9476 86.9265 23.9552C86.1832 23.9552 85.4702 24.0993 84.7875 24.3875C84.1048 24.6758 83.536 25.0854 83.0808 25.6163C83.0457 25.6567 83.0116 25.6976 82.9785 25.7388V18.9489H79.861V36.7666H82.9557L82.9495 35.1021C83.0295 35.2002 83.1151 35.2961 83.206 35.3898C83.699 35.8981 84.2831 36.2962 84.9582 36.5844ZM88.144 33.7059C87.6357 34.0169 87.0555 34.1724 86.4031 34.1724C85.7583 34.1724 85.1667 34.0131 84.6282 33.6946C84.0896 33.3683 83.6611 32.9247 83.3425 32.3633C83.0315 31.8021 82.876 31.1648 82.876 30.4518C82.8685 29.7388 83.0201 29.1017 83.3311 28.5404C83.6497 27.9715 84.0782 27.5316 84.6168 27.2206C85.1553 26.902 85.7508 26.7465 86.4031 26.7541C87.0555 26.7465 87.6357 26.8982 88.144 27.2092C88.6597 27.5126 89.0541 27.9488 89.3272 28.5176C89.6078 29.0789 89.7482 29.7237 89.7482 30.4518C89.7482 31.1801 89.6078 31.8248 89.3272 32.3861C89.0541 32.9474 88.6597 33.3873 88.144 33.7059ZM43.8191 20.0184H47.369L50.5445 31.6154L53.9226 20.0184H56.8808L60.5445 31.3827L63.5937 20.0184H66.8477L62.0463 36.7665H58.9857L55.2602 25.6645L51.8405 36.7665H48.7457L43.8191 20.0184ZM72.0903 37.0623C70.8538 37.0699 69.7388 36.7968 68.7452 36.2431C67.7591 35.6818 66.9817 34.9043 66.4127 33.9106C65.8514 32.917 65.5708 31.783 65.5708 30.5086C65.5708 29.2723 65.8591 28.1535 66.4356 27.1523C67.0119 26.151 67.7932 25.3697 68.7793 24.8084C69.7654 24.2471 70.8652 23.9665 72.0788 23.9665C73.4442 23.9665 74.6388 24.2699 75.6628 24.8767C76.6944 25.4835 77.4643 26.3444 77.9725 27.4595C78.4883 28.5669 78.6742 29.8374 78.5301 31.271H68.7842C68.8114 31.8421 68.9539 32.3618 69.2117 32.8298C69.4999 33.3455 69.9019 33.7475 70.4177 34.0358C70.9335 34.324 71.5099 34.4681 72.1472 34.4681C72.6326 34.4605 73.0839 34.3771 73.5011 34.2179C73.9183 34.051 74.2709 33.8273 74.5592 33.5465C74.855 33.2659 75.0637 32.9474 75.1851 32.5909H78.4391C78.2418 33.4631 77.8474 34.2406 77.2558 34.9233C76.664 35.5984 75.9208 36.1255 75.0257 36.5048C74.1307 36.884 73.1522 37.0699 72.0903 37.0623ZM69.2231 28.1421C69.0413 28.4591 68.9153 28.8004 68.8452 29.1661H75.3055C75.2587 28.7041 75.1161 28.2832 74.8778 27.9032C74.6047 27.4557 74.2331 27.1105 73.7628 26.8678C73.2925 26.6175 72.7616 26.4924 72.1699 26.4924C71.5403 26.4924 70.9677 26.6365 70.4518 26.9247C69.9361 27.2129 69.5264 27.6188 69.2231 28.1421ZM95.2668 24.2282C95.2668 23.2118 95.498 22.3092 95.9608 21.5203C96.4234 20.7239 97.072 20.1057 97.9064 19.6657C98.7483 19.2182 99.7307 18.9868 100.853 18.9717V21.7365C100.33 21.7441 99.8823 21.854 99.5107 22.0664C99.1465 22.2712 98.8659 22.5708 98.6687 22.9653C98.4872 23.3284 98.3892 23.7494 98.3748 24.2282H100.785V26.8565H98.3729V36.7665H95.2668V26.8565H93.2643V24.2282H95.2668ZM113.084 37.0395C111.817 37.0395 110.683 36.7626 109.682 36.209C108.688 35.6476 107.907 34.874 107.338 33.8878C106.777 32.8942 106.496 31.7678 106.496 30.5086C106.496 29.242 106.777 28.1117 107.338 27.1181C107.907 26.1168 108.688 25.3393 109.682 24.7856C110.683 24.2319 111.817 23.955 113.084 23.955C114.358 23.955 115.496 24.2319 116.497 24.7856C117.506 25.3393 118.291 26.113 118.852 27.1067C119.414 28.1003 119.698 29.2343 119.706 30.5086C119.698 31.7678 119.414 32.8942 118.852 33.8878C118.299 34.874 117.517 35.6476 116.508 36.209C115.5 36.7626 114.358 37.0395 113.084 37.0395ZM113.084 34.1837C113.751 34.1837 114.343 34.032 114.859 33.7286C115.375 33.4176 115.773 32.9852 116.053 32.4315C116.334 31.8702 116.474 31.2292 116.474 30.5086C116.474 29.7805 116.334 29.1357 116.053 28.5744C115.773 28.0131 115.375 27.5808 114.859 27.2774C114.343 26.9664 113.751 26.8109 113.084 26.8109C112.424 26.8109 111.836 26.9664 111.32 27.2774C110.812 27.5808 110.418 28.0131 110.137 28.5744C109.856 29.1357 109.72 29.7805 109.727 30.5086C109.727 31.2292 109.868 31.8702 110.148 32.4315C110.437 32.9852 110.831 33.4176 111.332 33.7286C111.84 34.032 112.424 34.1837 113.084 34.1837ZM123.062 24.2282H119.603L123.347 36.7665H126.373L128.835 28.7583L131.493 36.7665H134.474L138.229 24.2282H135.1L132.97 32.0325L130.616 24.2282H127.591L125.248 32.2044L123.062 24.2282Z" fill="black"/>
<path d="M39.3193 16.75L27.8098 39.25H16.999L21.8158 29.925H21.5996C17.6259 35.0835 11.6969 38.4794 3.24902 39.25V30.0541C3.24902 30.0541 8.65334 29.7349 11.8304 26.3947H3.24902V16.7502H12.8935V24.6826L13.11 24.6818L17.0511 16.7502H24.345V24.6323L24.5614 24.632L28.6504 16.75H39.3193ZM102.082 36.7665H105.188V18.9375H102.082V36.7665ZM84.9582 36.5844C85.6332 36.8651 86.3197 37.0054 87.0176 37.0054C88.1705 37.0054 89.2021 36.7248 90.1123 36.1634C91.0225 35.6022 91.728 34.8286 92.2286 33.8424C92.7292 32.8488 92.9795 31.7223 92.9795 30.4632C92.9795 29.2041 92.7216 28.0777 92.2058 27.084C91.69 26.0904 90.9732 25.3205 90.0553 24.7744C89.1376 24.2206 88.0946 23.9476 86.9265 23.9552C86.1832 23.9552 85.4702 24.0993 84.7875 24.3875C84.1048 24.6758 83.536 25.0854 83.0808 25.6163C83.0457 25.6567 83.0116 25.6976 82.9785 25.7388V18.9489H79.861V36.7666H82.9557L82.9495 35.1021C83.0295 35.2002 83.1151 35.2961 83.206 35.3898C83.699 35.8981 84.2831 36.2962 84.9582 36.5844ZM88.144 33.7059C87.6357 34.0169 87.0555 34.1724 86.4031 34.1724C85.7583 34.1724 85.1667 34.0131 84.6282 33.6946C84.0896 33.3683 83.6611 32.9247 83.3425 32.3633C83.0315 31.8021 82.876 31.1648 82.876 30.4518C82.8685 29.7388 83.0201 29.1017 83.3311 28.5404C83.6497 27.9715 84.0782 27.5316 84.6168 27.2206C85.1553 26.902 85.7508 26.7465 86.4031 26.7541C87.0555 26.7465 87.6357 26.8982 88.144 27.2092C88.6597 27.5126 89.0541 27.9488 89.3272 28.5176C89.6078 29.0789 89.7482 29.7237 89.7482 30.4518C89.7482 31.1801 89.6078 31.8248 89.3272 32.3861C89.0541 32.9474 88.6597 33.3873 88.144 33.7059ZM43.8191 20.0184H47.369L50.5445 31.6154L53.9226 20.0184H56.8808L60.5445 31.3827L63.5937 20.0184H66.8477L62.0463 36.7665H58.9857L55.2602 25.6645L51.8405 36.7665H48.7457L43.8191 20.0184ZM72.0903 37.0623C70.8538 37.0699 69.7388 36.7968 68.7452 36.2431C67.7591 35.6818 66.9817 34.9043 66.4127 33.9106C65.8514 32.917 65.5708 31.783 65.5708 30.5086C65.5708 29.2723 65.8591 28.1535 66.4356 27.1523C67.0119 26.151 67.7932 25.3697 68.7793 24.8084C69.7654 24.2471 70.8652 23.9665 72.0788 23.9665C73.4442 23.9665 74.6388 24.2699 75.6628 24.8767C76.6944 25.4835 77.4643 26.3444 77.9725 27.4595C78.4883 28.5669 78.6742 29.8374 78.5301 31.271H68.7842C68.8114 31.8421 68.9539 32.3618 69.2117 32.8298C69.4999 33.3455 69.9019 33.7475 70.4177 34.0358C70.9335 34.324 71.5099 34.4681 72.1472 34.4681C72.6326 34.4605 73.0839 34.3771 73.5011 34.2179C73.9183 34.051 74.2709 33.8273 74.5592 33.5465C74.855 33.2659 75.0637 32.9474 75.1851 32.5909H78.4391C78.2418 33.4631 77.8474 34.2406 77.2558 34.9233C76.664 35.5984 75.9208 36.1255 75.0257 36.5048C74.1307 36.884 73.1522 37.0699 72.0903 37.0623ZM69.2231 28.1421C69.0413 28.4591 68.9153 28.8004 68.8452 29.1661H75.3055C75.2587 28.7041 75.1161 28.2832 74.8778 27.9032C74.6047 27.4557 74.2331 27.1105 73.7628 26.8678C73.2925 26.6175 72.7616 26.4924 72.1699 26.4924C71.5403 26.4924 70.9677 26.6365 70.4518 26.9247C69.9361 27.2129 69.5264 27.6188 69.2231 28.1421ZM95.2668 24.2282C95.2668 23.2118 95.498 22.3092 95.9608 21.5203C96.4234 20.7239 97.072 20.1057 97.9064 19.6657C98.7483 19.2182 99.7307 18.9868 100.853 18.9717V21.7365C100.33 21.7441 99.8823 21.854 99.5107 22.0664C99.1465 22.2712 98.8659 22.5708 98.6687 22.9653C98.4872 23.3284 98.3892 23.7494 98.3748 24.2282H100.785V26.8565H98.3729V36.7665H95.2668V26.8565H93.2643V24.2282H95.2668ZM113.084 37.0395C111.817 37.0395 110.683 36.7626 109.682 36.209C108.688 35.6476 107.907 34.874 107.338 33.8878C106.777 32.8942 106.496 31.7678 106.496 30.5086C106.496 29.242 106.777 28.1117 107.338 27.1181C107.907 26.1168 108.688 25.3393 109.682 24.7856C110.683 24.2319 111.817 23.955 113.084 23.955C114.358 23.955 115.496 24.2319 116.497 24.7856C117.506 25.3393 118.291 26.113 118.852 27.1067C119.414 28.1003 119.698 29.2343 119.706 30.5086C119.698 31.7678 119.414 32.8942 118.852 33.8878C118.299 34.874 117.517 35.6476 116.508 36.209C115.5 36.7626 114.358 37.0395 113.084 37.0395ZM113.084 34.1837C113.751 34.1837 114.343 34.032 114.859 33.7286C115.375 33.4176 115.773 32.9852 116.053 32.4315C116.334 31.8702 116.474 31.2292 116.474 30.5086C116.474 29.7805 116.334 29.1357 116.053 28.5744C115.773 28.0131 115.375 27.5808 114.859 27.2774C114.343 26.9664 113.751 26.8109 113.084 26.8109C112.424 26.8109 111.836 26.9664 111.32 27.2774C110.812 27.5808 110.418 28.0131 110.137 28.5744C109.856 29.1357 109.72 29.7805 109.727 30.5086C109.727 31.2292 109.868 31.8702 110.148 32.4315C110.437 32.9852 110.831 33.4176 111.332 33.7286C111.84 34.032 112.424 34.1837 113.084 34.1837ZM123.062 24.2282H119.603L123.347 36.7665H126.373L128.835 28.7583L131.493 36.7665H134.474L138.229 24.2282H135.1L132.97 32.0325L130.616 24.2282H127.591L125.248 32.2044L123.062 24.2282Z" fill="black"/>
<path fill-rule="evenodd" clip-rule="evenodd" d="M39.3193 16.75L27.8098 39.25H16.999L21.8158 29.925H21.5996C17.6259 35.0835 11.6969 38.4794 3.24902 39.25V30.0541C3.24902 30.0541 8.65334 29.7349 11.8304 26.3947H3.24902V16.7502H12.8935V24.6826L13.11 24.6818L17.0511 16.7502H24.345V24.6323L24.5614 24.632L28.6504 16.75H39.3193ZM102.082 36.7665H105.188V18.9375H102.082V36.7665ZM84.9582 36.5844C85.6332 36.8651 86.3197 37.0054 87.0176 37.0054C88.1705 37.0054 89.2021 36.7248 90.1123 36.1634C91.0225 35.6022 91.728 34.8286 92.2286 33.8424C92.7292 32.8488 92.9795 31.7223 92.9795 30.4632C92.9795 29.2041 92.7216 28.0777 92.2058 27.084C91.69 26.0904 90.9732 25.3205 90.0553 24.7744C89.1376 24.2206 88.0946 23.9476 86.9265 23.9552C86.1832 23.9552 85.4702 24.0993 84.7875 24.3875C84.1048 24.6758 83.536 25.0854 83.0808 25.6163C83.0457 25.6567 83.0116 25.6976 82.9785 25.7388V18.9489H79.861V36.7666H82.9557L82.9495 35.1021C83.0295 35.2002 83.1151 35.2961 83.206 35.3898C83.699 35.8981 84.2831 36.2962 84.9582 36.5844ZM88.144 33.7059C87.6357 34.0169 87.0555 34.1724 86.4031 34.1724C85.7583 34.1724 85.1667 34.0131 84.6282 33.6946C84.0896 33.3683 83.6611 32.9247 83.3425 32.3633C83.0315 31.8021 82.876 31.1648 82.876 30.4518C82.8685 29.7388 83.0201 29.1017 83.3311 28.5404C83.6497 27.9715 84.0782 27.5316 84.6168 27.2206C85.1553 26.902 85.7508 26.7465 86.4031 26.7541C87.0555 26.7465 87.6357 26.8982 88.144 27.2092C88.6597 27.5126 89.0541 27.9488 89.3272 28.5176C89.6078 29.0789 89.7482 29.7237 89.7482 30.4518C89.7482 31.1801 89.6078 31.8248 89.3272 32.3861C89.0541 32.9474 88.6597 33.3873 88.144 33.7059ZM43.8191 20.0184H47.369L50.5445 31.6154L53.9226 20.0184H56.8808L60.5445 31.3827L63.5937 20.0184H66.8477L62.0463 36.7665H58.9857L55.2602 25.6645L51.8405 36.7665H48.7457L43.8191 20.0184ZM72.0903 37.0623C70.8538 37.0699 69.7388 36.7968 68.7452 36.2431C67.7591 35.6818 66.9817 34.9043 66.4127 33.9106C65.8514 32.917 65.5708 31.783 65.5708 30.5086C65.5708 29.2723 65.8591 28.1535 66.4356 27.1523C67.0119 26.151 67.7932 25.3697 68.7793 24.8084C69.7654 24.2471 70.8652 23.9665 72.0788 23.9665C73.4442 23.9665 74.6388 24.2699 75.6628 24.8767C76.6944 25.4835 77.4643 26.3444 77.9725 27.4595C78.4883 28.5669 78.6742 29.8374 78.5301 31.271H68.7842C68.8114 31.8421 68.9539 32.3618 69.2117 32.8298C69.4999 33.3455 69.9019 33.7475 70.4177 34.0358C70.9335 34.324 71.5099 34.4681 72.1472 34.4681C72.6326 34.4605 73.0839 34.3771 73.5011 34.2179C73.9183 34.051 74.2709 33.8273 74.5592 33.5465C74.855 33.2659 75.0637 32.9474 75.1851 32.5909H78.4391C78.2418 33.4631 77.8474 34.2406 77.2558 34.9233C76.664 35.5984 75.9208 36.1255 75.0257 36.5048C74.1307 36.884 73.1522 37.0699 72.0903 37.0623ZM69.2231 28.1421C69.0413 28.4591 68.9153 28.8004 68.8452 29.1661H75.3055C75.2587 28.7041 75.1161 28.2832 74.8778 27.9032C74.6047 27.4557 74.2331 27.1105 73.7628 26.8678C73.2925 26.6175 72.7616 26.4924 72.1699 26.4924C71.5403 26.4924 70.9677 26.6365 70.4518 26.9247C69.9361 27.2129 69.5264 27.6188 69.2231 28.1421ZM95.2668 24.2282C95.2668 23.2118 95.498 22.3092 95.9608 21.5203C96.4234 20.7239 97.072 20.1057 97.9064 19.6657C98.7483 19.2182 99.7307 18.9868 100.853 18.9717V21.7365C100.33 21.7441 99.8823 21.854 99.5107 22.0664C99.1465 22.2712 98.8659 22.5708 98.6687 22.9653C98.4872 23.3284 98.3892 23.7494 98.3748 24.2282H100.785V26.8565H98.3729V36.7665H95.2668V26.8565H93.2643V24.2282H95.2668ZM113.084 37.0395C111.817 37.0395 110.683 36.7626 109.682 36.209C108.688 35.6476 107.907 34.874 107.338 33.8878C106.777 32.8942 106.496 31.7678 106.496 30.5086C106.496 29.242 106.777 28.1117 107.338 27.1181C107.907 26.1168 108.688 25.3393 109.682 24.7856C110.683 24.2319 111.817 23.955 113.084 23.955C114.358 23.955 115.496 24.2319 116.497 24.7856C117.506 25.3393 118.291 26.113 118.852 27.1067C119.414 28.1003 119.698 29.2343 119.706 30.5086C119.698 31.7678 119.414 32.8942 118.852 33.8878C118.299 34.874 117.517 35.6476 116.508 36.209C115.5 36.7626 114.358 37.0395 113.084 37.0395ZM113.084 34.1837C113.751 34.1837 114.343 34.032 114.859 33.7286C115.375 33.4176 115.773 32.9852 116.053 32.4315C116.334 31.8702 116.474 31.2292 116.474 30.5086C116.474 29.7805 116.334 29.1357 116.053 28.5744C115.773 28.0131 115.375 27.5808 114.859 27.2774C114.343 26.9664 113.751 26.8109 113.084 26.8109C112.424 26.8109 111.836 26.9664 111.32 27.2774C110.812 27.5808 110.418 28.0131 110.137 28.5744C109.856 29.1357 109.72 29.7805 109.727 30.5086C109.727 31.2292 109.868 31.8702 110.148 32.4315C110.437 32.9852 110.831 33.4176 111.332 33.7286C111.84 34.032 112.424 34.1837 113.084 34.1837ZM123.062 24.2282H119.603L123.347 36.7665H126.373L128.835 28.7583L131.493 36.7665H134.474L138.229 24.2282H135.1L132.97 32.0325L130.616 24.2282H127.591L125.248 32.2044L123.062 24.2282Z" fill="black"/>
<path d="M39.3193 16.75L27.8098 39.25H16.999L21.8158 29.925H21.5996C17.6259 35.0835 11.6969 38.4794 3.24902 39.25V30.0541C3.24902 30.0541 8.65334 29.7349 11.8304 26.3947H3.24902V16.7502H12.8935V24.6826L13.11 24.6818L17.0511 16.7502H24.345V24.6323L24.5614 24.632L28.6504 16.75H39.3193ZM102.082 36.7665H105.188V18.9375H102.082V36.7665ZM84.9582 36.5844C85.6332 36.8651 86.3197 37.0054 87.0176 37.0054C88.1705 37.0054 89.2021 36.7248 90.1123 36.1634C91.0225 35.6022 91.728 34.8286 92.2286 33.8424C92.7292 32.8488 92.9795 31.7223 92.9795 30.4632C92.9795 29.2041 92.7216 28.0777 92.2058 27.084C91.69 26.0904 90.9732 25.3205 90.0553 24.7744C89.1376 24.2206 88.0946 23.9476 86.9265 23.9552C86.1832 23.9552 85.4702 24.0993 84.7875 24.3875C84.1048 24.6758 83.536 25.0854 83.0808 25.6163C83.0457 25.6567 83.0116 25.6976 82.9785 25.7388V18.9489H79.861V36.7666H82.9557L82.9495 35.1021C83.0295 35.2002 83.1151 35.2961 83.206 35.3898C83.699 35.8981 84.2831 36.2962 84.9582 36.5844ZM88.144 33.7059C87.6357 34.0169 87.0555 34.1724 86.4031 34.1724C85.7583 34.1724 85.1667 34.0131 84.6282 33.6946C84.0896 33.3683 83.6611 32.9247 83.3425 32.3633C83.0315 31.8021 82.876 31.1648 82.876 30.4518C82.8685 29.7388 83.0201 29.1017 83.3311 28.5404C83.6497 27.9715 84.0782 27.5316 84.6168 27.2206C85.1553 26.902 85.7508 26.7465 86.4031 26.7541C87.0555 26.7465 87.6357 26.8982 88.144 27.2092C88.6597 27.5126 89.0541 27.9488 89.3272 28.5176C89.6078 29.0789 89.7482 29.7237 89.7482 30.4518C89.7482 31.1801 89.6078 31.8248 89.3272 32.3861C89.0541 32.9474 88.6597 33.3873 88.144 33.7059ZM43.8191 20.0184H47.369L50.5445 31.6154L53.9226 20.0184H56.8808L60.5445 31.3827L63.5937 20.0184H66.8477L62.0463 36.7665H58.9857L55.2602 25.6645L51.8405 36.7665H48.7457L43.8191 20.0184ZM72.0903 37.0623C70.8538 37.0699 69.7388 36.7968 68.7452 36.2431C67.7591 35.6818 66.9817 34.9043 66.4127 33.9106C65.8514 32.917 65.5708 31.783 65.5708 30.5086C65.5708 29.2723 65.8591 28.1535 66.4356 27.1523C67.0119 26.151 67.7932 25.3697 68.7793 24.8084C69.7654 24.2471 70.8652 23.9665 72.0788 23.9665C73.4442 23.9665 74.6388 24.2699 75.6628 24.8767C76.6944 25.4835 77.4643 26.3444 77.9725 27.4595C78.4883 28.5669 78.6742 29.8374 78.5301 31.271H68.7842C68.8114 31.8421 68.9539 32.3618 69.2117 32.8298C69.4999 33.3455 69.9019 33.7475 70.4177 34.0358C70.9335 34.324 71.5099 34.4681 72.1472 34.4681C72.6326 34.4605 73.0839 34.3771 73.5011 34.2179C73.9183 34.051 74.2709 33.8273 74.5592 33.5465C74.855 33.2659 75.0637 32.9474 75.1851 32.5909H78.4391C78.2418 33.4631 77.8474 34.2406 77.2558 34.9233C76.664 35.5984 75.9208 36.1255 75.0257 36.5048C74.1307 36.884 73.1522 37.0699 72.0903 37.0623ZM69.2231 28.1421C69.0413 28.4591 68.9153 28.8004 68.8452 29.1661H75.3055C75.2587 28.7041 75.1161 28.2832 74.8778 27.9032C74.6047 27.4557 74.2331 27.1105 73.7628 26.8678C73.2925 26.6175 72.7616 26.4924 72.1699 26.4924C71.5403 26.4924 70.9677 26.6365 70.4518 26.9247C69.9361 27.2129 69.5264 27.6188 69.2231 28.1421ZM95.2668 24.2282C95.2668 23.2118 95.498 22.3092 95.9608 21.5203C96.4234 20.7239 97.072 20.1057 97.9064 19.6657C98.7483 19.2182 99.7307 18.9868 100.853 18.9717V21.7365C100.33 21.7441 99.8823 21.854 99.5107 22.0664C99.1465 22.2712 98.8659 22.5708 98.6687 22.9653C98.4872 23.3284 98.3892 23.7494 98.3748 24.2282H100.785V26.8565H98.3729V36.7665H95.2668V26.8565H93.2643V24.2282H95.2668ZM113.084 37.0395C111.817 37.0395 110.683 36.7626 109.682 36.209C108.688 35.6476 107.907 34.874 107.338 33.8878C106.777 32.8942 106.496 31.7678 106.496 30.5086C106.496 29.242 106.777 28.1117 107.338 27.1181C107.907 26.1168 108.688 25.3393 109.682 24.7856C110.683 24.2319 111.817 23.955 113.084 23.955C114.358 23.955 115.496 24.2319 116.497 24.7856C117.506 25.3393 118.291 26.113 118.852 27.1067C119.414 28.1003 119.698 29.2343 119.706 30.5086C119.698 31.7678 119.414 32.8942 118.852 33.8878C118.299 34.874 117.517 35.6476 116.508 36.209C115.5 36.7626 114.358 37.0395 113.084 37.0395ZM113.084 34.1837C113.751 34.1837 114.343 34.032 114.859 33.7286C115.375 33.4176 115.773 32.9852 116.053 32.4315C116.334 31.8702 116.474 31.2292 116.474 30.5086C116.474 29.7805 116.334 29.1357 116.053 28.5744C115.773 28.0131 115.375 27.5808 114.859 27.2774C114.343 26.9664 113.751 26.8109 113.084 26.8109C112.424 26.8109 111.836 26.9664 111.32 27.2774C110.812 27.5808 110.418 28.0131 110.137 28.5744C109.856 29.1357 109.72 29.7805 109.727 30.5086C109.727 31.2292 109.868 31.8702 110.148 32.4315C110.437 32.9852 110.831 33.4176 111.332 33.7286C111.84 34.032 112.424 34.1837 113.084 34.1837ZM123.062 24.2282H119.603L123.347 36.7665H126.373L128.835 28.7583L131.493 36.7665H134.474L138.229 24.2282H135.1L132.97 32.0325L130.616 24.2282H127.591L125.248 32.2044L123.062 24.2282Z" fill="black"/>
<path fill-rule="evenodd" clip-rule="evenodd" d="M39.3193 16.75L27.8098 39.25H16.999L21.8158 29.925H21.5996C17.6259 35.0835 11.6969 38.4794 3.24902 39.25V30.0541C3.24902 30.0541 8.65334 29.7349 11.8304 26.3947H3.24902V16.7502H12.8935V24.6826L13.11 24.6818L17.0511 16.7502H24.345V24.6323L24.5614 24.632L28.6504 16.75H39.3193ZM102.082 36.7665H105.188V18.9375H102.082V36.7665ZM84.9582 36.5844C85.6332 36.8651 86.3197 37.0054 87.0176 37.0054C88.1705 37.0054 89.2021 36.7248 90.1123 36.1634C91.0225 35.6022 91.728 34.8286 92.2286 33.8424C92.7292 32.8488 92.9795 31.7223 92.9795 30.4632C92.9795 29.2041 92.7216 28.0777 92.2058 27.084C91.69 26.0904 90.9732 25.3205 90.0553 24.7744C89.1376 24.2206 88.0946 23.9476 86.9265 23.9552C86.1832 23.9552 85.4702 24.0993 84.7875 24.3875C84.1048 24.6758 83.536 25.0854 83.0808 25.6163C83.0457 25.6567 83.0116 25.6976 82.9785 25.7388V18.9489H79.861V36.7666H82.9557L82.9495 35.1021C83.0295 35.2002 83.1151 35.2961 83.206 35.3898C83.699 35.8981 84.2831 36.2962 84.9582 36.5844ZM88.144 33.7059C87.6357 34.0169 87.0555 34.1724 86.4031 34.1724C85.7583 34.1724 85.1667 34.0131 84.6282 33.6946C84.0896 33.3683 83.6611 32.9247 83.3425 32.3633C83.0315 31.8021 82.876 31.1648 82.876 30.4518C82.8685 29.7388 83.0201 29.1017 83.3311 28.5404C83.6497 27.9715 84.0782 27.5316 84.6168 27.2206C85.1553 26.902 85.7508 26.7465 86.4031 26.7541C87.0555 26.7465 87.6357 26.8982 88.144 27.2092C88.6597 27.5126 89.0541 27.9488 89.3272 28.5176C89.6078 29.0789 89.7482 29.7237 89.7482 30.4518C89.7482 31.1801 89.6078 31.8248 89.3272 32.3861C89.0541 32.9474 88.6597 33.3873 88.144 33.7059ZM43.8191 20.0184H47.369L50.5445 31.6154L53.9226 20.0184H56.8808L60.5445 31.3827L63.5937 20.0184H66.8477L62.0463 36.7665H58.9857L55.2602 25.6645L51.8405 36.7665H48.7457L43.8191 20.0184ZM72.0903 37.0623C70.8538 37.0699 69.7388 36.7968 68.7452 36.2431C67.7591 35.6818 66.9817 34.9043 66.4127 33.9106C65.8514 32.917 65.5708 31.783 65.5708 30.5086C65.5708 29.2723 65.8591 28.1535 66.4356 27.1523C67.0119 26.151 67.7932 25.3697 68.7793 24.8084C69.7654 24.2471 70.8652 23.9665 72.0788 23.9665C73.4442 23.9665 74.6388 24.2699 75.6628 24.8767C76.6944 25.4835 77.4643 26.3444 77.9725 27.4595C78.4883 28.5669 78.6742 29.8374 78.5301 31.271H68.7842C68.8114 31.8421 68.9539 32.3618 69.2117 32.8298C69.4999 33.3455 69.9019 33.7475 70.4177 34.0358C70.9335 34.324 71.5099 34.4681 72.1472 34.4681C72.6326 34.4605 73.0839 34.3771 73.5011 34.2179C73.9183 34.051 74.2709 33.8273 74.5592 33.5465C74.855 33.2659 75.0637 32.9474 75.1851 32.5909H78.4391C78.2418 33.4631 77.8474 34.2406 77.2558 34.9233C76.664 35.5984 75.9208 36.1255 75.0257 36.5048C74.1307 36.884 73.1522 37.0699 72.0903 37.0623ZM69.2231 28.1421C69.0413 28.4591 68.9153 28.8004 68.8452 29.1661H75.3055C75.2587 28.7041 75.1161 28.2832 74.8778 27.9032C74.6047 27.4557 74.2331 27.1105 73.7628 26.8678C73.2925 26.6175 72.7616 26.4924 72.1699 26.4924C71.5403 26.4924 70.9677 26.6365 70.4518 26.9247C69.9361 27.2129 69.5264 27.6188 69.2231 28.1421ZM95.2668 24.2282C95.2668 23.2118 95.498 22.3092 95.9608 21.5203C96.4234 20.7239 97.072 20.1057 97.9064 19.6657C98.7483 19.2182 99.7307 18.9868 100.853 18.9717V21.7365C100.33 21.7441 99.8823 21.854 99.5107 22.0664C99.1465 22.2712 98.8659 22.5708 98.6687 22.9653C98.4872 23.3284 98.3892 23.7494 98.3748 24.2282H100.785V26.8565H98.3729V36.7665H95.2668V26.8565H93.2643V24.2282H95.2668ZM113.084 37.0395C111.817 37.0395 110.683 36.7626 109.682 36.209C108.688 35.6476 107.907 34.874 107.338 33.8878C106.777 32.8942 106.496 31.7678 106.496 30.5086C106.496 29.242 106.777 28.1117 107.338 27.1181C107.907 26.1168 108.688 25.3393 109.682 24.7856C110.683 24.2319 111.817 23.955 113.084 23.955C114.358 23.955 115.496 24.2319 116.497 24.7856C117.506 25.3393 118.291 26.113 118.852 27.1067C119.414 28.1003 119.698 29.2343 119.706 30.5086C119.698 31.7678 119.414 32.8942 118.852 33.8878C118.299 34.874 117.517 35.6476 116.508 36.209C115.5 36.7626 114.358 37.0395 113.084 37.0395ZM113.084 34.1837C113.751 34.1837 114.343 34.032 114.859 33.7286C115.375 33.4176 115.773 32.9852 116.053 32.4315C116.334 31.8702 116.474 31.2292 116.474 30.5086C116.474 29.7805 116.334 29.1357 116.053 28.5744C115.773 28.0131 115.375 27.5808 114.859 27.2774C114.343 26.9664 113.751 26.8109 113.084 26.8109C112.424 26.8109 111.836 26.9664 111.32 27.2774C110.812 27.5808 110.418 28.0131 110.137 28.5744C109.856 29.1357 109.72 29.7805 109.727 30.5086C109.727 31.2292 109.868 31.8702 110.148 32.4315C110.437 32.9852 110.831 33.4176 111.332 33.7286C111.84 34.032 112.424 34.1837 113.084 34.1837ZM123.062 24.2282H119.603L123.347 36.7665H126.373L128.835 28.7583L131.493 36.7665H134.474L138.229 24.2282H135.1L132.97 32.0325L130.616 24.2282H127.591L125.248 32.2044L123.062 24.2282Z" fill="black"/>
<path d="M39.3193 16.75L27.8098 39.25H16.999L21.8158 29.925H21.5996C17.6259 35.0835 11.6969 38.4794 3.24902 39.25V30.0541C3.24902 30.0541 8.65334 29.7349 11.8304 26.3947H3.24902V16.7502H12.8935V24.6826L13.11 24.6818L17.0511 16.7502H24.345V24.6323L24.5614 24.632L28.6504 16.75H39.3193ZM102.082 36.7665H105.188V18.9375H102.082V36.7665ZM84.9582 36.5844C85.6332 36.8651 86.3197 37.0054 87.0176 37.0054C88.1705 37.0054 89.2021 36.7248 90.1123 36.1634C91.0225 35.6022 91.728 34.8286 92.2286 33.8424C92.7292 32.8488 92.9795 31.7223 92.9795 30.4632C92.9795 29.2041 92.7216 28.0777 92.2058 27.084C91.69 26.0904 90.9732 25.3205 90.0553 24.7744C89.1376 24.2206 88.0946 23.9476 86.9265 23.9552C86.1832 23.9552 85.4702 24.0993 84.7875 24.3875C84.1048 24.6758 83.536 25.0854 83.0808 25.6163C83.0457 25.6567 83.0116 25.6976 82.9785 25.7388V18.9489H79.861V36.7666H82.9557L82.9495 35.1021C83.0295 35.2002 83.1151 35.2961 83.206 35.3898C83.699 35.8981 84.2831 36.2962 84.9582 36.5844ZM88.144 33.7059C87.6357 34.0169 87.0555 34.1724 86.4031 34.1724C85.7583 34.1724 85.1667 34.0131 84.6282 33.6946C84.0896 33.3683 83.6611 32.9247 83.3425 32.3633C83.0315 31.8021 82.876 31.1648 82.876 30.4518C82.8685 29.7388 83.0201 29.1017 83.3311 28.5404C83.6497 27.9715 84.0782 27.5316 84.6168 27.2206C85.1553 26.902 85.7508 26.7465 86.4031 26.7541C87.0555 26.7465 87.6357 26.8982 88.144 27.2092C88.6597 27.5126 89.0541 27.9488 89.3272 28.5176C89.6078 29.0789 89.7482 29.7237 89.7482 30.4518C89.7482 31.1801 89.6078 31.8248 89.3272 32.3861C89.0541 32.9474 88.6597 33.3873 88.144 33.7059ZM43.8191 20.0184H47.369L50.5445 31.6154L53.9226 20.0184H56.8808L60.5445 31.3827L63.5937 20.0184H66.8477L62.0463 36.7665H58.9857L55.2602 25.6645L51.8405 36.7665H48.7457L43.8191 20.0184ZM72.0903 37.0623C70.8538 37.0699 69.7388 36.7968 68.7452 36.2431C67.7591 35.6818 66.9817 34.9043 66.4127 33.9106C65.8514 32.917 65.5708 31.783 65.5708 30.5086C65.5708 29.2723 65.8591 28.1535 66.4356 27.1523C67.0119 26.151 67.7932 25.3697 68.7793 24.8084C69.7654 24.2471 70.8652 23.9665 72.0788 23.9665C73.4442 23.9665 74.6388 24.2699 75.6628 24.8767C76.6944 25.4835 77.4643 26.3444 77.9725 27.4595C78.4883 28.5669 78.6742 29.8374 78.5301 31.271H68.7842C68.8114 31.8421 68.9539 32.3618 69.2117 32.8298C69.4999 33.3455 69.9019 33.7475 70.4177 34.0358C70.9335 34.324 71.5099 34.4681 72.1472 34.4681C72.6326 34.4605 73.0839 34.3771 73.5011 34.2179C73.9183 34.051 74.2709 33.8273 74.5592 33.5465C74.855 33.2659 75.0637 32.9474 75.1851 32.5909H78.4391C78.2418 33.4631 77.8474 34.2406 77.2558 34.9233C76.664 35.5984 75.9208 36.1255 75.0257 36.5048C74.1307 36.884 73.1522 37.0699 72.0903 37.0623ZM69.2231 28.1421C69.0413 28.4591 68.9153 28.8004 68.8452 29.1661H75.3055C75.2587 28.7041 75.1161 28.2832 74.8778 27.9032C74.6047 27.4557 74.2331 27.1105 73.7628 26.8678C73.2925 26.6175 72.7616 26.4924 72.1699 26.4924C71.5403 26.4924 70.9677 26.6365 70.4518 26.9247C69.9361 27.2129 69.5264 27.6188 69.2231 28.1421ZM95.2668 24.2282C95.2668 23.2118 95.498 22.3092 95.9608 21.5203C96.4234 20.7239 97.072 20.1057 97.9064 19.6657C98.7483 19.2182 99.7307 18.9868 100.853 18.9717V21.7365C100.33 21.7441 99.8823 21.854 99.5107 22.0664C99.1465 22.2712 98.8659 22.5708 98.6687 22.9653C98.4872 23.3284 98.3892 23.7494 98.3748 24.2282H100.785V26.8565H98.3729V36.7665H95.2668V26.8565H93.2643V24.2282H95.2668ZM113.084 37.0395C111.817 37.0395 110.683 36.7626 109.682 36.209C108.688 35.6476 107.907 34.874 107.338 33.8878C106.777 32.8942 106.496 31.7678 106.496 30.5086C106.496 29.242 106.777 28.1117 107.338 27.1181C107.907 26.1168 108.688 25.3393 109.682 24.7856C110.683 24.2319 111.817 23.955 113.084 23.955C114.358 23.955 115.496 24.2319 116.497 24.7856C117.506 25.3393 118.291 26.113 118.852 27.1067C119.414 28.1003 119.698 29.2343 119.706 30.5086C119.698 31.7678 119.414 32.8942 118.852 33.8878C118.299 34.874 117.517 35.6476 116.508 36.209C115.5 36.7626 114.358 37.0395 113.084 37.0395ZM113.084 34.1837C113.751 34.1837 114.343 34.032 114.859 33.7286C115.375 33.4176 115.773 32.9852 116.053 32.4315C116.334 31.8702 116.474 31.2292 116.474 30.5086C116.474 29.7805 116.334 29.1357 116.053 28.5744C115.773 28.0131 115.375 27.5808 114.859 27.2774C114.343 26.9664 113.751 26.8109 113.084 26.8109C112.424 26.8109 111.836 26.9664 111.32 27.2774C110.812 27.5808 110.418 28.0131 110.137 28.5744C109.856 29.1357 109.72 29.7805 109.727 30.5086C109.727 31.2292 109.868 31.8702 110.148 32.4315C110.437 32.9852 110.831 33.4176 111.332 33.7286C111.84 34.032 112.424 34.1837 113.084 34.1837ZM123.062 24.2282H119.603L123.347 36.7665H126.373L128.835 28.7583L131.493 36.7665H134.474L138.229 24.2282H135.1L132.97 32.0325L130.616 24.2282H127.591L125.248 32.2044L123.062 24.2282Z" fill="black"/>
<path fill-rule="evenodd" clip-rule="evenodd" d="M39.3193 16.75L27.8098 39.25H16.999L21.8158 29.925H21.5996C17.6259 35.0835 11.6969 38.4794 3.24902 39.25V30.0541C3.24902 30.0541 8.65334 29.7349 11.8304 26.3947H3.24902V16.7502H12.8935V24.6826L13.11 24.6818L17.0511 16.7502H24.345V24.6323L24.5614 24.632L28.6504 16.75H39.3193ZM102.082 36.7665H105.188V18.9375H102.082V36.7665ZM84.9582 36.5844C85.6332 36.8651 86.3197 37.0054 87.0176 37.0054C88.1705 37.0054 89.2021 36.7248 90.1123 36.1634C91.0225 35.6022 91.728 34.8286 92.2286 33.8424C92.7292 32.8488 92.9795 31.7223 92.9795 30.4632C92.9795 29.2041 92.7216 28.0777 92.2058 27.084C91.69 26.0904 90.9732 25.3205 90.0553 24.7744C89.1376 24.2206 88.0946 23.9476 86.9265 23.9552C86.1832 23.9552 85.4702 24.0993 84.7875 24.3875C84.1048 24.6758 83.536 25.0854 83.0808 25.6163C83.0457 25.6567 83.0116 25.6976 82.9785 25.7388V18.9489H79.861V36.7666H82.9557L82.9495 35.1021C83.0295 35.2002 83.1151 35.2961 83.206 35.3898C83.699 35.8981 84.2831 36.2962 84.9582 36.5844ZM88.144 33.7059C87.6357 34.0169 87.0555 34.1724 86.4031 34.1724C85.7583 34.1724 85.1667 34.0131 84.6282 33.6946C84.0896 33.3683 83.6611 32.9247 83.3425 32.3633C83.0315 31.8021 82.876 31.1648 82.876 30.4518C82.8685 29.7388 83.0201 29.1017 83.3311 28.5404C83.6497 27.9715 84.0782 27.5316 84.6168 27.2206C85.1553 26.902 85.7508 26.7465 86.4031 26.7541C87.0555 26.7465 87.6357 26.8982 88.144 27.2092C88.6597 27.5126 89.0541 27.9488 89.3272 28.5176C89.6078 29.0789 89.7482 29.7237 89.7482 30.4518C89.7482 31.1801 89.6078 31.8248 89.3272 32.3861C89.0541 32.9474 88.6597 33.3873 88.144 33.7059ZM43.8191 20.0184H47.369L50.5445 31.6154L53.9226 20.0184H56.8808L60.5445 31.3827L63.5937 20.0184H66.8477L62.0463 36.7665H58.9857L55.2602 25.6645L51.8405 36.7665H48.7457L43.8191 20.0184ZM72.0903 37.0623C70.8538 37.0699 69.7388 36.7968 68.7452 36.2431C67.7591 35.6818 66.9817 34.9043 66.4127 33.9106C65.8514 32.917 65.5708 31.783 65.5708 30.5086C65.5708 29.2723 65.8591 28.1535 66.4356 27.1523C67.0119 26.151 67.7932 25.3697 68.7793 24.8084C69.7654 24.2471 70.8652 23.9665 72.0788 23.9665C73.4442 23.9665 74.6388 24.2699 75.6628 24.8767C76.6944 25.4835 77.4643 26.3444 77.9725 27.4595C78.4883 28.5669 78.6742 29.8374 78.5301 31.271H68.7842C68.8114 31.8421 68.9539 32.3618 69.2117 32.8298C69.4999 33.3455 69.9019 33.7475 70.4177 34.0358C70.9335 34.324 71.5099 34.4681 72.1472 34.4681C72.6326 34.4605 73.0839 34.3771 73.5011 34.2179C73.9183 34.051 74.2709 33.8273 74.5592 33.5465C74.855 33.2659 75.0637 32.9474 75.1851 32.5909H78.4391C78.2418 33.4631 77.8474 34.2406 77.2558 34.9233C76.664 35.5984 75.9208 36.1255 75.0257 36.5048C74.1307 36.884 73.1522 37.0699 72.0903 37.0623ZM69.2231 28.1421C69.0413 28.4591 68.9153 28.8004 68.8452 29.1661H75.3055C75.2587 28.7041 75.1161 28.2832 74.8778 27.9032C74.6047 27.4557 74.2331 27.1105 73.7628 26.8678C73.2925 26.6175 72.7616 26.4924 72.1699 26.4924C71.5403 26.4924 70.9677 26.6365 70.4518 26.9247C69.9361 27.2129 69.5264 27.6188 69.2231 28.1421ZM95.2668 24.2282C95.2668 23.2118 95.498 22.3092 95.9608 21.5203C96.4234 20.7239 97.072 20.1057 97.9064 19.6657C98.7483 19.2182 99.7307 18.9868 100.853 18.9717V21.7365C100.33 21.7441 99.8823 21.854 99.5107 22.0664C99.1465 22.2712 98.8659 22.5708 98.6687 22.9653C98.4872 23.3284 98.3892 23.7494 98.3748 24.2282H100.785V26.8565H98.3729V36.7665H95.2668V26.8565H93.2643V24.2282H95.2668ZM113.084 37.0395C111.817 37.0395 110.683 36.7626 109.682 36.209C108.688 35.6476 107.907 34.874 107.338 33.8878C106.777 32.8942 106.496 31.7678 106.496 30.5086C106.496 29.242 106.777 28.1117 107.338 27.1181C107.907 26.1168 108.688 25.3393 109.682 24.7856C110.683 24.2319 111.817 23.955 113.084 23.955C114.358 23.955 115.496 24.2319 116.497 24.7856C117.506 25.3393 118.291 26.113 118.852 27.1067C119.414 28.1003 119.698 29.2343 119.706 30.5086C119.698 31.7678 119.414 32.8942 118.852 33.8878C118.299 34.874 117.517 35.6476 116.508 36.209C115.5 36.7626 114.358 37.0395 113.084 37.0395ZM113.084 34.1837C113.751 34.1837 114.343 34.032 114.859 33.7286C115.375 33.4176 115.773 32.9852 116.053 32.4315C116.334 31.8702 116.474 31.2292 116.474 30.5086C116.474 29.7805 116.334 29.1357 116.053 28.5744C115.773 28.0131 115.375 27.5808 114.859 27.2774C114.343 26.9664 113.751 26.8109 113.084 26.8109C112.424 26.8109 111.836 26.9664 111.32 27.2774C110.812 27.5808 110.418 28.0131 110.137 28.5744C109.856 29.1357 109.72 29.7805 109.727 30.5086C109.727 31.2292 109.868 31.8702 110.148 32.4315C110.437 32.9852 110.831 33.4176 111.332 33.7286C111.84 34.032 112.424 34.1837 113.084 34.1837ZM123.062 24.2282H119.603L123.347 36.7665H126.373L128.835 28.7583L131.493 36.7665H134.474L138.229 24.2282H135.1L132.97 32.0325L130.616 24.2282H127.591L125.248 32.2044L123.062 24.2282Z" fill="black"/>
<path d="M39.3193 16.75L27.8098 39.25H16.999L21.8158 29.925H21.5996C17.6259 35.0835 11.6969 38.4794 3.24902 39.25V30.0541C3.24902 30.0541 8.65334 29.7349 11.8304 26.3947H3.24902V16.7502H12.8935V24.6826L13.11 24.6818L17.0511 16.7502H24.345V24.6323L24.5614 24.632L28.6504 16.75H39.3193ZM102.082 36.7665H105.188V18.9375H102.082V36.7665ZM84.9582 36.5844C85.6332 36.8651 86.3197 37.0054 87.0176 37.0054C88.1705 37.0054 89.2021 36.7248 90.1123 36.1634C91.0225 35.6022 91.728 34.8286 92.2286 33.8424C92.7292 32.8488 92.9795 31.7223 92.9795 30.4632C92.9795 29.2041 92.7216 28.0777 92.2058 27.084C91.69 26.0904 90.9732 25.3205 90.0553 24.7744C89.1376 24.2206 88.0946 23.9476 86.9265 23.9552C86.1832 23.9552 85.4702 24.0993 84.7875 24.3875C84.1048 24.6758 83.536 25.0854 83.0808 25.6163C83.0457 25.6567 83.0116 25.6976 82.9785 25.7388V18.9489H79.861V36.7666H82.9557L82.9495 35.1021C83.0295 35.2002 83.1151 35.2961 83.206 35.3898C83.699 35.8981 84.2831 36.2962 84.9582 36.5844ZM88.144 33.7059C87.6357 34.0169 87.0555 34.1724 86.4031 34.1724C85.7583 34.1724 85.1667 34.0131 84.6282 33.6946C84.0896 33.3683 83.6611 32.9247 83.3425 32.3633C83.0315 31.8021 82.876 31.1648 82.876 30.4518C82.8685 29.7388 83.0201 29.1017 83.3311 28.5404C83.6497 27.9715 84.0782 27.5316 84.6168 27.2206C85.1553 26.902 85.7508 26.7465 86.4031 26.7541C87.0555 26.7465 87.6357 26.8982 88.144 27.2092C88.6597 27.5126 89.0541 27.9488 89.3272 28.5176C89.6078 29.0789 89.7482 29.7237 89.7482 30.4518C89.7482 31.1801 89.6078 31.8248 89.3272 32.3861C89.0541 32.9474 88.6597 33.3873 88.144 33.7059ZM43.8191 20.0184H47.369L50.5445 31.6154L53.9226 20.0184H56.8808L60.5445 31.3827L63.5937 20.0184H66.8477L62.0463 36.7665H58.9857L55.2602 25.6645L51.8405 36.7665H48.7457L43.8191 20.0184ZM72.0903 37.0623C70.8538 37.0699 69.7388 36.7968 68.7452 36.2431C67.7591 35.6818 66.9817 34.9043 66.4127 33.9106C65.8514 32.917 65.5708 31.783 65.5708 30.5086C65.5708 29.2723 65.8591 28.1535 66.4356 27.1523C67.0119 26.151 67.7932 25.3697 68.7793 24.8084C69.7654 24.2471 70.8652 23.9665 72.0788 23.9665C73.4442 23.9665 74.6388 24.2699 75.6628 24.8767C76.6944 25.4835 77.4643 26.3444 77.9725 27.4595C78.4883 28.5669 78.6742 29.8374 78.5301 31.271H68.7842C68.8114 31.8421 68.9539 32.3618 69.2117 32.8298C69.4999 33.3455 69.9019 33.7475 70.4177 34.0358C70.9335 34.324 71.5099 34.4681 72.1472 34.4681C72.6326 34.4605 73.0839 34.3771 73.5011 34.2179C73.9183 34.051 74.2709 33.8273 74.5592 33.5465C74.855 33.2659 75.0637 32.9474 75.1851 32.5909H78.4391C78.2418 33.4631 77.8474 34.2406 77.2558 34.9233C76.664 35.5984 75.9208 36.1255 75.0257 36.5048C74.1307 36.884 73.1522 37.0699 72.0903 37.0623ZM69.2231 28.1421C69.0413 28.4591 68.9153 28.8004 68.8452 29.1661H75.3055C75.2587 28.7041 75.1161 28.2832 74.8778 27.9032C74.6047 27.4557 74.2331 27.1105 73.7628 26.8678C73.2925 26.6175 72.7616 26.4924 72.1699 26.4924C71.5403 26.4924 70.9677 26.6365 70.4518 26.9247C69.9361 27.2129 69.5264 27.6188 69.2231 28.1421ZM95.2668 24.2282C95.2668 23.2118 95.498 22.3092 95.9608 21.5203C96.4234 20.7239 97.072 20.1057 97.9064 19.6657C98.7483 19.2182 99.7307 18.9868 100.853 18.9717V21.7365C100.33 21.7441 99.8823 21.854 99.5107 22.0664C99.1465 22.2712 98.8659 22.5708 98.6687 22.9653C98.4872 23.3284 98.3892 23.7494 98.3748 24.2282H100.785V26.8565H98.3729V36.7665H95.2668V26.8565H93.2643V24.2282H95.2668ZM113.084 37.0395C111.817 37.0395 110.683 36.7626 109.682 36.209C108.688 35.6476 107.907 34.874 107.338 33.8878C106.777 32.8942 106.496 31.7678 106.496 30.5086C106.496 29.242 106.777 28.1117 107.338 27.1181C107.907 26.1168 108.688 25.3393 109.682 24.7856C110.683 24.2319 111.817 23.955 113.084 23.955C114.358 23.955 115.496 24.2319 116.497 24.7856C117.506 25.3393 118.291 26.113 118.852 27.1067C119.414 28.1003 119.698 29.2343 119.706 30.5086C119.698 31.7678 119.414 32.8942 118.852 33.8878C118.299 34.874 117.517 35.6476 116.508 36.209C115.5 36.7626 114.358 37.0395 113.084 37.0395ZM113.084 34.1837C113.751 34.1837 114.343 34.032 114.859 33.7286C115.375 33.4176 115.773 32.9852 116.053 32.4315C116.334 31.8702 116.474 31.2292 116.474 30.5086C116.474 29.7805 116.334 29.1357 116.053 28.5744C115.773 28.0131 115.375 27.5808 114.859 27.2774C114.343 26.9664 113.751 26.8109 113.084 26.8109C112.424 26.8109 111.836 26.9664 111.32 27.2774C110.812 27.5808 110.418 28.0131 110.137 28.5744C109.856 29.1357 109.72 29.7805 109.727 30.5086C109.727 31.2292 109.868 31.8702 110.148 32.4315C110.437 32.9852 110.831 33.4176 111.332 33.7286C111.84 34.032 112.424 34.1837 113.084 34.1837ZM123.062 24.2282H119.603L123.347 36.7665H126.373L128.835 28.7583L131.493 36.7665H134.474L138.229 24.2282H135.1L132.97 32.0325L130.616 24.2282H127.591L125.248 32.2044L123.062 24.2282Z" fill="black"/>
</svg>
