<svg width="140" height="56" viewBox="0 0 140 56" fill="none" xmlns="http://www.w3.org/2000/svg">
<path fill-rule="evenodd" clip-rule="evenodd" d="M35.5556 19.2355L35.8068 19.684C36.123 20.2289 36.29 20.8476 36.2911 21.4776V35.3791C36.2859 36.0086 36.1191 36.6262 35.8068 37.1728L35.5377 37.6213C35.2305 38.1703 34.7772 38.6234 34.2284 38.9307L22.1924 45.8903C21.6473 46.2065 21.0287 46.3735 20.3986 46.3747H19.8964C19.2654 46.3806 18.6449 46.213 18.1026 45.8903L6.04876 38.9487C5.51152 38.6261 5.06183 38.1765 4.73934 37.6392L4.48822 37.1908C4.17206 36.6457 4.00503 36.0271 4.00391 35.397V21.4955C4.00503 20.8656 4.17206 20.2468 4.48822 19.7019L4.73934 19.2535C5.0537 18.7099 5.50522 18.2583 6.04876 17.944L18.0847 10.9843C18.6297 10.6682 19.2483 10.5011 19.8784 10.5H20.3986C21.0287 10.5011 21.6473 10.6682 22.1924 10.9843L34.2284 17.9261C34.775 18.2425 35.2318 18.6932 35.5556 19.2355ZM20.3986 14.0874H19.8784L9.38513 20.1502L20.1475 26.3565L30.9099 20.1502L20.3986 14.0874ZM32.4345 35.8276L21.9412 41.8905V29.4778L32.7036 23.2536V35.3792L32.4345 35.8276ZM83.0672 37.0475H79.3477V17.4169H83.0672V37.0475ZM49.5039 37.4683H53.6625V30.3392H55.4706L59.8875 37.4683H64.3302L59.4484 29.6161C61.6181 28.9703 63.2454 27.498 63.2454 24.7084V24.605C63.2454 20.7823 60.4816 19 56.1163 19H49.5039V37.4683ZM53.6625 27.498V22.2029H56.013C58.0278 22.2029 59.1643 22.8487 59.1643 24.7342V24.8375C59.1643 26.6198 58.1053 27.498 56.013 27.498H53.6625ZM71.0845 37.3309C74.7781 37.3309 77.1028 35.7037 77.5419 32.7849H74.0032C73.7707 33.9214 72.9184 34.6705 71.1878 34.6705C69.1472 34.6705 67.9333 33.379 67.8299 31.1318H77.5678V30.0986C77.5678 25.2684 74.4682 23.2279 70.9811 23.2279C67.055 23.2279 64.0329 25.9917 64.0329 30.2536V30.4602C64.0329 34.7738 67.0033 37.3309 71.0845 37.3309ZM67.8816 28.833C68.1657 26.9215 69.3022 25.8109 70.9811 25.8109C72.7634 25.8109 73.7966 26.7924 73.9258 28.833H67.8816ZM90.2024 37.332C92.424 37.332 93.7925 36.2988 94.4899 34.9299V37.0479H98.2095V23.5389H94.4899V31.4687C94.4899 33.4576 93.25 34.4391 91.675 34.4391C90.0738 34.4391 89.3239 33.5609 89.3239 31.727V23.5389H85.6048V32.2436C85.6048 35.7822 87.5678 37.332 90.2024 37.332ZM104.495 37.0468H100.749V23.5378H104.495V25.6042C105.166 24.3385 106.612 23.2279 108.627 23.2279C110.41 23.2279 111.753 23.977 112.398 25.5784C113.483 23.9511 115.24 23.2279 116.944 23.2279C119.45 23.2279 121.387 24.8035 121.387 28.3939V37.0468H117.668V28.8071C117.668 27.0765 116.892 26.3016 115.549 26.3016C114.103 26.3016 112.941 27.2315 112.941 29.0654V37.0468H109.221V28.8071C109.221 27.0765 108.421 26.3016 107.103 26.3016C105.657 26.3016 104.495 27.2315 104.495 29.0654V37.0468ZM130.035 37.3309C133.73 37.3309 136.054 35.7037 136.493 32.7849H132.954C132.722 33.9214 131.869 34.6705 130.139 34.6705C128.098 34.6705 126.885 33.379 126.781 31.1318H136.519V30.0986C136.519 25.2684 133.419 23.2279 129.932 23.2279C126.006 23.2279 122.984 25.9917 122.984 30.2536V30.4602C122.984 34.7738 125.954 37.3309 130.035 37.3309ZM126.833 28.833C127.117 26.9215 128.254 25.8109 129.932 25.8109C131.714 25.8109 132.748 26.7924 132.877 28.833H126.833Z" fill="black"/>
</svg>
