<svg width="140" height="57" viewBox="0 0 140 57" fill="none" xmlns="http://www.w3.org/2000/svg">
<path fill-rule="evenodd" clip-rule="evenodd" d="M35.5537 19.8351L35.8048 20.2836C36.121 20.8285 36.2881 21.4472 36.2891 22.0772V35.9787C36.284 36.6082 36.1172 37.2258 35.8048 37.7725L35.5357 38.2209C35.2285 38.7699 34.7753 39.223 34.2264 39.5303L22.1904 46.49C21.6454 46.8061 21.0267 46.9731 20.3967 46.9743H19.8944C19.2635 46.9802 18.643 46.8126 18.1007 46.49L6.04681 39.5483C5.50956 39.2257 5.05988 38.7761 4.73739 38.2388L4.48626 37.7904C4.17011 37.2454 4.00307 36.6267 4.00195 35.9967V22.0952C4.00307 21.4652 4.17011 20.8464 4.48626 20.3015L4.73739 19.8531C5.05175 19.3095 5.50326 18.8579 6.04681 18.5436L18.0827 11.5839C18.6278 11.2678 19.2464 11.1007 19.8765 11.0996H20.3967C21.0267 11.1007 21.6454 11.2678 22.1904 11.5839L34.2264 18.5257C34.773 18.8421 35.2298 19.2928 35.5537 19.8351ZM20.3967 14.687H19.8765L9.38318 20.7499L20.1455 26.9561L30.908 20.7499L20.3967 14.687ZM32.4326 36.4272L21.9393 42.4901V30.0774L32.7016 23.8532V35.9788L32.4326 36.4272ZM83.0652 37.6471H79.3457V18.0165H83.0652V37.6471ZM49.502 38.0679H53.6605V30.9389H55.4686L59.8855 38.0679H64.3282L59.4465 30.2157C61.6162 29.5699 63.2434 28.0976 63.2434 25.308V25.2047C63.2434 21.3819 60.4797 19.5996 56.1144 19.5996H49.502V38.0679ZM53.6605 28.0976V22.8025H56.011C58.0258 22.8025 59.1623 23.4483 59.1623 25.3338V25.4371C59.1623 27.2194 58.1033 28.0976 56.011 28.0976H53.6605ZM71.0825 37.9305C74.7762 37.9305 77.1008 36.3033 77.5399 33.3845H74.0013C73.7688 34.521 72.9164 35.2701 71.1859 35.2701C69.1453 35.2701 67.9313 33.9786 67.828 31.7314H77.5658V30.6982C77.5658 25.868 74.4662 23.8275 70.9792 23.8275C67.0531 23.8275 64.0309 26.5913 64.0309 30.8532V31.0598C64.0309 35.3734 67.0014 37.9305 71.0825 37.9305ZM67.8796 29.4326C68.1637 27.5211 69.3003 26.4105 70.9792 26.4105C72.7615 26.4105 73.7947 27.392 73.9238 29.4326H67.8796ZM90.2004 37.9316C92.422 37.9316 93.7905 36.8984 94.4879 35.5295V37.6475H98.2075V24.1385H94.4879V32.0683C94.4879 34.0572 93.248 35.0387 91.673 35.0387C90.0718 35.0387 89.3219 34.1605 89.3219 32.3266V24.1385H85.6028V32.8432C85.6028 36.3818 87.5658 37.9316 90.2004 37.9316ZM104.493 37.6464H100.747V24.1374H104.493V26.2038C105.164 24.9381 106.61 23.8275 108.625 23.8275C110.408 23.8275 111.751 24.5766 112.396 26.178C113.481 24.5507 115.238 23.8275 116.942 23.8275C119.448 23.8275 121.385 25.4031 121.385 28.9935V37.6464H117.666V29.4067C117.666 27.6761 116.89 26.9012 115.547 26.9012C114.101 26.9012 112.939 27.8311 112.939 29.665V37.6464H109.219V29.4067C109.219 27.6761 108.419 26.9012 107.101 26.9012C105.655 26.9012 104.493 27.8311 104.493 29.665V37.6464ZM130.033 37.9305C133.728 37.9305 136.053 36.3033 136.491 33.3845H132.952C132.72 34.521 131.867 35.2701 130.137 35.2701C128.096 35.2701 126.883 33.9786 126.779 31.7314H136.517V30.6982C136.517 25.868 133.417 23.8275 129.93 23.8275C126.004 23.8275 122.982 26.5913 122.982 30.8532V31.0598C122.982 35.3734 125.952 37.9305 130.033 37.9305ZM126.831 29.4326C127.115 27.5211 128.252 26.4105 129.93 26.4105C131.713 26.4105 132.746 27.392 132.875 29.4326H126.831Z" fill="black"/>
</svg>
