<svg width="141" height="56" viewBox="0 0 141 56" fill="none" xmlns="http://www.w3.org/2000/svg">
<path fill-rule="evenodd" clip-rule="evenodd" d="M39.0693 16.75L27.5598 39.25H16.749L21.5658 29.925H21.3496C17.3759 35.0835 11.4469 38.4794 2.99902 39.25V30.0541C2.99902 30.0541 8.40334 29.7349 11.5804 26.3947H2.99902V16.7502H12.6435V24.6826L12.86 24.6818L16.8011 16.7502H24.095V24.6323L24.3114 24.632L28.4004 16.75H39.0693ZM101.832 36.7665H104.938V18.9375H101.832V36.7665ZM84.7082 36.5844C85.3832 36.8651 86.0697 37.0054 86.7676 37.0054C87.9205 37.0054 88.9521 36.7248 89.8623 36.1634C90.7725 35.6022 91.478 34.8286 91.9786 33.8424C92.4792 32.8488 92.7295 31.7223 92.7295 30.4632C92.7295 29.2041 92.4716 28.0777 91.9558 27.084C91.44 26.0904 90.7232 25.3205 89.8053 24.7744C88.8876 24.2206 87.8446 23.9476 86.6765 23.9552C85.9332 23.9552 85.2202 24.0993 84.5375 24.3875C83.8548 24.6758 83.286 25.0854 82.8308 25.6163C82.7957 25.6567 82.7616 25.6976 82.7285 25.7388V18.9489H79.611V36.7666H82.7057L82.6995 35.1021C82.7795 35.2002 82.8651 35.2961 82.956 35.3898C83.449 35.8981 84.0331 36.2962 84.7082 36.5844ZM87.894 33.7059C87.3857 34.0169 86.8055 34.1724 86.1531 34.1724C85.5083 34.1724 84.9167 34.0131 84.3782 33.6946C83.8396 33.3683 83.4111 32.9247 83.0925 32.3633C82.7815 31.8021 82.626 31.1648 82.626 30.4518C82.6185 29.7388 82.7701 29.1017 83.0811 28.5404C83.3997 27.9715 83.8282 27.5316 84.3668 27.2206C84.9053 26.902 85.5008 26.7465 86.1531 26.7541C86.8055 26.7465 87.3857 26.8982 87.894 27.2092C88.4097 27.5126 88.8041 27.9488 89.0772 28.5176C89.3578 29.0789 89.4982 29.7237 89.4982 30.4518C89.4982 31.1801 89.3578 31.8248 89.0772 32.3861C88.8041 32.9474 88.4097 33.3873 87.894 33.7059ZM43.5691 20.0184H47.119L50.2945 31.6154L53.6726 20.0184H56.6308L60.2945 31.3827L63.3437 20.0184H66.5977L61.7963 36.7665H58.7357L55.0102 25.6645L51.5905 36.7665H48.4957L43.5691 20.0184ZM71.8403 37.0623C70.6038 37.0699 69.4888 36.7968 68.4952 36.2431C67.5091 35.6818 66.7317 34.9043 66.1627 33.9106C65.6014 32.917 65.3208 31.783 65.3208 30.5086C65.3208 29.2723 65.6091 28.1535 66.1856 27.1523C66.7619 26.151 67.5432 25.3697 68.5293 24.8084C69.5154 24.2471 70.6152 23.9665 71.8288 23.9665C73.1942 23.9665 74.3888 24.2699 75.4128 24.8767C76.4444 25.4835 77.2143 26.3444 77.7225 27.4595C78.2383 28.5669 78.4242 29.8374 78.2801 31.271H68.5342C68.5614 31.8421 68.7039 32.3618 68.9617 32.8298C69.2499 33.3455 69.6519 33.7475 70.1677 34.0358C70.6835 34.324 71.2599 34.4681 71.8972 34.4681C72.3826 34.4605 72.8339 34.3771 73.2511 34.2179C73.6683 34.051 74.0209 33.8273 74.3092 33.5465C74.605 33.2659 74.8137 32.9474 74.9351 32.5909H78.1891C77.9918 33.4631 77.5974 34.2406 77.0058 34.9233C76.414 35.5984 75.6708 36.1255 74.7757 36.5048C73.8807 36.884 72.9022 37.0699 71.8403 37.0623ZM68.9731 28.1421C68.7913 28.4591 68.6653 28.8004 68.5952 29.1661H75.0555C75.0087 28.7041 74.8661 28.2832 74.6278 27.9032C74.3547 27.4557 73.9831 27.1105 73.5128 26.8678C73.0425 26.6175 72.5116 26.4924 71.9199 26.4924C71.2903 26.4924 70.7177 26.6365 70.2018 26.9247C69.6861 27.2129 69.2764 27.6188 68.9731 28.1421ZM95.0168 24.2282C95.0168 23.2118 95.248 22.3092 95.7108 21.5203C96.1734 20.7239 96.822 20.1057 97.6564 19.6657C98.4983 19.2182 99.4807 18.9868 100.603 18.9717V21.7365C100.08 21.7441 99.6323 21.854 99.2607 22.0664C98.8965 22.2712 98.6159 22.5708 98.4187 22.9653C98.2372 23.3284 98.1392 23.7494 98.1248 24.2282H100.535V26.8565H98.1229V36.7665H95.0168V26.8565H93.0143V24.2282H95.0168ZM112.834 37.0395C111.567 37.0395 110.433 36.7626 109.432 36.209C108.438 35.6476 107.657 34.874 107.088 33.8878C106.527 32.8942 106.246 31.7678 106.246 30.5086C106.246 29.242 106.527 28.1117 107.088 27.1181C107.657 26.1168 108.438 25.3393 109.432 24.7856C110.433 24.2319 111.567 23.955 112.834 23.955C114.108 23.955 115.246 24.2319 116.247 24.7856C117.256 25.3393 118.041 26.113 118.602 27.1067C119.164 28.1003 119.448 29.2343 119.456 30.5086C119.448 31.7678 119.164 32.8942 118.602 33.8878C118.049 34.874 117.267 35.6476 116.258 36.209C115.25 36.7626 114.108 37.0395 112.834 37.0395ZM112.834 34.1837C113.501 34.1837 114.093 34.032 114.609 33.7286C115.125 33.4176 115.523 32.9852 115.803 32.4315C116.084 31.8702 116.224 31.2292 116.224 30.5086C116.224 29.7805 116.084 29.1357 115.803 28.5744C115.523 28.0131 115.125 27.5808 114.609 27.2774C114.093 26.9664 113.501 26.8109 112.834 26.8109C112.174 26.8109 111.586 26.9664 111.07 27.2774C110.562 27.5808 110.168 28.0131 109.887 28.5744C109.606 29.1357 109.47 29.7805 109.477 30.5086C109.477 31.2292 109.618 31.8702 109.898 32.4315C110.187 32.9852 110.581 33.4176 111.082 33.7286C111.59 34.032 112.174 34.1837 112.834 34.1837ZM122.812 24.2282H119.353L123.097 36.7665H126.123L128.585 28.7583L131.243 36.7665H134.224L137.979 24.2282H134.85L132.72 32.0325L130.366 24.2282H127.341L124.998 32.2044L122.812 24.2282Z" fill="black"/>
<path d="M39.0693 16.75L27.5598 39.25H16.749L21.5658 29.925H21.3496C17.3759 35.0835 11.4469 38.4794 2.99902 39.25V30.0541C2.99902 30.0541 8.40334 29.7349 11.5804 26.3947H2.99902V16.7502H12.6435V24.6826L12.86 24.6818L16.8011 16.7502H24.095V24.6323L24.3114 24.632L28.4004 16.75H39.0693ZM101.832 36.7665H104.938V18.9375H101.832V36.7665ZM84.7082 36.5844C85.3832 36.8651 86.0697 37.0054 86.7676 37.0054C87.9205 37.0054 88.9521 36.7248 89.8623 36.1634C90.7725 35.6022 91.478 34.8286 91.9786 33.8424C92.4792 32.8488 92.7295 31.7223 92.7295 30.4632C92.7295 29.2041 92.4716 28.0777 91.9558 27.084C91.44 26.0904 90.7232 25.3205 89.8053 24.7744C88.8876 24.2206 87.8446 23.9476 86.6765 23.9552C85.9332 23.9552 85.2202 24.0993 84.5375 24.3875C83.8548 24.6758 83.286 25.0854 82.8308 25.6163C82.7957 25.6567 82.7616 25.6976 82.7285 25.7388V18.9489H79.611V36.7666H82.7057L82.6995 35.1021C82.7795 35.2002 82.8651 35.2961 82.956 35.3898C83.449 35.8981 84.0331 36.2962 84.7082 36.5844ZM87.894 33.7059C87.3857 34.0169 86.8055 34.1724 86.1531 34.1724C85.5083 34.1724 84.9167 34.0131 84.3782 33.6946C83.8396 33.3683 83.4111 32.9247 83.0925 32.3633C82.7815 31.8021 82.626 31.1648 82.626 30.4518C82.6185 29.7388 82.7701 29.1017 83.0811 28.5404C83.3997 27.9715 83.8282 27.5316 84.3668 27.2206C84.9053 26.902 85.5008 26.7465 86.1531 26.7541C86.8055 26.7465 87.3857 26.8982 87.894 27.2092C88.4097 27.5126 88.8041 27.9488 89.0772 28.5176C89.3578 29.0789 89.4982 29.7237 89.4982 30.4518C89.4982 31.1801 89.3578 31.8248 89.0772 32.3861C88.8041 32.9474 88.4097 33.3873 87.894 33.7059ZM43.5691 20.0184H47.119L50.2945 31.6154L53.6726 20.0184H56.6308L60.2945 31.3827L63.3437 20.0184H66.5977L61.7963 36.7665H58.7357L55.0102 25.6645L51.5905 36.7665H48.4957L43.5691 20.0184ZM71.8403 37.0623C70.6038 37.0699 69.4888 36.7968 68.4952 36.2431C67.5091 35.6818 66.7317 34.9043 66.1627 33.9106C65.6014 32.917 65.3208 31.783 65.3208 30.5086C65.3208 29.2723 65.6091 28.1535 66.1856 27.1523C66.7619 26.151 67.5432 25.3697 68.5293 24.8084C69.5154 24.2471 70.6152 23.9665 71.8288 23.9665C73.1942 23.9665 74.3888 24.2699 75.4128 24.8767C76.4444 25.4835 77.2143 26.3444 77.7225 27.4595C78.2383 28.5669 78.4242 29.8374 78.2801 31.271H68.5342C68.5614 31.8421 68.7039 32.3618 68.9617 32.8298C69.2499 33.3455 69.6519 33.7475 70.1677 34.0358C70.6835 34.324 71.2599 34.4681 71.8972 34.4681C72.3826 34.4605 72.8339 34.3771 73.2511 34.2179C73.6683 34.051 74.0209 33.8273 74.3092 33.5465C74.605 33.2659 74.8137 32.9474 74.9351 32.5909H78.1891C77.9918 33.4631 77.5974 34.2406 77.0058 34.9233C76.414 35.5984 75.6708 36.1255 74.7757 36.5048C73.8807 36.884 72.9022 37.0699 71.8403 37.0623ZM68.9731 28.1421C68.7913 28.4591 68.6653 28.8004 68.5952 29.1661H75.0555C75.0087 28.7041 74.8661 28.2832 74.6278 27.9032C74.3547 27.4557 73.9831 27.1105 73.5128 26.8678C73.0425 26.6175 72.5116 26.4924 71.9199 26.4924C71.2903 26.4924 70.7177 26.6365 70.2018 26.9247C69.6861 27.2129 69.2764 27.6188 68.9731 28.1421ZM95.0168 24.2282C95.0168 23.2118 95.248 22.3092 95.7108 21.5203C96.1734 20.7239 96.822 20.1057 97.6564 19.6657C98.4983 19.2182 99.4807 18.9868 100.603 18.9717V21.7365C100.08 21.7441 99.6323 21.854 99.2607 22.0664C98.8965 22.2712 98.6159 22.5708 98.4187 22.9653C98.2372 23.3284 98.1392 23.7494 98.1248 24.2282H100.535V26.8565H98.1229V36.7665H95.0168V26.8565H93.0143V24.2282H95.0168ZM112.834 37.0395C111.567 37.0395 110.433 36.7626 109.432 36.209C108.438 35.6476 107.657 34.874 107.088 33.8878C106.527 32.8942 106.246 31.7678 106.246 30.5086C106.246 29.242 106.527 28.1117 107.088 27.1181C107.657 26.1168 108.438 25.3393 109.432 24.7856C110.433 24.2319 111.567 23.955 112.834 23.955C114.108 23.955 115.246 24.2319 116.247 24.7856C117.256 25.3393 118.041 26.113 118.602 27.1067C119.164 28.1003 119.448 29.2343 119.456 30.5086C119.448 31.7678 119.164 32.8942 118.602 33.8878C118.049 34.874 117.267 35.6476 116.258 36.209C115.25 36.7626 114.108 37.0395 112.834 37.0395ZM112.834 34.1837C113.501 34.1837 114.093 34.032 114.609 33.7286C115.125 33.4176 115.523 32.9852 115.803 32.4315C116.084 31.8702 116.224 31.2292 116.224 30.5086C116.224 29.7805 116.084 29.1357 115.803 28.5744C115.523 28.0131 115.125 27.5808 114.609 27.2774C114.093 26.9664 113.501 26.8109 112.834 26.8109C112.174 26.8109 111.586 26.9664 111.07 27.2774C110.562 27.5808 110.168 28.0131 109.887 28.5744C109.606 29.1357 109.47 29.7805 109.477 30.5086C109.477 31.2292 109.618 31.8702 109.898 32.4315C110.187 32.9852 110.581 33.4176 111.082 33.7286C111.59 34.032 112.174 34.1837 112.834 34.1837ZM122.812 24.2282H119.353L123.097 36.7665H126.123L128.585 28.7583L131.243 36.7665H134.224L137.979 24.2282H134.85L132.72 32.0325L130.366 24.2282H127.341L124.998 32.2044L122.812 24.2282Z" fill="black"/>
<path fill-rule="evenodd" clip-rule="evenodd" d="M39.0693 16.75L27.5598 39.25H16.749L21.5658 29.925H21.3496C17.3759 35.0835 11.4469 38.4794 2.99902 39.25V30.0541C2.99902 30.0541 8.40334 29.7349 11.5804 26.3947H2.99902V16.7502H12.6435V24.6826L12.86 24.6818L16.8011 16.7502H24.095V24.6323L24.3114 24.632L28.4004 16.75H39.0693ZM101.832 36.7665H104.938V18.9375H101.832V36.7665ZM84.7082 36.5844C85.3832 36.8651 86.0697 37.0054 86.7676 37.0054C87.9205 37.0054 88.9521 36.7248 89.8623 36.1634C90.7725 35.6022 91.478 34.8286 91.9786 33.8424C92.4792 32.8488 92.7295 31.7223 92.7295 30.4632C92.7295 29.2041 92.4716 28.0777 91.9558 27.084C91.44 26.0904 90.7232 25.3205 89.8053 24.7744C88.8876 24.2206 87.8446 23.9476 86.6765 23.9552C85.9332 23.9552 85.2202 24.0993 84.5375 24.3875C83.8548 24.6758 83.286 25.0854 82.8308 25.6163C82.7957 25.6567 82.7616 25.6976 82.7285 25.7388V18.9489H79.611V36.7666H82.7057L82.6995 35.1021C82.7795 35.2002 82.8651 35.2961 82.956 35.3898C83.449 35.8981 84.0331 36.2962 84.7082 36.5844ZM87.894 33.7059C87.3857 34.0169 86.8055 34.1724 86.1531 34.1724C85.5083 34.1724 84.9167 34.0131 84.3782 33.6946C83.8396 33.3683 83.4111 32.9247 83.0925 32.3633C82.7815 31.8021 82.626 31.1648 82.626 30.4518C82.6185 29.7388 82.7701 29.1017 83.0811 28.5404C83.3997 27.9715 83.8282 27.5316 84.3668 27.2206C84.9053 26.902 85.5008 26.7465 86.1531 26.7541C86.8055 26.7465 87.3857 26.8982 87.894 27.2092C88.4097 27.5126 88.8041 27.9488 89.0772 28.5176C89.3578 29.0789 89.4982 29.7237 89.4982 30.4518C89.4982 31.1801 89.3578 31.8248 89.0772 32.3861C88.8041 32.9474 88.4097 33.3873 87.894 33.7059ZM43.5691 20.0184H47.119L50.2945 31.6154L53.6726 20.0184H56.6308L60.2945 31.3827L63.3437 20.0184H66.5977L61.7963 36.7665H58.7357L55.0102 25.6645L51.5905 36.7665H48.4957L43.5691 20.0184ZM71.8403 37.0623C70.6038 37.0699 69.4888 36.7968 68.4952 36.2431C67.5091 35.6818 66.7317 34.9043 66.1627 33.9106C65.6014 32.917 65.3208 31.783 65.3208 30.5086C65.3208 29.2723 65.6091 28.1535 66.1856 27.1523C66.7619 26.151 67.5432 25.3697 68.5293 24.8084C69.5154 24.2471 70.6152 23.9665 71.8288 23.9665C73.1942 23.9665 74.3888 24.2699 75.4128 24.8767C76.4444 25.4835 77.2143 26.3444 77.7225 27.4595C78.2383 28.5669 78.4242 29.8374 78.2801 31.271H68.5342C68.5614 31.8421 68.7039 32.3618 68.9617 32.8298C69.2499 33.3455 69.6519 33.7475 70.1677 34.0358C70.6835 34.324 71.2599 34.4681 71.8972 34.4681C72.3826 34.4605 72.8339 34.3771 73.2511 34.2179C73.6683 34.051 74.0209 33.8273 74.3092 33.5465C74.605 33.2659 74.8137 32.9474 74.9351 32.5909H78.1891C77.9918 33.4631 77.5974 34.2406 77.0058 34.9233C76.414 35.5984 75.6708 36.1255 74.7757 36.5048C73.8807 36.884 72.9022 37.0699 71.8403 37.0623ZM68.9731 28.1421C68.7913 28.4591 68.6653 28.8004 68.5952 29.1661H75.0555C75.0087 28.7041 74.8661 28.2832 74.6278 27.9032C74.3547 27.4557 73.9831 27.1105 73.5128 26.8678C73.0425 26.6175 72.5116 26.4924 71.9199 26.4924C71.2903 26.4924 70.7177 26.6365 70.2018 26.9247C69.6861 27.2129 69.2764 27.6188 68.9731 28.1421ZM95.0168 24.2282C95.0168 23.2118 95.248 22.3092 95.7108 21.5203C96.1734 20.7239 96.822 20.1057 97.6564 19.6657C98.4983 19.2182 99.4807 18.9868 100.603 18.9717V21.7365C100.08 21.7441 99.6323 21.854 99.2607 22.0664C98.8965 22.2712 98.6159 22.5708 98.4187 22.9653C98.2372 23.3284 98.1392 23.7494 98.1248 24.2282H100.535V26.8565H98.1229V36.7665H95.0168V26.8565H93.0143V24.2282H95.0168ZM112.834 37.0395C111.567 37.0395 110.433 36.7626 109.432 36.209C108.438 35.6476 107.657 34.874 107.088 33.8878C106.527 32.8942 106.246 31.7678 106.246 30.5086C106.246 29.242 106.527 28.1117 107.088 27.1181C107.657 26.1168 108.438 25.3393 109.432 24.7856C110.433 24.2319 111.567 23.955 112.834 23.955C114.108 23.955 115.246 24.2319 116.247 24.7856C117.256 25.3393 118.041 26.113 118.602 27.1067C119.164 28.1003 119.448 29.2343 119.456 30.5086C119.448 31.7678 119.164 32.8942 118.602 33.8878C118.049 34.874 117.267 35.6476 116.258 36.209C115.25 36.7626 114.108 37.0395 112.834 37.0395ZM112.834 34.1837C113.501 34.1837 114.093 34.032 114.609 33.7286C115.125 33.4176 115.523 32.9852 115.803 32.4315C116.084 31.8702 116.224 31.2292 116.224 30.5086C116.224 29.7805 116.084 29.1357 115.803 28.5744C115.523 28.0131 115.125 27.5808 114.609 27.2774C114.093 26.9664 113.501 26.8109 112.834 26.8109C112.174 26.8109 111.586 26.9664 111.07 27.2774C110.562 27.5808 110.168 28.0131 109.887 28.5744C109.606 29.1357 109.47 29.7805 109.477 30.5086C109.477 31.2292 109.618 31.8702 109.898 32.4315C110.187 32.9852 110.581 33.4176 111.082 33.7286C111.59 34.032 112.174 34.1837 112.834 34.1837ZM122.812 24.2282H119.353L123.097 36.7665H126.123L128.585 28.7583L131.243 36.7665H134.224L137.979 24.2282H134.85L132.72 32.0325L130.366 24.2282H127.341L124.998 32.2044L122.812 24.2282Z" fill="black"/>
<path d="M39.0693 16.75L27.5598 39.25H16.749L21.5658 29.925H21.3496C17.3759 35.0835 11.4469 38.4794 2.99902 39.25V30.0541C2.99902 30.0541 8.40334 29.7349 11.5804 26.3947H2.99902V16.7502H12.6435V24.6826L12.86 24.6818L16.8011 16.7502H24.095V24.6323L24.3114 24.632L28.4004 16.75H39.0693ZM101.832 36.7665H104.938V18.9375H101.832V36.7665ZM84.7082 36.5844C85.3832 36.8651 86.0697 37.0054 86.7676 37.0054C87.9205 37.0054 88.9521 36.7248 89.8623 36.1634C90.7725 35.6022 91.478 34.8286 91.9786 33.8424C92.4792 32.8488 92.7295 31.7223 92.7295 30.4632C92.7295 29.2041 92.4716 28.0777 91.9558 27.084C91.44 26.0904 90.7232 25.3205 89.8053 24.7744C88.8876 24.2206 87.8446 23.9476 86.6765 23.9552C85.9332 23.9552 85.2202 24.0993 84.5375 24.3875C83.8548 24.6758 83.286 25.0854 82.8308 25.6163C82.7957 25.6567 82.7616 25.6976 82.7285 25.7388V18.9489H79.611V36.7666H82.7057L82.6995 35.1021C82.7795 35.2002 82.8651 35.2961 82.956 35.3898C83.449 35.8981 84.0331 36.2962 84.7082 36.5844ZM87.894 33.7059C87.3857 34.0169 86.8055 34.1724 86.1531 34.1724C85.5083 34.1724 84.9167 34.0131 84.3782 33.6946C83.8396 33.3683 83.4111 32.9247 83.0925 32.3633C82.7815 31.8021 82.626 31.1648 82.626 30.4518C82.6185 29.7388 82.7701 29.1017 83.0811 28.5404C83.3997 27.9715 83.8282 27.5316 84.3668 27.2206C84.9053 26.902 85.5008 26.7465 86.1531 26.7541C86.8055 26.7465 87.3857 26.8982 87.894 27.2092C88.4097 27.5126 88.8041 27.9488 89.0772 28.5176C89.3578 29.0789 89.4982 29.7237 89.4982 30.4518C89.4982 31.1801 89.3578 31.8248 89.0772 32.3861C88.8041 32.9474 88.4097 33.3873 87.894 33.7059ZM43.5691 20.0184H47.119L50.2945 31.6154L53.6726 20.0184H56.6308L60.2945 31.3827L63.3437 20.0184H66.5977L61.7963 36.7665H58.7357L55.0102 25.6645L51.5905 36.7665H48.4957L43.5691 20.0184ZM71.8403 37.0623C70.6038 37.0699 69.4888 36.7968 68.4952 36.2431C67.5091 35.6818 66.7317 34.9043 66.1627 33.9106C65.6014 32.917 65.3208 31.783 65.3208 30.5086C65.3208 29.2723 65.6091 28.1535 66.1856 27.1523C66.7619 26.151 67.5432 25.3697 68.5293 24.8084C69.5154 24.2471 70.6152 23.9665 71.8288 23.9665C73.1942 23.9665 74.3888 24.2699 75.4128 24.8767C76.4444 25.4835 77.2143 26.3444 77.7225 27.4595C78.2383 28.5669 78.4242 29.8374 78.2801 31.271H68.5342C68.5614 31.8421 68.7039 32.3618 68.9617 32.8298C69.2499 33.3455 69.6519 33.7475 70.1677 34.0358C70.6835 34.324 71.2599 34.4681 71.8972 34.4681C72.3826 34.4605 72.8339 34.3771 73.2511 34.2179C73.6683 34.051 74.0209 33.8273 74.3092 33.5465C74.605 33.2659 74.8137 32.9474 74.9351 32.5909H78.1891C77.9918 33.4631 77.5974 34.2406 77.0058 34.9233C76.414 35.5984 75.6708 36.1255 74.7757 36.5048C73.8807 36.884 72.9022 37.0699 71.8403 37.0623ZM68.9731 28.1421C68.7913 28.4591 68.6653 28.8004 68.5952 29.1661H75.0555C75.0087 28.7041 74.8661 28.2832 74.6278 27.9032C74.3547 27.4557 73.9831 27.1105 73.5128 26.8678C73.0425 26.6175 72.5116 26.4924 71.9199 26.4924C71.2903 26.4924 70.7177 26.6365 70.2018 26.9247C69.6861 27.2129 69.2764 27.6188 68.9731 28.1421ZM95.0168 24.2282C95.0168 23.2118 95.248 22.3092 95.7108 21.5203C96.1734 20.7239 96.822 20.1057 97.6564 19.6657C98.4983 19.2182 99.4807 18.9868 100.603 18.9717V21.7365C100.08 21.7441 99.6323 21.854 99.2607 22.0664C98.8965 22.2712 98.6159 22.5708 98.4187 22.9653C98.2372 23.3284 98.1392 23.7494 98.1248 24.2282H100.535V26.8565H98.1229V36.7665H95.0168V26.8565H93.0143V24.2282H95.0168ZM112.834 37.0395C111.567 37.0395 110.433 36.7626 109.432 36.209C108.438 35.6476 107.657 34.874 107.088 33.8878C106.527 32.8942 106.246 31.7678 106.246 30.5086C106.246 29.242 106.527 28.1117 107.088 27.1181C107.657 26.1168 108.438 25.3393 109.432 24.7856C110.433 24.2319 111.567 23.955 112.834 23.955C114.108 23.955 115.246 24.2319 116.247 24.7856C117.256 25.3393 118.041 26.113 118.602 27.1067C119.164 28.1003 119.448 29.2343 119.456 30.5086C119.448 31.7678 119.164 32.8942 118.602 33.8878C118.049 34.874 117.267 35.6476 116.258 36.209C115.25 36.7626 114.108 37.0395 112.834 37.0395ZM112.834 34.1837C113.501 34.1837 114.093 34.032 114.609 33.7286C115.125 33.4176 115.523 32.9852 115.803 32.4315C116.084 31.8702 116.224 31.2292 116.224 30.5086C116.224 29.7805 116.084 29.1357 115.803 28.5744C115.523 28.0131 115.125 27.5808 114.609 27.2774C114.093 26.9664 113.501 26.8109 112.834 26.8109C112.174 26.8109 111.586 26.9664 111.07 27.2774C110.562 27.5808 110.168 28.0131 109.887 28.5744C109.606 29.1357 109.47 29.7805 109.477 30.5086C109.477 31.2292 109.618 31.8702 109.898 32.4315C110.187 32.9852 110.581 33.4176 111.082 33.7286C111.59 34.032 112.174 34.1837 112.834 34.1837ZM122.812 24.2282H119.353L123.097 36.7665H126.123L128.585 28.7583L131.243 36.7665H134.224L137.979 24.2282H134.85L132.72 32.0325L130.366 24.2282H127.341L124.998 32.2044L122.812 24.2282Z" fill="black"/>
<path fill-rule="evenodd" clip-rule="evenodd" d="M39.0693 16.75L27.5598 39.25H16.749L21.5658 29.925H21.3496C17.3759 35.0835 11.4469 38.4794 2.99902 39.25V30.0541C2.99902 30.0541 8.40334 29.7349 11.5804 26.3947H2.99902V16.7502H12.6435V24.6826L12.86 24.6818L16.8011 16.7502H24.095V24.6323L24.3114 24.632L28.4004 16.75H39.0693ZM101.832 36.7665H104.938V18.9375H101.832V36.7665ZM84.7082 36.5844C85.3832 36.8651 86.0697 37.0054 86.7676 37.0054C87.9205 37.0054 88.9521 36.7248 89.8623 36.1634C90.7725 35.6022 91.478 34.8286 91.9786 33.8424C92.4792 32.8488 92.7295 31.7223 92.7295 30.4632C92.7295 29.2041 92.4716 28.0777 91.9558 27.084C91.44 26.0904 90.7232 25.3205 89.8053 24.7744C88.8876 24.2206 87.8446 23.9476 86.6765 23.9552C85.9332 23.9552 85.2202 24.0993 84.5375 24.3875C83.8548 24.6758 83.286 25.0854 82.8308 25.6163C82.7957 25.6567 82.7616 25.6976 82.7285 25.7388V18.9489H79.611V36.7666H82.7057L82.6995 35.1021C82.7795 35.2002 82.8651 35.2961 82.956 35.3898C83.449 35.8981 84.0331 36.2962 84.7082 36.5844ZM87.894 33.7059C87.3857 34.0169 86.8055 34.1724 86.1531 34.1724C85.5083 34.1724 84.9167 34.0131 84.3782 33.6946C83.8396 33.3683 83.4111 32.9247 83.0925 32.3633C82.7815 31.8021 82.626 31.1648 82.626 30.4518C82.6185 29.7388 82.7701 29.1017 83.0811 28.5404C83.3997 27.9715 83.8282 27.5316 84.3668 27.2206C84.9053 26.902 85.5008 26.7465 86.1531 26.7541C86.8055 26.7465 87.3857 26.8982 87.894 27.2092C88.4097 27.5126 88.8041 27.9488 89.0772 28.5176C89.3578 29.0789 89.4982 29.7237 89.4982 30.4518C89.4982 31.1801 89.3578 31.8248 89.0772 32.3861C88.8041 32.9474 88.4097 33.3873 87.894 33.7059ZM43.5691 20.0184H47.119L50.2945 31.6154L53.6726 20.0184H56.6308L60.2945 31.3827L63.3437 20.0184H66.5977L61.7963 36.7665H58.7357L55.0102 25.6645L51.5905 36.7665H48.4957L43.5691 20.0184ZM71.8403 37.0623C70.6038 37.0699 69.4888 36.7968 68.4952 36.2431C67.5091 35.6818 66.7317 34.9043 66.1627 33.9106C65.6014 32.917 65.3208 31.783 65.3208 30.5086C65.3208 29.2723 65.6091 28.1535 66.1856 27.1523C66.7619 26.151 67.5432 25.3697 68.5293 24.8084C69.5154 24.2471 70.6152 23.9665 71.8288 23.9665C73.1942 23.9665 74.3888 24.2699 75.4128 24.8767C76.4444 25.4835 77.2143 26.3444 77.7225 27.4595C78.2383 28.5669 78.4242 29.8374 78.2801 31.271H68.5342C68.5614 31.8421 68.7039 32.3618 68.9617 32.8298C69.2499 33.3455 69.6519 33.7475 70.1677 34.0358C70.6835 34.324 71.2599 34.4681 71.8972 34.4681C72.3826 34.4605 72.8339 34.3771 73.2511 34.2179C73.6683 34.051 74.0209 33.8273 74.3092 33.5465C74.605 33.2659 74.8137 32.9474 74.9351 32.5909H78.1891C77.9918 33.4631 77.5974 34.2406 77.0058 34.9233C76.414 35.5984 75.6708 36.1255 74.7757 36.5048C73.8807 36.884 72.9022 37.0699 71.8403 37.0623ZM68.9731 28.1421C68.7913 28.4591 68.6653 28.8004 68.5952 29.1661H75.0555C75.0087 28.7041 74.8661 28.2832 74.6278 27.9032C74.3547 27.4557 73.9831 27.1105 73.5128 26.8678C73.0425 26.6175 72.5116 26.4924 71.9199 26.4924C71.2903 26.4924 70.7177 26.6365 70.2018 26.9247C69.6861 27.2129 69.2764 27.6188 68.9731 28.1421ZM95.0168 24.2282C95.0168 23.2118 95.248 22.3092 95.7108 21.5203C96.1734 20.7239 96.822 20.1057 97.6564 19.6657C98.4983 19.2182 99.4807 18.9868 100.603 18.9717V21.7365C100.08 21.7441 99.6323 21.854 99.2607 22.0664C98.8965 22.2712 98.6159 22.5708 98.4187 22.9653C98.2372 23.3284 98.1392 23.7494 98.1248 24.2282H100.535V26.8565H98.1229V36.7665H95.0168V26.8565H93.0143V24.2282H95.0168ZM112.834 37.0395C111.567 37.0395 110.433 36.7626 109.432 36.209C108.438 35.6476 107.657 34.874 107.088 33.8878C106.527 32.8942 106.246 31.7678 106.246 30.5086C106.246 29.242 106.527 28.1117 107.088 27.1181C107.657 26.1168 108.438 25.3393 109.432 24.7856C110.433 24.2319 111.567 23.955 112.834 23.955C114.108 23.955 115.246 24.2319 116.247 24.7856C117.256 25.3393 118.041 26.113 118.602 27.1067C119.164 28.1003 119.448 29.2343 119.456 30.5086C119.448 31.7678 119.164 32.8942 118.602 33.8878C118.049 34.874 117.267 35.6476 116.258 36.209C115.25 36.7626 114.108 37.0395 112.834 37.0395ZM112.834 34.1837C113.501 34.1837 114.093 34.032 114.609 33.7286C115.125 33.4176 115.523 32.9852 115.803 32.4315C116.084 31.8702 116.224 31.2292 116.224 30.5086C116.224 29.7805 116.084 29.1357 115.803 28.5744C115.523 28.0131 115.125 27.5808 114.609 27.2774C114.093 26.9664 113.501 26.8109 112.834 26.8109C112.174 26.8109 111.586 26.9664 111.07 27.2774C110.562 27.5808 110.168 28.0131 109.887 28.5744C109.606 29.1357 109.47 29.7805 109.477 30.5086C109.477 31.2292 109.618 31.8702 109.898 32.4315C110.187 32.9852 110.581 33.4176 111.082 33.7286C111.59 34.032 112.174 34.1837 112.834 34.1837ZM122.812 24.2282H119.353L123.097 36.7665H126.123L128.585 28.7583L131.243 36.7665H134.224L137.979 24.2282H134.85L132.72 32.0325L130.366 24.2282H127.341L124.998 32.2044L122.812 24.2282Z" fill="black"/>
<path d="M39.0693 16.75L27.5598 39.25H16.749L21.5658 29.925H21.3496C17.3759 35.0835 11.4469 38.4794 2.99902 39.25V30.0541C2.99902 30.0541 8.40334 29.7349 11.5804 26.3947H2.99902V16.7502H12.6435V24.6826L12.86 24.6818L16.8011 16.7502H24.095V24.6323L24.3114 24.632L28.4004 16.75H39.0693ZM101.832 36.7665H104.938V18.9375H101.832V36.7665ZM84.7082 36.5844C85.3832 36.8651 86.0697 37.0054 86.7676 37.0054C87.9205 37.0054 88.9521 36.7248 89.8623 36.1634C90.7725 35.6022 91.478 34.8286 91.9786 33.8424C92.4792 32.8488 92.7295 31.7223 92.7295 30.4632C92.7295 29.2041 92.4716 28.0777 91.9558 27.084C91.44 26.0904 90.7232 25.3205 89.8053 24.7744C88.8876 24.2206 87.8446 23.9476 86.6765 23.9552C85.9332 23.9552 85.2202 24.0993 84.5375 24.3875C83.8548 24.6758 83.286 25.0854 82.8308 25.6163C82.7957 25.6567 82.7616 25.6976 82.7285 25.7388V18.9489H79.611V36.7666H82.7057L82.6995 35.1021C82.7795 35.2002 82.8651 35.2961 82.956 35.3898C83.449 35.8981 84.0331 36.2962 84.7082 36.5844ZM87.894 33.7059C87.3857 34.0169 86.8055 34.1724 86.1531 34.1724C85.5083 34.1724 84.9167 34.0131 84.3782 33.6946C83.8396 33.3683 83.4111 32.9247 83.0925 32.3633C82.7815 31.8021 82.626 31.1648 82.626 30.4518C82.6185 29.7388 82.7701 29.1017 83.0811 28.5404C83.3997 27.9715 83.8282 27.5316 84.3668 27.2206C84.9053 26.902 85.5008 26.7465 86.1531 26.7541C86.8055 26.7465 87.3857 26.8982 87.894 27.2092C88.4097 27.5126 88.8041 27.9488 89.0772 28.5176C89.3578 29.0789 89.4982 29.7237 89.4982 30.4518C89.4982 31.1801 89.3578 31.8248 89.0772 32.3861C88.8041 32.9474 88.4097 33.3873 87.894 33.7059ZM43.5691 20.0184H47.119L50.2945 31.6154L53.6726 20.0184H56.6308L60.2945 31.3827L63.3437 20.0184H66.5977L61.7963 36.7665H58.7357L55.0102 25.6645L51.5905 36.7665H48.4957L43.5691 20.0184ZM71.8403 37.0623C70.6038 37.0699 69.4888 36.7968 68.4952 36.2431C67.5091 35.6818 66.7317 34.9043 66.1627 33.9106C65.6014 32.917 65.3208 31.783 65.3208 30.5086C65.3208 29.2723 65.6091 28.1535 66.1856 27.1523C66.7619 26.151 67.5432 25.3697 68.5293 24.8084C69.5154 24.2471 70.6152 23.9665 71.8288 23.9665C73.1942 23.9665 74.3888 24.2699 75.4128 24.8767C76.4444 25.4835 77.2143 26.3444 77.7225 27.4595C78.2383 28.5669 78.4242 29.8374 78.2801 31.271H68.5342C68.5614 31.8421 68.7039 32.3618 68.9617 32.8298C69.2499 33.3455 69.6519 33.7475 70.1677 34.0358C70.6835 34.324 71.2599 34.4681 71.8972 34.4681C72.3826 34.4605 72.8339 34.3771 73.2511 34.2179C73.6683 34.051 74.0209 33.8273 74.3092 33.5465C74.605 33.2659 74.8137 32.9474 74.9351 32.5909H78.1891C77.9918 33.4631 77.5974 34.2406 77.0058 34.9233C76.414 35.5984 75.6708 36.1255 74.7757 36.5048C73.8807 36.884 72.9022 37.0699 71.8403 37.0623ZM68.9731 28.1421C68.7913 28.4591 68.6653 28.8004 68.5952 29.1661H75.0555C75.0087 28.7041 74.8661 28.2832 74.6278 27.9032C74.3547 27.4557 73.9831 27.1105 73.5128 26.8678C73.0425 26.6175 72.5116 26.4924 71.9199 26.4924C71.2903 26.4924 70.7177 26.6365 70.2018 26.9247C69.6861 27.2129 69.2764 27.6188 68.9731 28.1421ZM95.0168 24.2282C95.0168 23.2118 95.248 22.3092 95.7108 21.5203C96.1734 20.7239 96.822 20.1057 97.6564 19.6657C98.4983 19.2182 99.4807 18.9868 100.603 18.9717V21.7365C100.08 21.7441 99.6323 21.854 99.2607 22.0664C98.8965 22.2712 98.6159 22.5708 98.4187 22.9653C98.2372 23.3284 98.1392 23.7494 98.1248 24.2282H100.535V26.8565H98.1229V36.7665H95.0168V26.8565H93.0143V24.2282H95.0168ZM112.834 37.0395C111.567 37.0395 110.433 36.7626 109.432 36.209C108.438 35.6476 107.657 34.874 107.088 33.8878C106.527 32.8942 106.246 31.7678 106.246 30.5086C106.246 29.242 106.527 28.1117 107.088 27.1181C107.657 26.1168 108.438 25.3393 109.432 24.7856C110.433 24.2319 111.567 23.955 112.834 23.955C114.108 23.955 115.246 24.2319 116.247 24.7856C117.256 25.3393 118.041 26.113 118.602 27.1067C119.164 28.1003 119.448 29.2343 119.456 30.5086C119.448 31.7678 119.164 32.8942 118.602 33.8878C118.049 34.874 117.267 35.6476 116.258 36.209C115.25 36.7626 114.108 37.0395 112.834 37.0395ZM112.834 34.1837C113.501 34.1837 114.093 34.032 114.609 33.7286C115.125 33.4176 115.523 32.9852 115.803 32.4315C116.084 31.8702 116.224 31.2292 116.224 30.5086C116.224 29.7805 116.084 29.1357 115.803 28.5744C115.523 28.0131 115.125 27.5808 114.609 27.2774C114.093 26.9664 113.501 26.8109 112.834 26.8109C112.174 26.8109 111.586 26.9664 111.07 27.2774C110.562 27.5808 110.168 28.0131 109.887 28.5744C109.606 29.1357 109.47 29.7805 109.477 30.5086C109.477 31.2292 109.618 31.8702 109.898 32.4315C110.187 32.9852 110.581 33.4176 111.082 33.7286C111.59 34.032 112.174 34.1837 112.834 34.1837ZM122.812 24.2282H119.353L123.097 36.7665H126.123L128.585 28.7583L131.243 36.7665H134.224L137.979 24.2282H134.85L132.72 32.0325L130.366 24.2282H127.341L124.998 32.2044L122.812 24.2282Z" fill="black"/>
<path fill-rule="evenodd" clip-rule="evenodd" d="M39.0693 16.75L27.5598 39.25H16.749L21.5658 29.925H21.3496C17.3759 35.0835 11.4469 38.4794 2.99902 39.25V30.0541C2.99902 30.0541 8.40334 29.7349 11.5804 26.3947H2.99902V16.7502H12.6435V24.6826L12.86 24.6818L16.8011 16.7502H24.095V24.6323L24.3114 24.632L28.4004 16.75H39.0693ZM101.832 36.7665H104.938V18.9375H101.832V36.7665ZM84.7082 36.5844C85.3832 36.8651 86.0697 37.0054 86.7676 37.0054C87.9205 37.0054 88.9521 36.7248 89.8623 36.1634C90.7725 35.6022 91.478 34.8286 91.9786 33.8424C92.4792 32.8488 92.7295 31.7223 92.7295 30.4632C92.7295 29.2041 92.4716 28.0777 91.9558 27.084C91.44 26.0904 90.7232 25.3205 89.8053 24.7744C88.8876 24.2206 87.8446 23.9476 86.6765 23.9552C85.9332 23.9552 85.2202 24.0993 84.5375 24.3875C83.8548 24.6758 83.286 25.0854 82.8308 25.6163C82.7957 25.6567 82.7616 25.6976 82.7285 25.7388V18.9489H79.611V36.7666H82.7057L82.6995 35.1021C82.7795 35.2002 82.8651 35.2961 82.956 35.3898C83.449 35.8981 84.0331 36.2962 84.7082 36.5844ZM87.894 33.7059C87.3857 34.0169 86.8055 34.1724 86.1531 34.1724C85.5083 34.1724 84.9167 34.0131 84.3782 33.6946C83.8396 33.3683 83.4111 32.9247 83.0925 32.3633C82.7815 31.8021 82.626 31.1648 82.626 30.4518C82.6185 29.7388 82.7701 29.1017 83.0811 28.5404C83.3997 27.9715 83.8282 27.5316 84.3668 27.2206C84.9053 26.902 85.5008 26.7465 86.1531 26.7541C86.8055 26.7465 87.3857 26.8982 87.894 27.2092C88.4097 27.5126 88.8041 27.9488 89.0772 28.5176C89.3578 29.0789 89.4982 29.7237 89.4982 30.4518C89.4982 31.1801 89.3578 31.8248 89.0772 32.3861C88.8041 32.9474 88.4097 33.3873 87.894 33.7059ZM43.5691 20.0184H47.119L50.2945 31.6154L53.6726 20.0184H56.6308L60.2945 31.3827L63.3437 20.0184H66.5977L61.7963 36.7665H58.7357L55.0102 25.6645L51.5905 36.7665H48.4957L43.5691 20.0184ZM71.8403 37.0623C70.6038 37.0699 69.4888 36.7968 68.4952 36.2431C67.5091 35.6818 66.7317 34.9043 66.1627 33.9106C65.6014 32.917 65.3208 31.783 65.3208 30.5086C65.3208 29.2723 65.6091 28.1535 66.1856 27.1523C66.7619 26.151 67.5432 25.3697 68.5293 24.8084C69.5154 24.2471 70.6152 23.9665 71.8288 23.9665C73.1942 23.9665 74.3888 24.2699 75.4128 24.8767C76.4444 25.4835 77.2143 26.3444 77.7225 27.4595C78.2383 28.5669 78.4242 29.8374 78.2801 31.271H68.5342C68.5614 31.8421 68.7039 32.3618 68.9617 32.8298C69.2499 33.3455 69.6519 33.7475 70.1677 34.0358C70.6835 34.324 71.2599 34.4681 71.8972 34.4681C72.3826 34.4605 72.8339 34.3771 73.2511 34.2179C73.6683 34.051 74.0209 33.8273 74.3092 33.5465C74.605 33.2659 74.8137 32.9474 74.9351 32.5909H78.1891C77.9918 33.4631 77.5974 34.2406 77.0058 34.9233C76.414 35.5984 75.6708 36.1255 74.7757 36.5048C73.8807 36.884 72.9022 37.0699 71.8403 37.0623ZM68.9731 28.1421C68.7913 28.4591 68.6653 28.8004 68.5952 29.1661H75.0555C75.0087 28.7041 74.8661 28.2832 74.6278 27.9032C74.3547 27.4557 73.9831 27.1105 73.5128 26.8678C73.0425 26.6175 72.5116 26.4924 71.9199 26.4924C71.2903 26.4924 70.7177 26.6365 70.2018 26.9247C69.6861 27.2129 69.2764 27.6188 68.9731 28.1421ZM95.0168 24.2282C95.0168 23.2118 95.248 22.3092 95.7108 21.5203C96.1734 20.7239 96.822 20.1057 97.6564 19.6657C98.4983 19.2182 99.4807 18.9868 100.603 18.9717V21.7365C100.08 21.7441 99.6323 21.854 99.2607 22.0664C98.8965 22.2712 98.6159 22.5708 98.4187 22.9653C98.2372 23.3284 98.1392 23.7494 98.1248 24.2282H100.535V26.8565H98.1229V36.7665H95.0168V26.8565H93.0143V24.2282H95.0168ZM112.834 37.0395C111.567 37.0395 110.433 36.7626 109.432 36.209C108.438 35.6476 107.657 34.874 107.088 33.8878C106.527 32.8942 106.246 31.7678 106.246 30.5086C106.246 29.242 106.527 28.1117 107.088 27.1181C107.657 26.1168 108.438 25.3393 109.432 24.7856C110.433 24.2319 111.567 23.955 112.834 23.955C114.108 23.955 115.246 24.2319 116.247 24.7856C117.256 25.3393 118.041 26.113 118.602 27.1067C119.164 28.1003 119.448 29.2343 119.456 30.5086C119.448 31.7678 119.164 32.8942 118.602 33.8878C118.049 34.874 117.267 35.6476 116.258 36.209C115.25 36.7626 114.108 37.0395 112.834 37.0395ZM112.834 34.1837C113.501 34.1837 114.093 34.032 114.609 33.7286C115.125 33.4176 115.523 32.9852 115.803 32.4315C116.084 31.8702 116.224 31.2292 116.224 30.5086C116.224 29.7805 116.084 29.1357 115.803 28.5744C115.523 28.0131 115.125 27.5808 114.609 27.2774C114.093 26.9664 113.501 26.8109 112.834 26.8109C112.174 26.8109 111.586 26.9664 111.07 27.2774C110.562 27.5808 110.168 28.0131 109.887 28.5744C109.606 29.1357 109.47 29.7805 109.477 30.5086C109.477 31.2292 109.618 31.8702 109.898 32.4315C110.187 32.9852 110.581 33.4176 111.082 33.7286C111.59 34.032 112.174 34.1837 112.834 34.1837ZM122.812 24.2282H119.353L123.097 36.7665H126.123L128.585 28.7583L131.243 36.7665H134.224L137.979 24.2282H134.85L132.72 32.0325L130.366 24.2282H127.341L124.998 32.2044L122.812 24.2282Z" fill="black"/>
<path d="M39.0693 16.75L27.5598 39.25H16.749L21.5658 29.925H21.3496C17.3759 35.0835 11.4469 38.4794 2.99902 39.25V30.0541C2.99902 30.0541 8.40334 29.7349 11.5804 26.3947H2.99902V16.7502H12.6435V24.6826L12.86 24.6818L16.8011 16.7502H24.095V24.6323L24.3114 24.632L28.4004 16.75H39.0693ZM101.832 36.7665H104.938V18.9375H101.832V36.7665ZM84.7082 36.5844C85.3832 36.8651 86.0697 37.0054 86.7676 37.0054C87.9205 37.0054 88.9521 36.7248 89.8623 36.1634C90.7725 35.6022 91.478 34.8286 91.9786 33.8424C92.4792 32.8488 92.7295 31.7223 92.7295 30.4632C92.7295 29.2041 92.4716 28.0777 91.9558 27.084C91.44 26.0904 90.7232 25.3205 89.8053 24.7744C88.8876 24.2206 87.8446 23.9476 86.6765 23.9552C85.9332 23.9552 85.2202 24.0993 84.5375 24.3875C83.8548 24.6758 83.286 25.0854 82.8308 25.6163C82.7957 25.6567 82.7616 25.6976 82.7285 25.7388V18.9489H79.611V36.7666H82.7057L82.6995 35.1021C82.7795 35.2002 82.8651 35.2961 82.956 35.3898C83.449 35.8981 84.0331 36.2962 84.7082 36.5844ZM87.894 33.7059C87.3857 34.0169 86.8055 34.1724 86.1531 34.1724C85.5083 34.1724 84.9167 34.0131 84.3782 33.6946C83.8396 33.3683 83.4111 32.9247 83.0925 32.3633C82.7815 31.8021 82.626 31.1648 82.626 30.4518C82.6185 29.7388 82.7701 29.1017 83.0811 28.5404C83.3997 27.9715 83.8282 27.5316 84.3668 27.2206C84.9053 26.902 85.5008 26.7465 86.1531 26.7541C86.8055 26.7465 87.3857 26.8982 87.894 27.2092C88.4097 27.5126 88.8041 27.9488 89.0772 28.5176C89.3578 29.0789 89.4982 29.7237 89.4982 30.4518C89.4982 31.1801 89.3578 31.8248 89.0772 32.3861C88.8041 32.9474 88.4097 33.3873 87.894 33.7059ZM43.5691 20.0184H47.119L50.2945 31.6154L53.6726 20.0184H56.6308L60.2945 31.3827L63.3437 20.0184H66.5977L61.7963 36.7665H58.7357L55.0102 25.6645L51.5905 36.7665H48.4957L43.5691 20.0184ZM71.8403 37.0623C70.6038 37.0699 69.4888 36.7968 68.4952 36.2431C67.5091 35.6818 66.7317 34.9043 66.1627 33.9106C65.6014 32.917 65.3208 31.783 65.3208 30.5086C65.3208 29.2723 65.6091 28.1535 66.1856 27.1523C66.7619 26.151 67.5432 25.3697 68.5293 24.8084C69.5154 24.2471 70.6152 23.9665 71.8288 23.9665C73.1942 23.9665 74.3888 24.2699 75.4128 24.8767C76.4444 25.4835 77.2143 26.3444 77.7225 27.4595C78.2383 28.5669 78.4242 29.8374 78.2801 31.271H68.5342C68.5614 31.8421 68.7039 32.3618 68.9617 32.8298C69.2499 33.3455 69.6519 33.7475 70.1677 34.0358C70.6835 34.324 71.2599 34.4681 71.8972 34.4681C72.3826 34.4605 72.8339 34.3771 73.2511 34.2179C73.6683 34.051 74.0209 33.8273 74.3092 33.5465C74.605 33.2659 74.8137 32.9474 74.9351 32.5909H78.1891C77.9918 33.4631 77.5974 34.2406 77.0058 34.9233C76.414 35.5984 75.6708 36.1255 74.7757 36.5048C73.8807 36.884 72.9022 37.0699 71.8403 37.0623ZM68.9731 28.1421C68.7913 28.4591 68.6653 28.8004 68.5952 29.1661H75.0555C75.0087 28.7041 74.8661 28.2832 74.6278 27.9032C74.3547 27.4557 73.9831 27.1105 73.5128 26.8678C73.0425 26.6175 72.5116 26.4924 71.9199 26.4924C71.2903 26.4924 70.7177 26.6365 70.2018 26.9247C69.6861 27.2129 69.2764 27.6188 68.9731 28.1421ZM95.0168 24.2282C95.0168 23.2118 95.248 22.3092 95.7108 21.5203C96.1734 20.7239 96.822 20.1057 97.6564 19.6657C98.4983 19.2182 99.4807 18.9868 100.603 18.9717V21.7365C100.08 21.7441 99.6323 21.854 99.2607 22.0664C98.8965 22.2712 98.6159 22.5708 98.4187 22.9653C98.2372 23.3284 98.1392 23.7494 98.1248 24.2282H100.535V26.8565H98.1229V36.7665H95.0168V26.8565H93.0143V24.2282H95.0168ZM112.834 37.0395C111.567 37.0395 110.433 36.7626 109.432 36.209C108.438 35.6476 107.657 34.874 107.088 33.8878C106.527 32.8942 106.246 31.7678 106.246 30.5086C106.246 29.242 106.527 28.1117 107.088 27.1181C107.657 26.1168 108.438 25.3393 109.432 24.7856C110.433 24.2319 111.567 23.955 112.834 23.955C114.108 23.955 115.246 24.2319 116.247 24.7856C117.256 25.3393 118.041 26.113 118.602 27.1067C119.164 28.1003 119.448 29.2343 119.456 30.5086C119.448 31.7678 119.164 32.8942 118.602 33.8878C118.049 34.874 117.267 35.6476 116.258 36.209C115.25 36.7626 114.108 37.0395 112.834 37.0395ZM112.834 34.1837C113.501 34.1837 114.093 34.032 114.609 33.7286C115.125 33.4176 115.523 32.9852 115.803 32.4315C116.084 31.8702 116.224 31.2292 116.224 30.5086C116.224 29.7805 116.084 29.1357 115.803 28.5744C115.523 28.0131 115.125 27.5808 114.609 27.2774C114.093 26.9664 113.501 26.8109 112.834 26.8109C112.174 26.8109 111.586 26.9664 111.07 27.2774C110.562 27.5808 110.168 28.0131 109.887 28.5744C109.606 29.1357 109.47 29.7805 109.477 30.5086C109.477 31.2292 109.618 31.8702 109.898 32.4315C110.187 32.9852 110.581 33.4176 111.082 33.7286C111.59 34.032 112.174 34.1837 112.834 34.1837ZM122.812 24.2282H119.353L123.097 36.7665H126.123L128.585 28.7583L131.243 36.7665H134.224L137.979 24.2282H134.85L132.72 32.0325L130.366 24.2282H127.341L124.998 32.2044L122.812 24.2282Z" fill="black"/>
</svg>
