<svg width="141" height="56" viewBox="0 0 141 56" fill="none" xmlns="http://www.w3.org/2000/svg">
<path fill-rule="evenodd" clip-rule="evenodd" d="M35.8017 19.2355L36.0529 19.684C36.3691 20.2289 36.5361 20.8476 36.5372 21.4776V35.3791C36.532 36.0086 36.3652 36.6262 36.0529 37.1728L35.7838 37.6213C35.4766 38.1703 35.0233 38.6234 34.4745 38.9307L22.4384 45.8903C21.8934 46.2065 21.2748 46.3735 20.6447 46.3747H20.1425C19.5115 46.3806 18.891 46.213 18.3487 45.8903L6.29486 38.9487C5.75761 38.6261 5.30792 38.1765 4.98543 37.6392L4.73431 37.1908C4.41816 36.6457 4.25112 36.0271 4.25 35.397V21.4955C4.25112 20.8656 4.41816 20.2468 4.73431 19.7019L4.98543 19.2535C5.29979 18.7099 5.75131 18.2583 6.29486 17.944L18.3308 10.9843C18.8758 10.6682 19.4944 10.5011 20.1245 10.5H20.6447C21.2748 10.5011 21.8934 10.6682 22.4384 10.9843L34.4745 17.9261C35.0211 18.2425 35.4779 18.6932 35.8017 19.2355ZM20.6447 14.0874H20.1245L9.63122 20.1502L20.3936 26.3565L31.156 20.1502L20.6447 14.0874ZM32.6806 35.8276L22.1873 41.8905V29.4778L32.9497 23.2536V35.3792L32.6806 35.8276ZM83.3133 37.0475H79.5938V17.4169H83.3133V37.0475ZM49.75 37.4683H53.9086V30.3392H55.7167L60.1336 37.4683H64.5763L59.6945 29.6161C61.8642 28.9703 63.4915 27.498 63.4915 24.7084V24.605C63.4915 20.7823 60.7277 19 56.3624 19H49.75V37.4683ZM53.9086 27.498V22.2029H56.2591C58.2739 22.2029 59.4104 22.8487 59.4104 24.7342V24.8375C59.4104 26.6198 58.3514 27.498 56.2591 27.498H53.9086ZM71.3306 37.3309C75.0242 37.3309 77.3489 35.7037 77.788 32.7849H74.2493C74.0168 33.9214 73.1645 34.6705 71.4339 34.6705C69.3933 34.6705 68.1794 33.379 68.076 31.1318H77.8139V30.0986C77.8139 25.2684 74.7143 23.2279 71.2272 23.2279C67.3011 23.2279 64.279 25.9917 64.279 30.2536V30.4602C64.279 34.7738 67.2494 37.3309 71.3306 37.3309ZM68.1277 28.833C68.4118 26.9215 69.5483 25.8109 71.2272 25.8109C73.0095 25.8109 74.0427 26.7924 74.1719 28.833H68.1277ZM90.4485 37.332C92.6701 37.332 94.0386 36.2988 94.736 34.9299V37.0479H98.4556V23.5389H94.736V31.4687C94.736 33.4576 93.4961 34.4391 91.9211 34.4391C90.3198 34.4391 89.57 33.5609 89.57 31.727V23.5389H85.8509V32.2436C85.8509 35.7822 87.8139 37.332 90.4485 37.332ZM104.741 37.0468H100.995V23.5378H104.741V25.6042C105.412 24.3385 106.858 23.2279 108.873 23.2279C110.656 23.2279 111.999 23.977 112.645 25.5784C113.729 23.9511 115.486 23.2279 117.19 23.2279C119.696 23.2279 121.633 24.8035 121.633 28.3939V37.0468H117.914V28.8071C117.914 27.0765 117.138 26.3016 115.795 26.3016C114.349 26.3016 113.187 27.2315 113.187 29.0654V37.0468H109.467V28.8071C109.467 27.0765 108.667 26.3016 107.349 26.3016C105.903 26.3016 104.741 27.2315 104.741 29.0654V37.0468ZM130.281 37.3309C133.976 37.3309 136.301 35.7037 136.739 32.7849H133.2C132.968 33.9214 132.115 34.6705 130.385 34.6705C128.344 34.6705 127.131 33.379 127.027 31.1318H136.765V30.0986C136.765 25.2684 133.665 23.2279 130.178 23.2279C126.252 23.2279 123.23 25.9917 123.23 30.2536V30.4602C123.23 34.7738 126.2 37.3309 130.281 37.3309ZM127.079 28.833C127.363 26.9215 128.5 25.8109 130.178 25.8109C131.961 25.8109 132.994 26.7924 133.123 28.833H127.079Z" fill="black"/>
</svg>
