<svg width="335" height="189" viewBox="0 0 335 189" fill="none" xmlns="http://www.w3.org/2000/svg">
<rect width="335" height="188" transform="translate(0 0.5)" fill="#CCCCCC"/>
<rect width="335" height="188" transform="translate(0 0.5)" fill="black" fill-opacity="0.5"/>
<path fill-rule="evenodd" clip-rule="evenodd" d="M104 34.5H232C240.837 34.5 248 41.2155 248 49.5V139.5C248 147.785 240.837 154.5 232 154.5H104C95.1632 154.5 88 147.785 88 139.5V49.5C88 41.2155 95.1632 34.5 104 34.5ZM161.36 118.65L192.48 99.15C194.157 98.1255 195.168 96.3765 195.168 94.5C195.168 92.6235 194.157 90.8745 192.48 89.85L161.36 70.35C159.522 69.186 157.15 69.0667 155.19 70.0402C153.231 71.0137 152.004 72.921 152 75V114C152.004 116.079 153.231 117.986 155.19 118.96C157.15 119.933 159.522 119.814 161.36 118.65Z" fill="black" fill-opacity="0.15"/>
<path fill-rule="evenodd" clip-rule="evenodd" d="M141.333 94.5006C141.333 79.773 153.272 67.834 168 67.834C175.072 67.834 181.855 70.6435 186.856 75.6444C191.857 80.6454 194.666 87.4282 194.666 94.5006C194.666 109.228 182.727 121.167 168 121.167C153.272 121.167 141.333 109.228 141.333 94.5006ZM163.12 105.914L178.666 96.2073C179.248 95.8347 179.6 95.1915 179.6 94.5006C179.6 93.8098 179.248 93.1665 178.666 92.794L163.066 83.0873C162.452 82.6999 161.676 82.6761 161.039 83.025C160.402 83.374 160.004 84.0409 160 84.7673V104.234C159.991 104.978 160.396 105.665 161.051 106.018C161.706 106.371 162.503 106.331 163.12 105.914Z" fill="white"/>
</svg>
