<svg width="1312" height="738" viewBox="0 0 1312 738" fill="none" xmlns="http://www.w3.org/2000/svg">
<rect width="1312" height="738" fill="#CCCCCC"/>
<rect width="1312" height="738" fill="black" fill-opacity="0.5"/>
<path fill-rule="evenodd" clip-rule="evenodd" d="M576 289H736C747.046 289 756 297.954 756 309V429C756 440.046 747.046 449 736 449H576C564.954 449 556 440.046 556 429V309C556 297.954 564.954 289 576 289ZM647.7 401.2L686.6 375.2C688.696 373.834 689.96 371.502 689.96 369C689.96 366.498 688.696 364.166 686.6 362.8L647.7 336.8C645.403 335.248 642.438 335.089 639.988 336.387C637.539 337.685 636.005 340.228 636 343V395C636.005 397.772 637.539 400.315 639.988 401.613C642.438 402.911 645.403 402.752 647.7 401.2Z" fill="black" fill-opacity="0.15"/>
<path fill-rule="evenodd" clip-rule="evenodd" d="M629.333 369.001C629.333 354.273 641.272 342.334 656 342.334C663.072 342.334 669.855 345.144 674.856 350.144C679.857 355.145 682.666 361.928 682.666 369.001C682.666 383.728 670.727 395.667 656 395.667C641.272 395.667 629.333 383.728 629.333 369.001ZM651.12 380.414L666.666 370.707C667.248 370.335 667.6 369.692 667.6 369.001C667.6 368.31 667.248 367.667 666.666 367.294L651.066 357.587C650.452 357.2 649.676 357.176 649.039 357.525C648.402 357.874 648.004 358.541 648 359.267V378.734C647.991 379.478 648.396 380.165 649.051 380.518C649.706 380.871 650.503 380.831 651.12 380.414Z" fill="white"/>
</svg>
